<svg width="305" height="305" viewBox="0 0 305 305" fill="none" xmlns="http://www.w3.org/2000/svg">
<path d="M70.943 266.417C70.943 266.417 80.2302 227.896 144.372 227.088C209.428 226.264 223.672 248.575 225.883 266.417H70.943Z" fill="#FFB949"/>
<path d="M149.648 266.418C149.648 266.418 149.511 255.651 149.648 253.165C149.648 253.165 141.749 252.144 138.714 252.189C139.192 253.743 139.503 255.343 139.644 256.963C139.644 256.963 126.163 259.128 123.434 261.172C122 262.3 122 266.418 122 266.418H149.648Z" fill="#FCCAC2"/>
<path d="M131.714 189.39C131.714 189.39 132.05 206.165 133.743 211.106C135.435 216.047 136.655 222.025 142.893 225.334C142.971 227.993 142.663 230.648 141.978 233.218C142.946 234.354 144.139 235.276 145.482 235.928C146.824 236.58 148.287 236.947 149.779 237.006C151.27 237.064 152.757 236.814 154.147 236.269C155.536 235.725 156.798 234.899 157.853 233.844C157.359 230.773 157.247 227.654 157.517 224.556C159.869 223.159 161.867 221.24 163.358 218.947C164.85 216.655 165.794 214.05 166.118 211.335C167.476 201.773 167.75 190.793 167.079 188.261C164.166 188.176 161.314 187.409 158.753 186.02C155.154 183.824 153.43 174.292 145.028 173.82C145.028 173.82 144.89 179.203 142.74 182.238C140.59 185.272 133.621 184.525 131.714 189.39Z" fill="#FCCAC2"/>
<path d="M225.7 115.214C224.999 114.116 227.103 104.676 227.225 102.617C227.225 102.617 217.389 102.358 211.975 95.221C211.975 95.221 204.762 99.125 197.427 96.1513C197.427 96.1513 194.27 110.547 193.401 114.695C192.531 118.843 190.808 131.013 199.592 135.527C199.592 135.527 199.196 139.095 198.647 142.267C194.682 131.211 181.719 102.023 156.313 104.813C155.784 102.254 155.712 99.6206 156.099 97.0358C156.099 97.0358 165.005 95.0228 167.445 82.1975C168.863 73.4525 168.966 64.5447 167.75 55.7693C164.829 55.4749 161.887 55.4749 158.966 55.7693C154.498 56.2878 152.988 58.3008 149.267 58.3923C145.546 58.4838 143.167 56.6995 138.912 57.0503C134.658 57.401 131.287 62.4488 130.784 67.2525C130.784 67.2525 121.878 68.2438 122.519 73.2153C123.159 78.1868 129.427 78.0953 129.427 78.0953C129.427 78.0953 132.157 90.9968 139.477 96.3953C141.215 97.6915 141.703 96.3953 140.193 105.042C140.193 105.042 123.586 100.467 102.526 125.843L102.145 126.301C102.145 123.876 102.145 121.253 101.87 118.386C100.726 101.779 95.7701 101.611 95.7701 101.611C91.3171 104.89 74.0693 107.101 72.7273 108.199C71.3853 109.297 71.2023 119.713 71.2023 119.713C68.4878 118.92 62.5098 119.591 62.3116 124.288C62.1133 128.985 68.4116 130.876 68.4116 130.876C68.3996 133.921 69.1258 136.924 70.5282 139.628C71.9305 142.332 73.9671 144.655 76.4636 146.4C76.7991 148.261 74.9386 156.984 74.9386 156.984C74.9386 156.984 79.9711 161.818 84.3783 161.909C88.1603 161.986 92.1406 157.09 91.9271 156.297C96.6639 155.382 101.561 155.794 106.079 157.487C106.079 157.487 115.229 147.498 116.053 147.864C116.876 148.23 113.628 162.519 113.628 162.519C116.69 165.783 119.319 169.427 121.451 173.362C120.477 173.931 119.635 174.701 118.983 175.622C118.331 176.542 117.883 177.592 117.669 178.7C115.443 186.172 120.719 189.71 120.978 194.727C121.131 198.311 118.843 201.941 120.368 205.723C123.144 212.616 133.59 210.984 133.59 210.984C133.194 209.459 131.287 193.782 131.791 189.329C132.294 184.876 138.943 185.44 141.703 183.473C142.267 183.076 145.15 179.935 145.15 173.82C145.15 173.82 150.563 172.295 157.883 185.562C159.088 187.743 167.171 188.2 167.171 188.2C168.192 194.56 165.874 212.753 165.874 212.753C173.255 214.766 174.384 207.873 176.702 205.128C178.227 203.237 183.229 202.84 183.32 196.298C183.32 191.296 181.216 187.682 180.682 184.19C180.148 180.697 181.292 175.253 178.288 171.593C175.284 167.933 165.569 159.53 165.707 159.393C173.728 151.677 184.479 145.302 197.732 146.141C197.648 146.409 197.53 146.665 197.381 146.903C199.188 148.745 201.611 149.856 204.186 150.022C206.761 150.188 209.306 149.398 211.335 147.803C211.335 147.803 211.457 139.141 212.204 137.647C212.204 137.647 220.21 134.597 224.312 123.922C224.312 123.922 232.12 124.821 232.136 120.994C232.136 115.793 226.341 116.312 225.7 115.214Z" fill="white"/>
<path d="M114.574 222.193C114.976 221.309 115.689 220.604 116.578 220.213C117.467 219.822 118.469 219.772 119.393 220.073C119.393 220.073 121.329 217.648 124.745 219.859C124.745 219.859 127.704 218.716 129.32 220.561C130.937 222.406 131.425 222.986 132.477 223.458C133.529 223.931 137.327 223.535 136.244 228.033C135.009 233.096 131.669 232.608 132.142 229.345C132.553 226.768 127.46 227.378 127.246 228.43C127.124 229.055 126.514 236.207 125.188 236.314C123.861 236.421 123.556 234.789 123.556 234.789C123.556 234.789 121.848 239.074 120.247 235.003C120.247 235.003 117.41 239.395 115.778 234.789C115.778 234.789 112.728 239.44 111.203 232.471C109.678 225.502 110.654 219.997 114.574 222.193Z" fill="white"/>
<path d="M283.909 251.091C282.663 250.818 281.386 250.715 280.112 250.786C280.112 250.786 280.402 240.111 280.021 239.745C278.334 239.462 276.62 239.364 274.912 239.456C275.476 227.256 270.779 230.778 270.779 230.778C268.949 227.103 266.555 228.964 266.555 228.964C265.03 226.264 261.736 229.147 261.736 229.147C258.457 226.615 256.017 233.905 255.148 233.981C254.502 233.992 253.865 234.138 253.277 234.408C252.69 234.678 252.165 235.066 251.735 235.549C251.306 236.032 250.98 236.598 250.78 237.213C250.58 237.827 250.51 238.477 250.573 239.12C245.556 239.12 227.484 239.273 227.301 239.517C226.926 243.215 226.799 246.934 226.92 250.649C226.92 250.649 220.424 250.497 220.256 251.305C220.088 252.113 219.92 266.387 219.92 266.387H283.97C283.97 266.387 284.367 251.473 283.909 251.091Z" fill="white"/>
<path d="M31.7507 259.037C31.7507 259.037 33.7332 255.377 36.1732 256.993C36.1732 256.993 37.6982 254.446 40.9464 256.856C40.9464 256.856 42.9594 255.438 45.2164 257.954C47.4734 260.47 47.3362 261.004 48.2664 261.324C48.8241 261.362 49.3684 261.512 49.8672 261.764C50.3659 262.016 50.809 262.366 51.1702 262.793C51.5314 263.219 51.8033 263.714 51.9699 264.248C52.1364 264.781 52.1942 265.343 52.1399 265.899C52.1399 270.047 51.4537 270.627 50.6149 270.688C48.5562 270.871 48.7392 266.753 47.8547 266.357C46.3312 266.138 44.7808 266.2 43.2797 266.54C43.2797 266.54 42.6544 272.792 41.4039 272.884C41.0642 272.93 40.7193 272.848 40.4371 272.654C40.1548 272.459 39.9557 272.165 39.8789 271.831C39.8789 271.831 38.5827 274.881 36.8289 271.831C36.8289 271.831 34.5567 275.842 32.8182 271.359C32.8182 271.359 31.2932 274.698 29.3869 270.337C27.4807 265.975 27.4502 256.475 31.7507 259.037Z" fill="white"/>
<path d="M232.136 239.517H239.623V250.664H232.136V239.517Z" fill="#FFB949"/>
<path d="M275.614 240.203V250.878H268.477V247.279C269.88 247.66 270.947 245.906 271.023 245.754C271.205 246.032 271.459 246.256 271.757 246.404C272.055 246.551 272.388 246.615 272.719 246.59C273.051 246.565 273.37 246.452 273.643 246.262C273.916 246.072 274.133 245.812 274.272 245.51C275.066 243.847 275.523 242.043 275.614 240.203Z" fill="#FFB949"/>
<path d="M62.0982 80.9775C62.0982 80.9775 58.8499 80.2455 59.9632 84.7748C61.0764 89.304 65.7277 94.3518 67.1002 93.6503C68.4727 92.9488 67.5119 90.707 67.5119 90.707C67.5119 90.707 68.6862 92.0185 69.9824 91.4848C71.2787 90.951 79.2849 88.6178 81.5267 86.5895C81.5267 86.5895 71.4159 63.5773 70.7602 62.586C70.1044 61.5948 69.4792 60.0393 67.5119 60.3595C65.5447 60.6798 66.6427 63.7603 66.8867 64.3398C67.1307 64.9193 71.8277 75.091 71.6752 75.3808C71.5227 75.6705 68.8539 77.2413 68.6252 76.9058C68.3964 76.5703 63.7299 66.4748 62.9827 65.087C62.2354 63.6993 58.2247 62.525 59.4752 67.527C60.7257 72.529 65.4989 79.6355 65.4989 79.6355C65.4989 79.6355 62.9064 78.7815 62.0982 80.9775Z" fill="white"/>
<path d="M261.172 107.757C261.849 106.827 262.844 106.177 263.967 105.93C265.091 105.683 266.266 105.855 267.272 106.415C267.791 106.711 268.39 106.839 268.985 106.782C269.58 106.724 270.143 106.484 270.596 106.094C271.381 105.214 272.47 104.663 273.644 104.553C274.818 104.442 275.99 104.781 276.925 105.5C277.39 105.944 278.006 106.194 278.648 106.201C279.853 106.201 280.57 106.11 281.561 104.28C281.942 103.593 283.086 104.158 282.659 104.874C282.371 105.679 281.827 106.366 281.111 106.832C280.395 107.297 279.546 107.515 278.694 107.452C277.764 107.453 276.864 107.117 276.163 106.506C275.463 106 274.602 105.767 273.743 105.851C272.883 105.935 272.084 106.331 271.496 106.964C270.87 107.593 270.048 107.988 269.165 108.086C268.283 108.183 267.394 107.975 266.647 107.497C265.92 107.056 265.054 106.906 264.221 107.079C263.389 107.251 262.654 107.733 262.163 108.428C262.059 108.512 261.93 108.561 261.796 108.567C261.662 108.573 261.529 108.535 261.418 108.46C261.307 108.385 261.223 108.276 261.179 108.149C261.134 108.022 261.132 107.885 261.172 107.757Z" fill="#501200"/>
<path d="M40.977 139.492C40.7336 138.869 40.3686 138.301 39.9033 137.821C39.438 137.341 38.8818 136.959 38.2671 136.696C37.6523 136.433 36.9914 136.296 36.323 136.292C35.6545 136.287 34.9918 136.416 34.3737 136.671C33.2424 137.155 31.9726 137.206 30.8057 136.816C29.6389 136.425 28.6563 135.619 28.0449 134.551C27.531 133.661 26.6861 133.011 25.6947 132.743C24.7032 132.474 23.6458 132.609 22.7532 133.117C22.6341 133.199 22.4933 133.242 22.3491 133.242C22.2049 133.242 22.064 133.199 21.945 133.117C21.8605 133.047 21.796 132.956 21.758 132.853C21.7199 132.75 21.7097 132.639 21.7282 132.531C21.7468 132.422 21.7935 132.321 21.8636 132.237C21.9338 132.152 22.025 132.088 22.128 132.05C22.8922 131.681 23.725 131.475 24.5731 131.446C25.4213 131.417 26.2662 131.566 27.0537 131.882C27.9224 132.344 28.6378 133.049 29.1125 133.91C29.6087 134.706 30.3741 135.298 31.2695 135.578C32.165 135.858 33.1312 135.807 33.9925 135.435C35.2455 134.948 36.616 134.847 37.927 135.146C38.9164 135.381 39.8281 135.869 40.5736 136.561C41.319 137.253 41.873 138.126 42.1817 139.095C42.2343 139.255 42.2212 139.429 42.1455 139.579C42.0697 139.729 41.9373 139.843 41.7776 139.896C41.6178 139.948 41.4437 139.935 41.2936 139.86C41.1434 139.784 41.0295 139.652 40.977 139.492Z" fill="#501200"/>
<path d="M207.675 37.637L205.448 41.8613L203.786 40.992C203.639 40.9152 203.466 40.9001 203.308 40.9502C203.149 41.0002 203.017 41.1113 202.94 41.2589C202.863 41.4065 202.848 41.5786 202.898 41.7374C202.948 41.8961 203.059 42.0284 203.207 42.1053L204.869 42.9745L202.993 46.5125C202.955 46.5856 202.932 46.6655 202.925 46.7476C202.917 46.8297 202.927 46.9124 202.951 46.991C203.001 47.1497 203.112 47.2821 203.26 47.3589C203.408 47.4358 203.58 47.4508 203.738 47.4008C203.897 47.3507 204.03 47.2397 204.106 47.092L205.967 43.554L207.492 44.347C207.64 44.4239 207.812 44.4389 207.97 44.3889C208.129 44.3388 208.261 44.2278 208.338 44.0802C208.415 43.9325 208.43 43.7604 208.38 43.6017C208.33 43.443 208.219 43.3106 208.071 43.2338L206.546 42.4408L208.788 38.2165C208.865 38.0689 208.88 37.8968 208.83 37.7381C208.78 37.5793 208.669 37.447 208.521 37.3702C208.374 37.2933 208.202 37.2783 208.043 37.3283C207.884 37.3784 207.752 37.4894 207.675 37.637Z" fill="#FFB949"/>
<path d="M95.1144 50.996C94.3393 50.996 93.5815 50.7662 92.937 50.3355C92.2925 49.9049 91.7902 49.2928 91.4935 48.5766C91.1969 47.8605 91.1193 47.0725 91.2705 46.3122C91.4217 45.5519 91.795 44.8536 92.3431 44.3055C92.8912 43.7574 93.5896 43.3841 94.3498 43.2329C95.1101 43.0816 95.8981 43.1592 96.6143 43.4559C97.3304 43.7525 97.9425 44.2549 98.3732 44.8994C98.8038 45.5439 99.0337 46.3016 99.0337 47.0768C99.0337 48.1162 98.6208 49.1131 97.8858 49.8481C97.1508 50.5831 96.1539 50.996 95.1144 50.996ZM95.1144 44.4233C94.586 44.4233 94.0694 44.5802 93.6302 44.8741C93.191 45.1681 92.849 45.5858 92.6474 46.0743C92.4459 46.5629 92.3939 47.1002 92.4981 47.6183C92.6024 48.1364 92.8581 48.6119 93.2328 48.9845C93.6076 49.3572 94.0845 49.6101 94.6032 49.7114C95.1219 49.8126 95.659 49.7576 96.1463 49.5532C96.6337 49.3489 97.0495 49.0045 97.3409 48.5636C97.6323 48.1227 97.7862 47.6053 97.7832 47.0768C97.7792 46.3716 97.4962 45.6968 96.9962 45.1996C96.4961 44.7024 95.8196 44.4233 95.1144 44.4233Z" fill="#501200"/>
<path d="M32.1321 94.3518L28.0909 92.0948L29.1584 90.1733C29.2185 90.0318 29.2243 89.873 29.1748 89.7274C29.1252 89.5818 29.0238 89.4596 28.8898 89.3841C28.7558 89.3086 28.5987 89.2851 28.4485 89.3182C28.2983 89.3513 28.1655 89.4385 28.0756 89.5633L26.9929 91.5001C22.2349 88.8466 22.1281 88.8161 22.0976 88.8008C21.9472 88.7415 21.7797 88.7426 21.6302 88.8041C21.4807 88.8656 21.3609 88.9826 21.2957 89.1306C21.2306 89.2785 21.2254 89.446 21.281 89.5977C21.3367 89.7495 21.449 89.8738 21.5944 89.9446L26.3829 92.5981L25.2544 94.5501C25.1735 94.6957 25.1537 94.8674 25.1995 95.0276C25.2452 95.1877 25.3527 95.3232 25.4984 95.4041C25.644 95.4849 25.8157 95.5047 25.9759 95.4589C26.136 95.4132 26.2715 95.3057 26.3524 95.1601L27.4504 93.1928L31.4916 95.4498C31.6372 95.5347 31.8106 95.5584 31.9736 95.5155C32.1366 95.4726 32.2759 95.3667 32.3609 95.2211C32.4458 95.0755 32.4694 94.9021 32.4265 94.7391C32.3836 94.576 32.2777 94.4367 32.1321 94.3518Z" fill="#FFB949"/>
<path d="M218.777 74.969C224.991 76.0622 230.625 79.3001 234.698 84.119C234.919 84.4069 235.235 84.6065 235.59 84.682C235.945 84.7574 236.316 84.7038 236.635 84.5308C238.907 83.4328 243.421 80.154 241.423 72.041C238.815 61.366 226.753 60.3138 221.766 64.3245C220.351 65.3806 219.216 66.7662 218.459 68.3608C217.701 69.9554 217.345 71.7108 217.42 73.4745C217.448 73.8389 217.597 74.1835 217.843 74.4541C218.088 74.7247 218.417 74.9058 218.777 74.969Z" fill="#FF7449"/>
<path d="M265.884 150.792C273.311 148.55 275.476 138.013 271.282 129.64C267.241 121.543 256.536 119.789 249.399 118.676C248.16 118.486 246.947 118.154 245.784 117.684C244.574 117.183 243.538 116.338 242.803 115.254C242.069 114.17 241.668 112.894 241.652 111.584C241.331 99.7045 242.231 86.6505 224.084 77.9275C210.862 71.553 199.684 76.738 195.398 80.5048C191.113 84.2715 187.773 91.6525 193.873 96.38C199.973 101.108 211.594 96.1513 211.594 96.1513C218.746 105.301 227.073 103.776 227.073 103.776C226.813 107.131 225.639 115.107 225.639 115.107C229.391 115.687 232.242 117.105 232.136 120.994C232.029 124.882 224.663 124.044 224.663 124.044C224.663 124.044 220.378 134.947 212.204 137.647L211.487 146.004C211.487 146.004 240.34 149.984 253.028 188.185C256.546 187.718 259.888 186.37 262.746 184.267C265.604 182.163 267.884 179.372 269.376 176.153C271.496 172.085 272.299 167.459 271.673 162.916C271.048 158.372 269.024 154.135 265.884 150.792Z" fill="#FF7449"/>
<path d="M192.379 124.044C188.41 130.093 186.93 137.441 188.246 144.555C191.262 143.987 194.328 143.731 197.396 143.792C198.445 141.127 199.152 138.339 199.501 135.496C197.599 134.171 195.986 132.472 194.762 130.503C193.537 128.534 192.727 126.336 192.379 124.044Z" fill="#FF7449"/>
<path d="M151.097 207.72C150.958 207.719 150.823 207.677 150.707 207.6C150.591 207.524 150.5 207.415 150.445 207.287C150.39 207.159 150.374 207.018 150.398 206.881C150.421 206.744 150.484 206.617 150.579 206.516C151.656 205.395 152.674 204.219 153.629 202.993C152.287 202.993 150.579 203.328 150.03 202.322C149.481 201.315 149.603 196.13 149.618 192.989C149.622 192.801 149.699 192.623 149.833 192.492C149.967 192.361 150.147 192.287 150.335 192.287C150.429 192.285 150.522 192.302 150.609 192.338C150.697 192.373 150.775 192.426 150.841 192.493C150.907 192.561 150.958 192.641 150.992 192.728C151.025 192.816 151.041 192.91 151.036 193.004C150.972 195.868 151.053 198.734 151.28 201.59C151.843 201.652 152.411 201.652 152.973 201.59C154.163 201.59 154.94 201.483 155.291 202.093C155.642 202.703 155.825 203.054 151.57 207.476C151.512 207.547 151.44 207.605 151.359 207.647C151.278 207.689 151.189 207.714 151.097 207.72Z" fill="#501200"/>
<path d="M156.526 199.531C156.426 199.534 156.327 199.516 156.236 199.476C156.144 199.437 156.062 199.379 155.995 199.305C155.928 199.231 155.878 199.143 155.849 199.048C155.82 198.953 155.811 198.852 155.825 198.753C156.008 197 156.999 194.087 159.485 194.316C161.97 194.544 162.535 198.387 162.535 198.54C162.555 198.639 162.554 198.741 162.532 198.84C162.51 198.939 162.468 199.032 162.407 199.113C162.347 199.195 162.27 199.262 162.181 199.311C162.093 199.361 161.995 199.39 161.894 199.399C161.793 199.408 161.692 199.395 161.596 199.362C161.5 199.328 161.413 199.275 161.34 199.205C161.266 199.136 161.208 199.051 161.17 198.957C161.131 198.864 161.113 198.763 161.116 198.662C161.116 198.662 160.842 195.856 159.408 195.734C157.975 195.612 157.411 197.655 157.273 198.906C157.254 199.086 157.165 199.253 157.026 199.369C156.887 199.486 156.707 199.544 156.526 199.531Z" fill="#501200"/>
<path d="M138.318 199.668C138.224 199.666 138.132 199.646 138.047 199.608C137.961 199.57 137.885 199.515 137.821 199.447C137.757 199.379 137.707 199.298 137.675 199.211C137.642 199.123 137.627 199.03 137.632 198.936C137.738 195.292 139.828 194.361 141.032 194.361C143.274 194.361 144.082 197.106 144.082 198.738C144.094 198.924 144.032 199.107 143.909 199.247C143.786 199.388 143.613 199.473 143.427 199.485C143.24 199.497 143.057 199.435 142.917 199.312C142.777 199.189 142.691 199.016 142.679 198.83C142.679 198.83 142.39 195.78 140.956 195.78C139.096 195.78 138.974 198.997 138.974 199.028C138.956 199.194 138.881 199.35 138.761 199.467C138.642 199.584 138.485 199.655 138.318 199.668Z" fill="#501200"/>
<path d="M161.894 192.15C161.72 192.149 161.551 192.084 161.421 191.967C160.858 191.45 160.132 191.147 159.368 191.11C158.604 191.074 157.852 191.307 157.243 191.769C157.171 191.828 157.087 191.873 156.998 191.899C156.908 191.925 156.814 191.933 156.721 191.922C156.628 191.91 156.539 191.88 156.458 191.833C156.377 191.785 156.307 191.722 156.252 191.647C156.193 191.575 156.149 191.492 156.123 191.403C156.097 191.314 156.088 191.221 156.098 191.129C156.108 191.037 156.136 190.947 156.181 190.866C156.226 190.785 156.286 190.713 156.358 190.656C157.228 189.98 158.31 189.636 159.41 189.683C160.51 189.731 161.558 190.167 162.367 190.915C162.477 191.009 162.556 191.135 162.592 191.275C162.628 191.416 162.619 191.564 162.567 191.699C162.515 191.835 162.423 191.951 162.302 192.032C162.182 192.112 162.039 192.154 161.894 192.15Z" fill="#501200"/>
<path d="M144.372 191.372C144.2 191.37 144.034 191.311 143.899 191.205C143.294 190.61 142.486 190.266 141.638 190.24C140.79 190.215 139.964 190.51 139.324 191.067C139.179 191.186 138.993 191.245 138.806 191.23C138.618 191.216 138.443 191.13 138.318 190.991C138.25 190.926 138.197 190.847 138.16 190.761C138.124 190.675 138.105 190.582 138.105 190.488C138.105 190.394 138.124 190.301 138.16 190.215C138.197 190.128 138.25 190.05 138.318 189.985C139.218 189.222 140.366 188.815 141.546 188.84C142.726 188.865 143.856 189.321 144.723 190.122C144.832 190.207 144.914 190.324 144.958 190.456C145.002 190.588 145.005 190.731 144.967 190.865C144.929 190.999 144.853 191.119 144.747 191.209C144.641 191.3 144.51 191.356 144.372 191.372Z" fill="#501200"/>
<path d="M149.984 215.345C148.817 215.244 147.707 214.797 146.797 214.061C145.887 213.324 145.217 212.332 144.875 211.213C144.843 211.04 144.875 210.863 144.966 210.713C145.056 210.563 145.198 210.451 145.365 210.399C145.532 210.346 145.712 210.356 145.872 210.428C146.032 210.499 146.16 210.626 146.232 210.786C146.488 211.626 146.987 212.372 147.665 212.931C148.343 213.49 149.171 213.836 150.045 213.927H150.136C152.79 213.927 153.445 210.984 153.461 210.877C153.505 210.697 153.617 210.54 153.774 210.441C153.931 210.342 154.12 210.307 154.302 210.345C154.484 210.382 154.644 210.489 154.749 210.642C154.854 210.796 154.895 210.984 154.864 211.167C154.676 212.328 154.083 213.385 153.189 214.15C152.296 214.915 151.16 215.339 149.984 215.345Z" fill="#501200"/>
<path d="M160.613 205.784C160.613 206.148 160.808 206.497 161.154 206.754C161.5 207.011 161.969 207.156 162.459 207.156C162.948 207.156 163.417 207.011 163.763 206.754C164.109 206.497 164.304 206.148 164.304 205.784C164.304 205.42 164.109 205.07 163.763 204.813C163.417 204.556 162.948 204.411 162.459 204.411C161.969 204.411 161.5 204.556 161.154 204.813C160.808 205.07 160.613 205.42 160.613 205.784Z" fill="#FCCAC2"/>
<path d="M138.013 205.631C138.013 205.995 138.212 206.344 138.567 206.602C138.921 206.859 139.402 207.004 139.904 207.004C140.405 207.004 140.886 206.859 141.241 206.602C141.596 206.344 141.795 205.995 141.795 205.631C141.795 205.267 141.596 204.918 141.241 204.661C140.886 204.403 140.405 204.259 139.904 204.259C139.402 204.259 138.921 204.403 138.567 204.661C138.212 204.918 138.013 205.267 138.013 205.631Z" fill="#FCCAC2"/>
<path d="M217.304 114.634C217.504 114.673 217.712 114.665 217.915 114.611C218.117 114.557 218.311 114.457 218.486 114.318C218.66 114.179 218.811 114.003 218.93 113.8C219.049 113.597 219.134 113.371 219.18 113.135C219.226 112.899 219.232 112.657 219.197 112.425C219.163 112.192 219.089 111.972 218.98 111.777C218.87 111.583 218.728 111.418 218.56 111.292C218.392 111.165 218.203 111.08 218.002 111.041C217.802 111.002 217.594 111.01 217.391 111.065C217.188 111.119 216.994 111.218 216.82 111.358C216.646 111.497 216.495 111.673 216.376 111.876C216.257 112.079 216.172 112.305 216.126 112.541C216.08 112.777 216.074 113.018 216.108 113.251C216.143 113.484 216.217 113.704 216.326 113.898C216.436 114.093 216.578 114.258 216.746 114.384C216.914 114.51 217.103 114.595 217.304 114.634Z" fill="#501200"/>
<path d="M201.819 110.134C202.02 110.175 202.228 110.169 202.433 110.116C202.637 110.062 202.832 109.963 203.008 109.824C203.183 109.685 203.336 109.508 203.456 109.304C203.576 109.1 203.661 108.873 203.707 108.636C203.753 108.399 203.759 108.156 203.724 107.922C203.689 107.688 203.613 107.468 203.503 107.273C203.392 107.078 203.248 106.913 203.078 106.787C202.909 106.662 202.717 106.578 202.515 106.541C202.315 106.502 202.107 106.51 201.905 106.564C201.702 106.619 201.508 106.718 201.333 106.857C201.159 106.997 201.008 107.173 200.889 107.376C200.77 107.579 200.685 107.805 200.639 108.041C200.593 108.277 200.588 108.518 200.622 108.751C200.656 108.984 200.73 109.204 200.84 109.398C200.949 109.592 201.092 109.757 201.259 109.884C201.427 110.01 201.617 110.095 201.817 110.134" fill="#501200"/>
<path d="M226.28 121.238C226.123 121.242 225.97 121.194 225.843 121.101C225.717 121.008 225.626 120.876 225.584 120.725C225.542 120.574 225.551 120.413 225.611 120.269C225.671 120.124 225.777 120.003 225.914 119.926C226.478 119.579 227.07 119.278 227.683 119.026C227.769 118.992 227.861 118.975 227.954 118.976C228.046 118.977 228.138 118.997 228.223 119.034C228.308 119.071 228.385 119.124 228.449 119.191C228.514 119.257 228.564 119.336 228.598 119.423C228.634 119.509 228.653 119.601 228.653 119.694C228.653 119.788 228.634 119.88 228.596 119.966C228.559 120.051 228.505 120.128 228.437 120.192C228.369 120.256 228.289 120.306 228.201 120.338C226.966 120.841 226.691 121.238 226.28 121.238Z" fill="#501200"/>
<path d="M205.158 119.042C203.252 119.636 203.633 117.745 203.801 117.242C205.219 112.194 209.901 105.24 210.054 104.951C210.542 104.203 211.746 104.951 211.228 105.728C211.228 105.728 206.531 112.774 205.128 117.608L208.178 116.083C208.986 115.687 209.703 116.952 208.818 117.349C208.925 117.334 205.296 119.042 205.158 119.042Z" fill="#501200"/>
<path d="M205.586 126.316C205.266 126.345 204.944 126.345 204.625 126.316C201.224 125.767 200.568 121.893 200.553 121.741C200.525 121.557 200.571 121.369 200.681 121.219C200.791 121.069 200.956 120.968 201.14 120.94C201.324 120.912 201.512 120.958 201.662 121.068C201.812 121.178 201.913 121.343 201.941 121.527C201.941 121.649 202.475 124.577 204.854 124.928C205.581 125.074 206.336 124.995 207.017 124.701C207.699 124.406 208.274 123.911 208.666 123.281C208.712 123.199 208.774 123.127 208.848 123.068C208.922 123.01 209.007 122.967 209.097 122.942C209.188 122.916 209.283 122.909 209.376 122.92C209.47 122.931 209.56 122.96 209.642 123.007C209.724 123.053 209.796 123.114 209.855 123.188C209.913 123.262 209.956 123.347 209.981 123.438C210.007 123.528 210.014 123.623 210.003 123.717C209.992 123.81 209.963 123.9 209.917 123.983C209.449 124.705 208.808 125.297 208.05 125.705C207.293 126.113 206.446 126.323 205.586 126.316Z" fill="#501200"/>
<path d="M221.324 107.924C221.185 107.606 220.982 107.319 220.728 107.082C220.474 106.845 220.174 106.663 219.846 106.547C219.519 106.431 219.171 106.384 218.824 106.408C218.477 106.433 218.139 106.528 217.831 106.689C217.666 106.774 217.473 106.79 217.295 106.732C217.118 106.675 216.971 106.55 216.886 106.384C216.801 106.218 216.785 106.025 216.843 105.848C216.9 105.671 217.025 105.523 217.191 105.439C217.66 105.184 218.177 105.03 218.709 104.985C219.241 104.94 219.777 105.005 220.282 105.177C220.788 105.349 221.252 105.623 221.647 105.983C222.041 106.343 222.357 106.781 222.574 107.269C222.661 107.434 222.679 107.628 222.623 107.807C222.567 107.985 222.443 108.135 222.277 108.222C222.111 108.309 221.917 108.326 221.739 108.27C221.56 108.215 221.411 108.09 221.324 107.924Z" fill="#501200"/>
<path d="M205.54 103.044C205.179 102.515 204.642 102.132 204.024 101.964C203.406 101.796 202.748 101.855 202.169 102.129C202.006 102.184 201.829 102.178 201.669 102.113C201.51 102.048 201.379 101.927 201.302 101.773C201.224 101.62 201.204 101.443 201.246 101.276C201.287 101.109 201.388 100.963 201.529 100.864C202.404 100.44 203.401 100.341 204.342 100.584C205.283 100.827 206.108 101.396 206.668 102.19C206.781 102.34 206.83 102.528 206.805 102.714C206.779 102.9 206.68 103.068 206.531 103.182C206.381 103.295 206.193 103.344 206.007 103.318C205.821 103.292 205.653 103.194 205.54 103.044Z" fill="#501200"/>
<path d="M215.513 120.795C215.513 121.196 215.738 121.58 216.139 121.863C216.539 122.146 217.082 122.305 217.648 122.305C218.214 122.305 218.757 122.146 219.158 121.863C219.558 121.58 219.783 121.196 219.783 120.795C219.783 120.395 219.558 120.011 219.158 119.728C218.757 119.445 218.214 119.286 217.648 119.286C217.082 119.286 216.539 119.445 216.139 119.728C215.738 120.011 215.513 120.395 215.513 120.795Z" fill="#FCCAC2"/>
<path d="M196.55 117.141C196.787 117.233 197.036 117.288 197.281 117.305C197.527 117.321 197.764 117.299 197.981 117.238C198.197 117.177 198.387 117.079 198.541 116.95C198.695 116.821 198.81 116.663 198.878 116.486C198.947 116.308 198.968 116.114 198.94 115.915C198.912 115.716 198.837 115.516 198.717 115.326C198.598 115.136 198.437 114.959 198.244 114.807C198.051 114.654 197.829 114.529 197.592 114.438C197.354 114.346 197.106 114.291 196.86 114.274C196.615 114.258 196.377 114.28 196.161 114.341C195.945 114.402 195.754 114.5 195.6 114.629C195.446 114.758 195.332 114.916 195.263 115.093C195.195 115.271 195.174 115.465 195.202 115.664C195.229 115.863 195.305 116.063 195.425 116.253C195.544 116.443 195.705 116.62 195.898 116.772C196.091 116.924 196.313 117.05 196.55 117.141Z" fill="#FCCAC2"/>
<path d="M150.609 87.1537C149.663 87.1279 148.746 86.8251 147.971 86.283C147.196 85.7408 146.596 84.9831 146.248 84.1037C146.177 83.9298 146.178 83.7349 146.251 83.5619C146.324 83.3889 146.462 83.2519 146.636 83.1811C146.81 83.1103 147.005 83.1115 147.178 83.1845C147.351 83.2574 147.488 83.3961 147.559 83.57C147.808 84.1618 148.214 84.6745 148.732 85.0533C149.251 85.4321 149.863 85.6627 150.502 85.7202C152.561 85.7965 153.659 83.204 153.674 83.1735C153.709 83.0874 153.761 83.009 153.826 82.9429C153.892 82.8767 153.969 82.8241 154.055 82.788C154.141 82.7519 154.233 82.733 154.326 82.7324C154.419 82.7318 154.511 82.7496 154.597 82.7846C154.683 82.8197 154.761 82.8713 154.828 82.9367C154.894 83.002 154.946 83.0797 154.982 83.1654C155.019 83.2511 155.037 83.343 155.038 83.436C155.039 83.529 155.021 83.6211 154.986 83.7072C154.925 83.875 153.552 87.1537 150.609 87.1537Z" fill="#501200"/>
<path d="M138.005 81.2871C138.487 81.3442 138.967 81.2554 139.338 81.0401C139.709 80.8249 139.942 80.5008 139.984 80.1392C140.027 79.7776 139.877 79.4082 139.566 79.1121C139.256 78.816 138.81 78.6175 138.328 78.5604C137.846 78.5032 137.367 78.592 136.996 78.8073C136.624 79.0226 136.392 79.3466 136.349 79.7082C136.306 80.0698 136.456 80.4393 136.767 80.7354C137.078 81.0315 137.523 81.2299 138.005 81.2871Z" fill="#FCCAC2"/>
<path d="M161.36 79.9253C161.36 80.2893 161.553 80.6384 161.896 80.8958C162.24 81.1531 162.705 81.2978 163.19 81.2978C163.676 81.2978 164.141 81.1531 164.484 80.8958C164.828 80.6384 165.02 80.2893 165.02 79.9253C165.02 79.5612 164.828 79.2121 164.484 78.9548C164.141 78.6974 163.676 78.5527 163.19 78.5527C162.705 78.5527 162.24 78.6974 161.896 78.9548C161.553 79.2121 161.36 79.5612 161.36 79.9253Z" fill="#FCCAC2"/>
<path d="M163.648 61.4575C161.485 61.3759 159.367 62.092 157.697 63.4697C156.027 64.8473 154.921 66.7905 154.59 68.93C154.103 68.7022 153.591 68.5333 153.065 68.4268C152.638 65.8953 152.165 64.1263 152.119 63.9738C152.067 63.7938 151.945 63.642 151.78 63.552C151.616 63.4619 151.422 63.4408 151.242 63.4934C151.062 63.546 150.911 63.6679 150.821 63.8323C150.73 63.9968 150.709 64.1903 150.762 64.3703C150.762 64.3703 151.219 66.002 151.631 68.32C150.75 68.351 149.879 68.5262 149.054 68.8385C148.858 66.6159 147.811 64.5549 146.133 63.0848C144.454 61.6148 142.273 60.8491 140.044 60.9474C137.815 61.0457 135.71 62.0004 134.167 63.6125C132.625 65.2246 131.764 67.3698 131.764 69.601C131.764 71.8322 132.625 73.9774 134.167 75.5895C135.71 77.2016 137.815 78.1563 140.044 78.2546C142.273 78.3529 144.454 77.5872 146.133 76.1172C147.811 74.6471 148.858 72.5861 149.054 70.3635C149.932 69.9506 150.89 69.7371 151.86 69.7383C152.26 72.2589 152.383 74.8158 152.226 77.3633C152.226 77.5005 152.058 77.4853 151.967 77.4548L149.45 77.0278C149.356 77.008 149.258 77.008 149.164 77.0277C149.069 77.0474 148.98 77.0864 148.901 77.1422C148.823 77.198 148.756 77.2695 148.706 77.3522C148.657 77.4348 148.624 77.5268 148.612 77.6225C148.592 77.8009 148.639 77.9802 148.743 78.1264C148.847 78.2726 149.001 78.3754 149.176 78.4155C150.381 78.6272 151.598 78.7596 152.821 78.812C153.248 78.812 153.644 78.629 153.705 77.5615C153.831 75.0449 153.714 72.522 153.354 70.028C153.785 70.1455 154.196 70.3253 154.574 70.5618C154.629 72.2926 155.188 73.9696 156.184 75.3864C157.18 76.8031 158.568 77.8977 160.178 78.5351C161.788 79.1726 163.55 79.3251 165.245 78.974C166.941 78.6228 168.497 77.7833 169.721 76.5588C170.946 75.3343 171.785 73.7784 172.137 72.0827C172.488 70.3871 172.335 68.6257 171.698 67.0156C171.06 65.4056 169.966 64.0172 168.549 63.0214C167.132 62.0257 165.455 61.4662 163.724 61.4118L163.648 61.4575ZM140.026 76.9058C138.618 76.8184 137.268 76.3187 136.143 75.4689C135.017 74.6191 134.167 73.4569 133.698 72.1271C133.228 70.7973 133.161 69.3588 133.504 67.9909C133.846 66.6231 134.584 65.3863 135.625 64.435C136.666 63.4836 137.964 62.8597 139.357 62.641C140.75 62.4223 142.177 62.6185 143.459 63.2051C144.741 63.7917 145.823 64.7429 146.568 65.9399C147.314 67.1369 147.69 68.5269 147.651 69.9365C147.61 70.8954 147.38 71.8368 146.974 72.7065C146.568 73.5763 145.994 74.3574 145.286 75.0049C144.578 75.6524 143.748 76.1537 142.846 76.4799C141.943 76.8061 140.985 76.9508 140.026 76.9058ZM163.191 77.3023C161.779 77.2178 160.424 76.7196 159.294 75.8698C158.164 75.02 157.309 73.8563 156.837 72.5238C156.364 71.1913 156.294 69.7491 156.636 68.3771C156.978 67.0052 157.716 65.7643 158.759 64.8093C159.801 63.8543 161.102 63.2275 162.498 63.0071C163.895 62.7867 165.326 62.9825 166.612 63.57C167.898 64.1575 168.982 65.1108 169.73 66.3108C170.477 67.5108 170.855 68.9044 170.816 70.3178C170.729 72.2571 169.875 74.0824 168.442 75.3923C167.009 76.7021 165.115 77.3891 163.175 77.3023H163.191Z" fill="#501200"/>
<path d="M296.658 265.701H284.748C284.885 262.437 284.748 255.117 284.748 251.976C284.74 251.525 284.558 251.095 284.239 250.777C283.92 250.458 283.491 250.276 283.04 250.268H280.89V240.66C280.883 240.216 280.707 239.791 280.398 239.471C280.09 239.151 279.671 238.96 279.228 238.937C278.282 238.937 277.093 238.937 275.751 238.83C275.888 236.665 275.674 232.532 274.409 230.672C274.227 230.401 273.991 230.171 273.716 229.995C273.44 229.82 273.132 229.704 272.81 229.654C272.487 229.604 272.158 229.621 271.843 229.704C271.528 229.787 271.233 229.935 270.977 230.138C270.836 229.716 270.61 229.329 270.311 229C270.012 228.671 269.648 228.408 269.242 228.227C268.836 228.046 268.397 227.952 267.953 227.95C267.509 227.948 267.069 228.039 266.662 228.216C266.27 227.758 265.741 227.437 265.153 227.303C264.566 227.168 263.95 227.226 263.398 227.469C260.348 206.119 250.558 163.541 222.742 150.182C219.343 148.533 215.82 147.157 212.204 146.065C212.136 143.581 212.278 141.097 212.631 138.638C212.654 138.487 212.717 138.345 212.814 138.227C212.91 138.109 213.037 138.019 213.18 137.967C215.837 136.79 218.211 135.058 220.145 132.888C222.078 130.718 223.525 128.16 224.389 125.386C224.458 125.22 224.579 125.081 224.732 124.988C224.885 124.895 225.064 124.853 225.243 124.867C234.621 125.218 232.868 119.057 232.273 118.066C230.964 116.44 229.102 115.354 227.042 115.016C226.82 114.968 226.626 114.837 226.498 114.649C226.37 114.462 226.319 114.233 226.356 114.009C226.691 111.798 227.317 107.558 227.789 104.051C227.814 103.865 227.763 103.677 227.649 103.528C227.534 103.379 227.365 103.282 227.179 103.258C226.993 103.234 226.805 103.284 226.656 103.399C226.508 103.513 226.411 103.682 226.386 103.868C225.914 107.36 225.273 111.584 224.953 113.796C224.859 114.381 224.995 114.979 225.334 115.466C225.672 115.952 226.186 116.288 226.768 116.403C228.45 116.65 229.984 117.501 231.083 118.798C231.526 119.453 232.715 123.647 225.349 123.373C224.852 123.341 224.357 123.473 223.942 123.748C223.526 124.024 223.212 124.427 223.047 124.898C222.246 127.483 220.903 129.869 219.107 131.894C217.31 133.919 215.103 135.537 212.631 136.64C212.267 136.784 211.947 137.02 211.701 137.325C211.455 137.63 211.292 137.992 211.228 138.379C210.884 140.787 210.736 143.22 210.786 145.653C210.786 146.248 211.06 147.773 210.328 148.093C208.473 148.962 206.436 149.371 204.389 149.287C202.343 149.202 200.347 148.625 198.57 147.605C198.385 147.494 198.243 147.323 198.168 147.121C198.093 146.918 198.09 146.696 198.159 146.492C198.418 145.714 200.156 137.982 200.355 136.808C201.633 137.362 202.975 137.757 204.35 137.982C204.441 137.998 204.535 137.996 204.625 137.976C204.715 137.956 204.801 137.918 204.876 137.865C204.952 137.812 205.017 137.744 205.066 137.666C205.116 137.588 205.15 137.501 205.166 137.41C205.182 137.319 205.18 137.226 205.16 137.135C205.14 137.045 205.102 136.96 205.049 136.884C204.996 136.808 204.928 136.743 204.85 136.694C204.772 136.644 204.685 136.61 204.594 136.594C193.492 134.658 192.12 124.486 194.346 113.445C194.346 113.155 197.777 98.088 197.808 97.9508C197.828 97.7759 197.782 97.5998 197.681 97.4561C197.579 97.3124 197.428 97.2112 197.257 97.1716C197.085 97.132 196.905 97.1569 196.751 97.2416C196.597 97.3262 196.479 97.4646 196.42 97.6305C196.313 98.1338 193.004 112.881 192.958 113.155C191.205 121.909 191.281 131.73 199.058 136.152C198.783 138.735 198.272 141.287 197.533 143.777C191.401 143.668 185.319 144.911 179.721 147.417C174.123 149.924 169.145 153.632 165.142 158.28C161.391 149.969 150.823 148.871 143.533 160.186C142.341 158.969 140.834 158.108 139.179 157.701C137.525 157.294 135.79 157.357 134.17 157.883C130.006 159.408 129.396 162.962 128.161 165.859C126.163 170.434 126.331 170.327 123.037 171.959C122.407 172.241 121.796 172.561 121.207 172.92C119.533 169.236 117.266 165.851 114.497 162.901C117.212 148.947 116.678 148.169 116.495 147.91C116.433 147.822 116.354 147.748 116.262 147.693C116.17 147.638 116.068 147.602 115.961 147.59C115.58 147.59 114.863 147.437 105.698 156.862C101.516 155.188 96.9393 154.765 92.5218 155.642C92.0642 153.06 91.9514 150.429 92.1863 147.818C94.4399 147.022 96.4672 145.692 98.0951 143.942C99.723 142.192 100.903 140.074 101.535 137.769C102.231 134.387 102.578 130.943 102.572 127.49C111.325 115.58 124.776 104.417 139.37 105.622C139.278 106.049 139.172 106.476 139.065 106.903C138.986 107.314 139.019 107.74 139.161 108.134C139.303 108.529 139.549 108.878 139.873 109.144C145.439 114.406 153.308 111.615 156.206 109.144C156.558 108.862 156.831 108.493 156.997 108.073C157.163 107.653 157.216 107.197 157.151 106.75C157.151 106.399 157.045 105.957 156.984 105.469C161.763 105.258 166.531 106.08 170.963 107.88C175.395 109.681 179.386 112.416 182.665 115.9C185.762 119.096 188.22 122.854 189.908 126.972C189.984 127.134 190.118 127.262 190.284 127.331C190.449 127.399 190.634 127.403 190.803 127.342C190.971 127.281 191.111 127.159 191.193 127C191.276 126.841 191.297 126.657 191.25 126.484C189.511 122.195 186.964 118.281 183.747 114.955C180.29 111.34 176.1 108.506 171.457 106.644C166.815 104.782 161.828 103.934 156.831 104.158C156.679 102.404 156.709 97.6305 156.694 97.5695C163.892 94.9618 167.552 87.291 168.589 80.1845C169.748 72.1935 168.863 66.4595 168.589 57.0655C170.307 56.2868 171.8 55.0852 172.928 53.5731C174.056 52.061 174.783 50.2877 175.04 48.4188C175.188 45.3712 174.567 42.3354 173.234 39.5905C171.902 36.8457 169.901 34.4801 167.415 32.7113C161.315 28.548 154.818 32.94 149.252 32.6045C143.686 32.269 142.222 30.683 135.801 32.6045C129.381 34.526 127.139 42.1663 125.782 45.0943C124.425 48.0223 118.157 53.4208 117.684 59.6275C117.288 65.2548 121.543 70.3025 122.366 71.1413C120.551 75.8383 123.495 77.2413 124.593 77.8665C125.081 80.398 126.773 86.2693 131.913 88.1298C132.95 90.6765 135.557 95.9073 140.148 97.9965C140.134 100.102 139.956 102.202 139.614 104.28C125.05 102.953 111.401 113.43 102.526 125.05V118.767C104.011 112.114 103.631 105.18 101.428 98.7285C100.139 100.407 98.6712 101.941 97.051 103.304C97.051 103.304 99.918 106.476 101.138 117.029C100.925 124.044 101.382 131.592 100.01 137.418C99.2367 140.479 97.3672 143.149 94.7557 144.923C92.1443 146.697 88.9725 147.45 85.8423 147.041C85.671 147.043 85.5061 147.106 85.3775 147.219C85.2489 147.332 85.165 147.487 85.141 147.657C85.1171 147.827 85.1546 147.999 85.2469 148.143C85.3392 148.288 85.48 148.394 85.644 148.444C87.2992 148.507 88.9567 148.436 90.6003 148.23C90.3926 150.959 90.5568 153.704 91.0883 156.389C90.3806 157.821 89.2937 159.032 87.9458 159.89C86.5978 160.748 85.0404 161.22 83.443 161.255C81.8456 161.289 80.2692 160.885 78.8854 160.087C77.5016 159.288 76.3633 158.125 75.5943 156.724C76.5426 153.324 77.1254 149.832 77.3328 146.309C77.3468 146.165 77.3162 146.021 77.2453 145.895C77.1744 145.77 77.0665 145.669 76.9363 145.607C74.6623 144.281 72.7911 142.362 71.5225 140.056C70.13 136.946 69.2888 133.618 69.0368 130.22C69.0368 130.22 62.0523 128.314 63.0283 123.464C63.7145 120.048 68.7013 121.055 71.2328 121.436C71.4547 121.476 71.6829 121.467 71.9009 121.409C72.1189 121.351 72.3213 121.245 72.4934 121.099C72.6656 120.953 72.8032 120.771 72.8964 120.565C72.9895 120.36 73.036 120.136 73.0323 119.911C73.0323 116.769 73.0323 110.227 74.2065 108.992C76.25 106.75 92.842 106.918 98.8505 100.162C103.426 95.0838 102.465 88.1755 101.733 85.0645C101.69 84.8842 101.605 84.7168 101.484 84.5768C101.362 84.4368 101.209 84.3284 101.036 84.2609C100.864 84.1934 100.677 84.1688 100.493 84.1892C100.309 84.2097 100.133 84.2746 99.979 84.3783C97.548 86.0363 94.8106 87.1925 91.927 87.779C86.5285 88.8008 68.5335 89.7005 63.135 99.0335C59.475 105.454 58.6363 115.214 61.915 121.695C61.5568 122.779 61.4422 123.929 61.5792 125.062C61.7163 126.196 62.1017 127.285 62.708 128.253C63.013 131.684 64.3855 138.577 70.4398 140.864C71.7716 143.202 73.6633 145.172 75.945 146.598C75.6949 149.776 75.1849 152.928 74.42 156.023C56.3183 149.648 40.2905 166.088 35.7308 193.004C31.3845 218.609 35.2123 252.067 35.7308 255.971C35.333 255.865 34.9178 255.84 34.5101 255.898C34.1025 255.957 33.7109 256.097 33.3589 256.311C33.0069 256.524 32.7019 256.807 32.4621 257.142C32.2224 257.477 32.053 257.857 31.964 258.259C31.699 258.068 31.3969 257.935 31.0773 257.869C30.7577 257.802 30.4277 257.803 30.1086 257.872C29.7895 257.941 29.4885 258.077 29.2249 258.269C28.9613 258.462 28.7411 258.708 28.5785 258.991C27.2518 261.233 27.633 265.487 27.6635 265.701H8.34177C8.23993 265.686 8.13606 265.693 8.03722 265.722C7.93838 265.75 7.8469 265.8 7.769 265.867C7.69109 265.935 7.6286 266.018 7.58576 266.112C7.54292 266.205 7.52075 266.307 7.52075 266.41C7.52075 266.513 7.54292 266.615 7.58576 266.708C7.6286 266.802 7.69109 266.885 7.769 266.952C7.8469 267.02 7.93838 267.069 8.03722 267.098C8.13606 267.127 8.23993 267.134 8.34177 267.119H27.7398C27.9439 268.9 28.504 270.622 29.3868 272.182C29.5374 272.489 29.7649 272.752 30.0472 272.945C30.3294 273.138 30.6568 273.255 30.9976 273.284C31.3384 273.313 31.6809 273.254 31.9918 273.112C32.3028 272.969 32.5717 272.749 32.7723 272.472C32.8485 272.64 35.0903 275.949 36.7678 272.792C36.7678 272.96 38.5063 275.446 40.0923 273.143C40.0923 273.143 41.724 274.759 42.822 272.106C43.3665 270.52 43.6998 268.869 43.8133 267.195C43.9048 267.195 47.4428 267.119 47.4428 267.119C48.3578 272.228 51.1943 271.511 51.911 270.703C52.6291 269.653 52.9581 268.386 52.8413 267.119H54.3663C53.7105 210.206 54.9305 198.494 54.9458 198.281C54.966 198.094 55.0593 197.924 55.2052 197.807C55.351 197.69 55.5375 197.635 55.7235 197.655C55.9096 197.676 56.08 197.769 56.1972 197.915C56.3145 198.061 56.369 198.247 56.3488 198.433C56.3488 198.555 55.1288 210.328 55.7845 267.058H296.735C296.836 267.073 296.94 267.066 297.039 267.037C297.138 267.008 297.229 266.959 297.307 266.891C297.385 266.824 297.448 266.741 297.491 266.647C297.533 266.554 297.556 266.452 297.556 266.349C297.556 266.246 297.533 266.144 297.491 266.051C297.448 265.957 297.385 265.874 297.307 265.806C297.229 265.739 297.138 265.689 297.039 265.661C296.94 265.632 296.836 265.625 296.735 265.64L296.658 265.701ZM133.697 88.5263C132.341 85.4506 131.442 82.1934 131.028 78.8578C130.993 78.4304 130.794 78.0331 130.473 77.7489C130.152 77.4647 129.733 77.3156 129.305 77.3328C121.451 77.47 123.434 71.736 124.028 71.0193C126.529 68.381 130.449 69.9365 131.425 69.1283C132.401 68.32 133.346 59.353 138.912 58.4533C143.06 57.7365 146.736 60.2985 150.609 59.78C154.483 59.2615 156.343 57.2028 159.607 56.6385C162.87 56.0743 165.005 57.4773 167.232 57.4163C167.384 57.4163 167.232 56.8978 167.567 64.3093C167.994 73.1543 168.36 82.9448 163.45 90.3715C162.268 92.303 160.631 93.9159 158.683 95.0695C156.734 96.2232 154.533 96.8825 152.271 96.99C152.101 97.0151 151.946 97.1005 151.833 97.2306C151.721 97.3608 151.659 97.5271 151.659 97.6992C151.659 97.8712 151.721 98.0375 151.833 98.1677C151.946 98.2978 152.101 98.3832 152.271 98.4083C153.3 98.354 154.322 98.2008 155.321 97.9508C155.168 101.008 155.321 104.074 155.779 107.101C155.815 107.291 155.797 107.488 155.727 107.668C155.656 107.849 155.537 108.006 155.382 108.123C148.23 113.536 142.832 109.968 140.849 108.123C140.72 108.027 140.618 107.899 140.554 107.752C140.489 107.605 140.465 107.443 140.483 107.284C141.261 104.074 141.64 100.781 141.612 97.478C141.607 97.34 141.563 97.2061 141.485 97.0925C141.406 96.9789 141.297 96.8903 141.169 96.8375C137.326 95.282 134.886 91.1493 133.697 88.5263ZM30.5763 271.45C28.8266 267.828 28.5 263.681 29.6613 259.83C29.7331 259.654 29.8538 259.503 30.0089 259.394C30.1641 259.285 30.3472 259.223 30.5366 259.215C30.726 259.207 30.9137 259.253 31.0775 259.349C31.2413 259.444 31.3743 259.585 31.4608 259.753C30.8703 263.237 31.0473 266.807 31.9793 270.215C32.4978 272.335 30.8355 271.801 30.5763 271.45ZM35.0293 272.884C34.7243 272.884 34.16 272.426 33.6568 270.916C32.3664 267.312 32.1128 263.418 32.9248 259.677C32.9248 259.677 33.9008 256.627 35.5173 257.496C34.6045 261.927 34.7613 266.512 35.9748 270.871C35.9748 271.13 36.0358 272.624 35.075 272.823L35.0293 272.884ZM39.284 270.81C39.284 271.359 39.0248 272.685 38.4605 272.685C38.4605 272.685 38.0793 272.487 37.6828 271.526C37.2863 270.566 35.2123 263.23 36.9355 257.618C37.0892 257.342 37.3063 257.106 37.5691 256.929C37.8318 256.753 38.1327 256.642 38.4469 256.605C38.7611 256.567 39.0796 256.605 39.3763 256.715C39.673 256.825 39.9393 257.004 40.1533 257.237C40.1533 257.237 38.6283 260.379 39.284 270.749V270.81ZM50.8435 269.818C50.6605 270.032 49.7303 270.657 48.9983 267.897C48.8733 267.104 48.524 266.363 47.9918 265.762C46.6722 265.566 45.3311 265.566 44.0115 265.762C44.0878 265.289 44.4233 264.023 44.1183 263.779C43.9696 263.667 43.783 263.616 43.5979 263.639C43.4128 263.662 43.2439 263.756 43.127 263.901C42.09 265.213 42.5018 272.655 41.1598 272.289C40.4888 272.289 39.6348 266.189 41.1598 258.488C41.2513 258.076 41.4953 257.13 42.2425 257.13C43.92 257.13 45.2925 259.128 46.1618 260.455C46.8023 261.416 47.1835 261.98 47.7783 262.071C48.6528 262.302 49.4463 262.77 50.0708 263.424C50.6953 264.078 51.1264 264.893 51.3163 265.777C51.4974 267.122 51.3347 268.492 50.8435 269.757V269.818ZM273.25 231.449C275.095 233.996 274.439 244.244 272.731 245.174C272.487 245.327 271.755 244.778 271.633 243.375C271.908 239.406 271.842 235.422 271.435 231.465C271.545 231.334 271.681 231.228 271.834 231.153C271.988 231.078 272.155 231.036 272.325 231.029C272.496 231.022 272.666 231.05 272.825 231.112C272.984 231.174 273.129 231.268 273.25 231.388V231.449ZM269.132 229.741C269.468 230.092 271.16 233.066 270.154 243.573C269.895 246.257 267.897 246.425 268.019 244.671C268.278 240.92 268.492 232.974 267.272 229.421C267.56 229.23 267.908 229.151 268.251 229.198C268.594 229.246 268.907 229.418 269.132 229.68V229.741ZM265.457 228.933C266.526 231.989 267.043 235.212 266.982 238.449C266.982 242.856 266.509 244.808 266.082 245.647C266.029 245.749 265.948 245.833 265.847 245.888C265.747 245.944 265.632 245.968 265.518 245.958C265.403 245.949 265.294 245.905 265.205 245.833C265.115 245.762 265.049 245.665 265.015 245.556C264.616 243.28 264.432 240.972 264.466 238.663C264.43 235.524 263.804 232.42 262.62 229.513C262.762 229.281 262.948 229.081 263.169 228.923C263.389 228.765 263.639 228.653 263.903 228.593C264.168 228.534 264.441 228.527 264.708 228.575C264.975 228.623 265.23 228.724 265.457 228.872V228.933ZM254.782 234.667C255.59 234.667 256.231 233.935 256.749 232.898C258.899 228.628 261.156 229.68 261.553 230.565C262.488 233.166 263.003 235.899 263.078 238.663C263.078 238.769 263.551 246.089 262.681 245.967C261.797 246.089 261.034 240.127 260.76 238.663C260.705 237.79 260.443 236.944 259.997 236.192C259.92 236.102 259.821 236.032 259.71 235.989C259.599 235.946 259.479 235.932 259.361 235.947C259.243 235.962 259.131 236.006 259.034 236.076C258.938 236.145 258.86 236.237 258.808 236.345C258.655 236.665 258.808 236.894 258.945 237.183C259.071 237.497 259.158 237.825 259.204 238.159C258.076 238.159 254.172 238.159 254.08 239.074C253.638 243.314 251.671 244.854 251.244 240.111C251.229 239.73 250.802 234.637 254.843 234.606L254.782 234.667ZM229.482 198.906C236.238 207.126 243.36 235.262 244.214 238.754L229.467 238.891C227.988 224.175 229.543 198.845 229.543 198.845L229.482 198.906ZM227.576 240.645C227.583 240.561 227.622 240.484 227.684 240.427C227.746 240.371 227.827 240.34 227.911 240.34C230.961 240.34 240.02 240.188 249.765 240.127C250.07 244.244 251.93 244.488 252.632 244.442C254.995 244.336 254.568 240.386 255.3 239.745C256.667 239.481 258.067 239.435 259.448 239.608C259.448 239.745 260.211 247.492 262.666 247.492C262.92 247.507 263.171 247.439 263.383 247.299C263.594 247.159 263.755 246.954 263.84 246.715C264.049 246.959 264.315 247.148 264.615 247.263C264.915 247.379 265.239 247.417 265.558 247.374C265.877 247.332 266.18 247.21 266.439 247.02C266.698 246.83 266.906 246.578 267.043 246.288C267.367 246.784 267.851 247.155 268.415 247.34C269.818 247.721 270.886 245.967 270.962 245.815C271.144 246.093 271.398 246.317 271.696 246.465C271.994 246.612 272.326 246.676 272.658 246.651C272.99 246.626 273.309 246.513 273.582 246.323C273.855 246.133 274.072 245.873 274.21 245.571C274.999 243.922 275.455 242.134 275.552 240.31C275.552 240.31 278.13 240.31 279.075 240.31C279.16 240.31 279.241 240.343 279.302 240.403C279.362 240.463 279.395 240.545 279.395 240.63V250.192C279.182 250.192 233.752 250.07 227.545 250.192C227.606 248.804 227.439 244.885 227.637 240.584L227.576 240.645ZM220.622 252.022C220.622 251.933 220.657 251.847 220.72 251.784C220.783 251.721 220.868 251.686 220.957 251.686C226.508 251.579 282.049 251.686 282.933 251.686C283.018 251.686 283.1 251.72 283.16 251.78C283.22 251.84 283.254 251.921 283.254 252.006V253.958H220.591L220.622 252.022ZM118.599 178.334C119.957 173.423 126.224 172.142 127.353 170.709C129.473 167.994 129.046 161.116 134.566 159.134C139.324 157.426 142.893 161.543 143.03 161.711C143.106 161.797 143.201 161.864 143.308 161.906C143.414 161.948 143.53 161.965 143.644 161.955C143.758 161.944 143.868 161.907 143.966 161.846C144.063 161.785 144.145 161.702 144.204 161.604C144.204 161.604 148.276 154.803 153.873 153.43C161.025 151.661 164.38 160.232 164.548 160.613C166.022 163.401 168.108 165.819 170.648 167.689C173.347 168.879 178.379 171.105 179.188 175.726C179.645 177.771 179.676 179.89 179.279 181.948C178.029 187.575 182.543 191.555 181.75 197.015C181.368 199.76 179.691 200.995 177.922 202.307C176.241 203.514 174.845 205.075 173.835 206.882C172.31 209.505 170.632 212.463 166.667 212.219C168.192 205.372 168.192 194.255 168.192 189.451C168.182 188.857 167.949 188.29 167.539 187.86C167.13 187.431 166.573 187.171 165.981 187.133C163.501 187.02 161.073 186.38 158.859 185.257C155.215 183.214 153.4 172.569 144.86 173.362C144.691 173.373 144.532 173.446 144.414 173.567C144.296 173.688 144.226 173.849 144.219 174.018C144.219 174.018 143.899 179.035 142.283 181.49C139.416 185.852 134.048 183.29 131.364 188.353C131.116 188.822 130.995 189.348 131.013 189.878C131.15 193.706 131.791 206.653 132.721 210.465C129.518 210.465 124.028 209.81 122.046 207.278C118.737 203.023 121.695 198.342 121.512 194.239C121.329 190.137 116.449 186.233 118.599 178.334ZM150.502 226.691C152.681 226.826 154.861 226.461 156.877 225.624C156.673 228.172 156.806 230.736 157.273 233.249C157.309 233.406 157.297 233.571 157.237 233.721C157.177 233.87 157.072 233.998 156.938 234.088C150.075 238.663 144.875 235.216 142.954 233.493C142.831 233.386 142.743 233.244 142.702 233.086C142.661 232.928 142.669 232.762 142.725 232.608C143.362 230.287 143.696 227.893 143.716 225.487C143.717 225.349 143.679 225.215 143.606 225.098C143.533 224.982 143.428 224.889 143.304 224.831C140.071 223.306 135.679 218.655 134.154 210.16C133.23 203.419 132.67 196.633 132.477 189.832C132.474 189.552 132.537 189.275 132.66 189.024C135.71 183.305 144.219 189.451 145.622 174.75C152.82 174.75 154.04 184.19 158.219 186.508C160.618 187.742 163.255 188.445 165.951 188.566C166.184 188.582 166.403 188.684 166.564 188.854C166.725 189.023 166.816 189.247 166.82 189.481C166.82 193.568 166.82 207.415 164.807 213.881C163.663 217.48 159.988 225.807 150.579 225.365C150.443 225.41 150.325 225.496 150.238 225.609C150.152 225.723 150.101 225.86 150.093 226.002C150.085 226.145 150.119 226.286 150.192 226.409C150.265 226.532 150.373 226.63 150.502 226.691ZM132.675 227.683C131.714 226.798 129.168 227.118 128.222 227.286C128.262 227.054 128.318 226.824 128.39 226.6C128.452 226.532 128.5 226.452 128.531 226.365C128.563 226.279 128.576 226.187 128.572 226.095C128.568 226.003 128.546 225.912 128.506 225.829C128.467 225.746 128.412 225.671 128.344 225.609C128.276 225.546 128.196 225.498 128.11 225.467C128.023 225.436 127.931 225.422 127.839 225.426C127.747 225.43 127.657 225.453 127.573 225.492C127.49 225.531 127.415 225.586 127.353 225.654C126.924 226.836 126.637 228.065 126.499 229.314C126.285 230.931 125.752 235.155 124.974 235.597C124.455 234.987 123.998 232.12 123.967 228.933C123.967 226.615 124.44 220.073 126.392 220.073C129.442 220.073 131.135 224.038 132.492 224.114C132.629 224.114 135.283 224.206 135.801 226.402C135.943 227.166 135.876 227.955 135.608 228.685C135.339 229.415 134.879 230.059 134.276 230.55C134.032 230.748 133.392 231.16 132.889 230.885C132.736 230.809 132.889 230.107 132.889 229.726C132.889 229.345 133.27 228.155 132.675 227.683ZM122.946 234.133C123.037 236.589 121.177 235.582 120.643 233.706C119.568 229.255 119.537 224.615 120.551 220.149C120.872 219.036 124.013 219.753 123.739 220.637C122.532 225.032 122.282 229.634 123.007 234.133H122.946ZM116.541 221.125C116.836 220.845 117.203 220.652 117.602 220.569C118.001 220.485 118.414 220.514 118.798 220.652C117.761 224.038 118.34 230.687 119.392 234.21C119.225 236.314 117.425 236.162 116.983 235.277C115.275 231.922 114.543 223.031 116.541 221.125ZM115.016 234.057C115.199 234.545 114.573 236.817 112.972 234.804C111.371 232.791 109.602 220.225 114.314 222.742C113.998 224.348 113.891 225.988 113.994 227.622C113.994 228.857 114.97 234.057 114.97 234.088L115.016 234.057ZM108.489 188.307C108.382 187.453 109.785 187.24 109.892 188.109C111.504 198.463 112.523 208.901 112.942 219.371C112.942 220.286 111.554 220.225 111.523 219.371C111.09 208.987 110.061 198.635 108.443 188.368L108.489 188.307ZM115.183 149.45C115 151.555 114.162 156.572 113.201 161.65C111.363 159.933 109.275 158.503 107.009 157.411C110.273 154.025 113.628 150.762 115.183 149.45ZM148.871 254.675C146.659 255.041 143.609 255.59 140.392 256.2C140.209 254.934 139.949 253.73 139.705 252.708C141.581 252.906 145.714 253.364 148.855 253.943L148.871 254.675ZM148.779 256.124C148.575 259.303 148.575 262.491 148.779 265.67H122.686C122.686 264.466 122.854 261.919 124.455 261.309C128.009 259.952 142.206 257.283 148.779 256.2V256.124ZM219.265 251.93V265.655H150.289C149.986 261.23 150.047 256.787 150.472 252.372C159.896 252.037 194.026 249.322 194.377 249.231C194.563 249.217 194.735 249.129 194.857 248.988C194.978 248.846 195.039 248.662 195.025 248.476C195.011 248.29 194.923 248.117 194.781 247.995C194.64 247.874 194.456 247.814 194.27 247.828C193.904 247.828 158.188 250.756 149.816 250.969C149.643 250.972 149.477 251.04 149.35 251.158C149.223 251.276 149.145 251.437 149.13 251.61C149.13 251.61 149.13 251.991 149.038 252.525C145.455 251.884 140.803 251.396 139.309 251.244C139.065 250.375 138.867 249.81 138.851 249.719C138.799 249.573 138.701 249.448 138.572 249.363C138.442 249.278 138.289 249.237 138.135 249.246C120.49 250.344 91.683 249.246 91.3933 249.246C91.2068 249.246 91.0272 249.316 90.8912 249.444C90.7552 249.572 90.6729 249.746 90.6613 249.932C90.6572 250.026 90.6718 250.119 90.7043 250.207C90.7367 250.294 90.7864 250.375 90.8503 250.443C90.9143 250.511 90.9912 250.566 91.0766 250.604C91.1619 250.642 91.2541 250.662 91.3475 250.664C91.6373 250.664 119.911 251.762 137.677 250.664C138.263 252.534 138.706 254.446 139.004 256.383C133.916 257.252 128.885 258.424 123.937 259.891C121.512 260.821 121.253 264.069 121.268 265.579H71.2023C77.8665 246.684 95.6023 237.077 110.502 232.242C112.393 238.907 115.427 236.421 115.778 235.933C118.599 238.861 119.758 236.726 120.155 236.04C122.336 238.053 123.418 236.726 123.784 236.177C123.784 236.177 127.124 239.867 128.054 228.643C128.054 228.643 128.054 228.171 131.592 228.415C131.65 228.737 131.65 229.068 131.592 229.391C130.967 233.005 134.231 232.319 135.222 231.556C136.02 230.91 136.63 230.06 136.987 229.097C137.344 228.134 137.435 227.092 137.25 226.081C136.973 225.102 136.387 224.238 135.579 223.62C134.771 223.001 133.784 222.661 132.767 222.65C132.385 220.195 131.791 216.642 130.86 211.685C131.791 211.762 132.568 211.777 133.056 211.777C134.581 218.319 138.119 223.687 142.206 225.822C142.172 227.921 141.869 230.007 141.307 232.029C141.161 232.447 141.143 232.899 141.254 233.328C141.365 233.757 141.601 234.143 141.932 234.438C147.59 239.684 154.849 237.046 157.655 235.155C158.021 234.907 158.305 234.556 158.471 234.145C158.636 233.735 158.676 233.285 158.585 232.852C158.305 231.379 158.157 229.884 158.143 228.384C189.405 225.532 216.962 248.026 219.89 250.512C219.677 250.685 219.509 250.907 219.4 251.16C219.291 251.412 219.245 251.687 219.265 251.961V251.93ZM283.315 265.655H220.683V263.444C223.885 263.444 280.692 263.535 283.376 263.444C283.36 264.359 283.345 265.106 283.33 265.701L283.315 265.655ZM283.315 262.056C275.308 262.254 224.831 262.056 220.607 262.056V255.285H283.284C283.376 257.39 283.406 259.906 283.391 262.102L283.315 262.056Z" fill="#501200"/>
<path d="M241.072 270.154C240.887 270.15 240.711 270.075 240.58 269.944C240.45 269.813 240.375 269.637 240.371 269.452V258.503C240.356 258.401 240.363 258.297 240.392 258.198C240.42 258.099 240.47 258.008 240.537 257.93C240.605 257.852 240.688 257.79 240.782 257.747C240.875 257.704 240.977 257.682 241.08 257.682C241.183 257.682 241.284 257.704 241.378 257.747C241.472 257.79 241.555 257.852 241.622 257.93C241.69 258.008 241.739 258.099 241.768 258.198C241.797 258.297 241.804 258.401 241.789 258.503V269.452C241.785 269.64 241.708 269.818 241.574 269.949C241.44 270.08 241.26 270.154 241.072 270.154Z" fill="#FF7449"/>
<path d="M138.928 69.9213C138.928 70.5118 139.109 71.0781 139.432 71.4956C139.756 71.9132 140.194 72.1478 140.651 72.1478C141.108 72.1478 141.546 71.9132 141.869 71.4956C142.193 71.0781 142.374 70.5118 142.374 69.9213C142.374 69.3308 142.193 68.7644 141.869 68.3469C141.546 67.9293 141.108 67.6948 140.651 67.6948C140.194 67.6948 139.756 67.9293 139.432 68.3469C139.109 68.7644 138.928 69.3308 138.928 69.9213Z" fill="#501200"/>
<path d="M159.515 70.1958C159.515 70.7863 159.697 71.3526 160.02 71.7702C160.343 72.1877 160.782 72.4223 161.239 72.4223C161.696 72.4223 162.134 72.1877 162.457 71.7702C162.78 71.3526 162.962 70.7863 162.962 70.1958C162.962 69.6053 162.78 69.039 162.457 68.6214C162.134 68.2039 161.696 67.9693 161.239 67.9693C160.782 67.9693 160.343 68.2039 160.02 68.6214C159.697 69.039 159.515 69.6053 159.515 70.1958Z" fill="#501200"/>
<path d="M128.299 74.42C128.208 74.4216 128.118 74.4048 128.034 74.3708C127.95 74.3367 127.874 74.286 127.811 74.2218C127.366 73.8426 126.846 73.5619 126.286 73.3983C126.106 73.3457 125.954 73.2238 125.864 73.0593C125.774 72.8949 125.753 72.7014 125.805 72.5214C125.858 72.3414 125.98 72.1897 126.144 72.0996C126.309 72.0095 126.502 71.9884 126.682 72.041C127.438 72.266 128.133 72.6627 128.71 73.2C128.806 73.2944 128.873 73.4137 128.903 73.5442C128.934 73.6748 128.928 73.8114 128.885 73.9385C128.842 74.0656 128.764 74.1781 128.661 74.2632C128.557 74.3484 128.432 74.4027 128.299 74.42Z" fill="#501200"/>
<path d="M82.1521 86.437C81.8188 85.3981 81.3023 84.4271 80.6271 83.57C80.0018 82.045 72.6361 64.782 71.6143 62.7843C69.9826 59.6123 68.3356 59.3378 67.2376 59.7343C65.2398 60.3595 65.5906 63.1198 66.1548 64.477C66.7191 65.8343 70.2418 73.4135 70.9281 75.4113C70.3144 75.745 69.6832 76.0454 69.0371 76.311C68.5338 75.274 66.4751 70.5008 64.9958 67.4813C63.3336 64.05 61.6866 62.525 60.1158 63.2265C58.1638 64.0348 57.9656 66.4138 59.5668 70.2873C60.9392 73.2131 62.4663 76.0638 64.1418 78.8273C63.6682 78.7973 63.1975 78.9205 62.7993 79.1786C62.4011 79.4368 62.0966 79.8162 61.9306 80.2608C59.9023 80.2608 58.5603 81.618 59.1551 84.3935C59.9786 88.206 64.3401 94.1993 66.4446 94.4128C68.5491 94.6263 68.4118 92.8878 68.4118 92.2778C71.9956 93.2385 70.9128 88.6635 70.5163 87.6113C70.6993 87.6113 75.2286 86.0863 75.7623 88.816C75.9453 89.7005 77.3941 89.2735 77.1196 88.389C76.0826 85.0798 72.9106 85.6593 70.8213 86.1015C68.7321 86.5438 68.5338 85.7355 68.7778 85.2933C69.5556 83.8903 71.8278 82.411 75.2591 82.2433C78.6903 82.0755 80.7796 86.8183 80.8101 86.8183C80.8887 86.9593 81.0127 87.0696 81.1618 87.1314C81.311 87.1931 81.4766 87.2027 81.6319 87.1586C81.7872 87.1145 81.9231 87.0192 82.0175 86.8883C82.1119 86.7573 82.1593 86.5983 82.1521 86.437ZM66.5666 93.025C65.5753 92.9335 61.3663 88.0078 60.4666 84.119C60.3141 83.4633 59.9786 81.4655 61.7323 81.7095C62.6196 85.1963 64.3415 88.415 66.7496 91.0883C67.6188 93.025 66.7953 93.025 66.5666 93.025ZM75.1981 80.825C67.3291 81.1605 64.9043 87.7028 69.0218 87.7485C70.3181 90.6155 68.9303 90.9815 68.5796 90.7985C65.9958 88.2875 64.1362 85.1267 63.1963 81.6485C63.1963 81.1148 63.6081 79.5745 65.0263 80.4438L66.2311 82.35C66.3387 82.4879 66.4931 82.5816 66.6651 82.6136C66.8371 82.6455 67.0148 82.6135 67.1648 82.5235C67.3148 82.4335 67.4267 82.2918 67.4794 82.125C67.5322 81.9582 67.5221 81.7779 67.4511 81.618C67.4511 81.5265 62.2508 73.0933 60.8783 69.7383C60.1768 68.0455 59.2313 65.1633 60.6648 64.5228C61.1986 64.294 62.2966 65.1023 63.7148 68.0303C64.7518 70.1805 65.7431 72.4223 66.5513 74.237C68.0763 77.836 68.0763 77.836 68.7321 77.7903C69.9434 77.4501 71.0992 76.9365 72.1633 76.2653C72.7428 75.7925 72.7886 75.7468 68.7931 66.917C68.1831 65.5445 67.6341 64.355 67.4511 63.867C67.0546 62.9063 66.8258 61.3355 67.6493 61.0305C68.7168 60.6188 69.7996 62.3878 70.3333 63.4248C71.1263 64.9498 75.9453 76.2348 78.1871 81.496C77.2664 81.0152 76.2359 80.7839 75.1981 80.825Z" fill="#501200"/>
<path d="M109.983 137.525L111.905 133.956C112.005 133.809 112.157 133.705 112.33 133.664C112.503 133.623 112.685 133.648 112.841 133.733C112.997 133.819 113.115 133.959 113.173 134.127C113.231 134.295 113.225 134.479 113.155 134.642L111.219 138.196C111.13 138.359 110.979 138.481 110.8 138.534C110.622 138.587 110.429 138.567 110.265 138.478C110.102 138.389 109.98 138.238 109.927 138.06C109.874 137.881 109.894 137.688 109.983 137.525Z" fill="#501200"/>
<path d="M126.453 122.488L124.318 119.057C124.24 118.898 124.222 118.716 124.27 118.545C124.318 118.374 124.427 118.227 124.577 118.133C124.727 118.038 124.906 118.002 125.081 118.032C125.256 118.062 125.413 118.155 125.523 118.294L127.658 121.741C127.726 121.898 127.735 122.075 127.683 122.239C127.632 122.403 127.523 122.543 127.377 122.633C127.232 122.724 127.058 122.759 126.888 122.732C126.719 122.706 126.564 122.619 126.453 122.488Z" fill="#501200"/>
<path d="M141.307 139.385L143.228 135.817C143.33 135.678 143.479 135.58 143.648 135.542C143.816 135.504 143.992 135.528 144.145 135.61C144.297 135.691 144.414 135.825 144.476 135.986C144.537 136.147 144.538 136.325 144.479 136.488L142.557 140.056C142.455 140.195 142.306 140.293 142.138 140.331C141.969 140.369 141.793 140.345 141.641 140.263C141.489 140.181 141.371 140.048 141.31 139.886C141.249 139.725 141.247 139.547 141.307 139.385Z" fill="#501200"/>
<path d="M123.525 152.241L125.965 155.474C126.079 155.623 126.128 155.812 126.102 155.998C126.076 156.184 125.978 156.352 125.828 156.465C125.678 156.578 125.49 156.627 125.304 156.602C125.118 156.576 124.95 156.477 124.837 156.328L122.397 153.095C122.341 153.021 122.3 152.936 122.276 152.846C122.253 152.756 122.247 152.663 122.26 152.571C122.273 152.479 122.304 152.39 122.351 152.31C122.398 152.23 122.46 152.16 122.534 152.103C122.608 152.047 122.693 152.006 122.782 151.983C122.872 151.96 122.966 151.954 123.058 151.967C123.15 151.98 123.239 152.01 123.319 152.057C123.399 152.104 123.469 152.167 123.525 152.241Z" fill="#501200"/>
<path d="M163.038 145.348L162.55 141.337C162.526 141.151 162.577 140.963 162.691 140.814C162.805 140.665 162.974 140.568 163.16 140.544C163.346 140.52 163.534 140.57 163.683 140.685C163.832 140.799 163.929 140.968 163.953 141.154L164.441 145.18C164.463 145.366 164.411 145.553 164.295 145.701C164.179 145.848 164.01 145.943 163.824 145.965C163.637 145.988 163.45 145.935 163.303 145.819C163.156 145.703 163.06 145.534 163.038 145.348Z" fill="#501200"/>
<path d="M165.386 121.329L163.572 117.715C163.489 117.547 163.476 117.353 163.536 117.176C163.596 116.998 163.724 116.852 163.892 116.769C164.06 116.686 164.254 116.674 164.431 116.734C164.608 116.794 164.754 116.922 164.837 117.09L166.667 120.704C166.728 120.87 166.724 121.053 166.658 121.217C166.592 121.381 166.467 121.515 166.308 121.592C166.149 121.67 165.967 121.686 165.797 121.637C165.627 121.589 165.48 121.479 165.386 121.329Z" fill="#501200"/>
<path d="M178.318 133.224L182.299 133.971C182.473 134.019 182.623 134.131 182.719 134.285C182.814 134.439 182.848 134.623 182.813 134.8C182.778 134.978 182.678 135.136 182.531 135.242C182.385 135.349 182.204 135.396 182.024 135.374L178.059 134.627C177.888 134.578 177.741 134.467 177.648 134.315C177.554 134.164 177.52 133.983 177.552 133.808C177.585 133.633 177.681 133.476 177.823 133.368C177.964 133.26 178.141 133.209 178.318 133.224Z" fill="#501200"/>
<path d="M88.4503 127.887C89.4984 126.882 90.453 125.785 91.3021 124.608C89.6856 124.44 87.5811 124.882 87.1083 123.769C86.7912 121.159 86.6638 118.529 86.7271 115.9C86.7121 115.798 86.7192 115.694 86.748 115.595C86.7767 115.497 86.8265 115.405 86.8937 115.327C86.961 115.249 87.0443 115.187 87.1379 115.144C87.2315 115.101 87.3332 115.079 87.4362 115.079C87.5391 115.079 87.6409 115.101 87.7345 115.144C87.8281 115.187 87.9113 115.249 87.9786 115.327C88.0459 115.405 88.0956 115.497 88.1244 115.595C88.1531 115.694 88.1603 115.798 88.1453 115.9C88.1453 118.95 88.2216 122.214 88.3588 123.129C89.6551 123.388 92.7966 122.686 92.8271 124.318C92.8271 125.325 90.9818 127.368 89.3958 128.893C89.2579 128.983 89.0927 129.021 88.9294 129.001C88.766 128.982 88.6147 128.905 88.5021 128.785C88.3894 128.665 88.3225 128.51 88.313 128.345C88.3036 128.181 88.3522 128.019 88.4503 127.887Z" fill="#501200"/>
<path d="M77.7752 117.425C77.6408 117.425 77.5091 117.387 77.3958 117.315C77.2825 117.242 77.1923 117.139 77.1361 117.017C77.0799 116.895 77.0599 116.759 77.0786 116.626C77.0973 116.493 77.1538 116.368 77.2415 116.266C77.9226 115.487 78.8777 114.999 79.9086 114.906C80.9394 114.812 81.9667 115.119 82.7772 115.763C82.9117 115.878 82.9987 116.039 83.0217 116.214C83.0446 116.39 83.0017 116.568 82.9014 116.714C82.801 116.859 82.6502 116.963 82.4781 117.004C82.3059 117.045 82.1246 117.022 81.969 116.937C81.4506 116.492 80.7783 116.269 80.0968 116.314C79.4152 116.36 78.7788 116.671 78.3242 117.181C78.2572 117.261 78.173 117.324 78.0779 117.366C77.9828 117.409 77.8793 117.429 77.7752 117.425Z" fill="#501200"/>
<path d="M97.0818 116.815C96.9914 116.816 96.9017 116.799 96.818 116.765C96.7342 116.731 96.658 116.68 96.5938 116.617C96.3686 116.391 96.1011 116.212 95.8068 116.09C95.5124 115.968 95.1968 115.906 94.8781 115.906C94.5595 115.906 94.2439 115.968 93.9495 116.09C93.6552 116.212 93.3877 116.391 93.1625 116.617C93.0284 116.749 92.8476 116.823 92.6593 116.823C92.4709 116.823 92.2901 116.749 92.156 116.617C92.0887 116.551 92.0352 116.473 91.9986 116.387C91.9621 116.3 91.9432 116.207 91.9432 116.114C91.9432 116.02 91.9621 115.927 91.9986 115.84C92.0352 115.754 92.0887 115.676 92.156 115.61C92.5081 115.252 92.9281 114.967 93.3916 114.772C93.8551 114.578 94.3526 114.477 94.8553 114.477C95.3579 114.477 95.8555 114.578 96.319 114.772C96.7824 114.967 97.2025 115.252 97.5545 115.61C97.6471 115.709 97.7097 115.832 97.7352 115.965C97.7607 116.098 97.7479 116.236 97.6984 116.362C97.649 116.488 97.5648 116.597 97.4556 116.678C97.3465 116.758 97.2169 116.805 97.0818 116.815Z" fill="#501200"/>
<path d="M67.9237 126.163C67.4204 125.767 66.2309 125.035 66.2309 125.035C66.1381 124.994 66.0552 124.933 65.9875 124.858C65.9198 124.782 65.869 124.693 65.8384 124.596C65.8078 124.499 65.7981 124.397 65.81 124.296C65.8218 124.195 65.855 124.098 65.9072 124.011C65.9594 123.924 66.0296 123.849 66.1129 123.791C66.1963 123.733 66.2911 123.694 66.3909 123.675C66.4907 123.657 66.5933 123.659 66.6919 123.683C66.7905 123.708 66.8829 123.752 66.9629 123.815C66.9629 123.815 68.2287 124.608 68.8082 125.05C68.9297 125.175 69.0016 125.34 69.0104 125.514C69.0191 125.688 68.9641 125.859 68.8557 125.996C68.7473 126.132 68.5928 126.225 68.4213 126.255C68.2497 126.286 68.0728 126.254 67.9237 126.163Z" fill="#501200"/>
<path d="M87.6266 139.156C84.6986 139.156 82.9601 136.838 82.3653 133.987C82.3289 133.812 82.334 133.631 82.3799 133.459C82.4259 133.286 82.5116 133.127 82.6302 132.993C82.7488 132.86 82.8969 132.756 83.0627 132.69C83.2286 132.625 83.4076 132.598 83.5853 132.614C86.2225 132.79 88.8696 132.749 91.5001 132.492C91.6838 132.471 91.87 132.493 92.0431 132.559C92.2162 132.624 92.3712 132.729 92.4951 132.867C92.619 133.004 92.7082 133.169 92.7553 133.348C92.8024 133.527 92.806 133.714 92.7658 133.895C91.6526 138.562 88.9533 139.156 87.6266 139.156ZM83.8751 134.048C84.2106 135.329 85.1256 137.616 87.5198 137.738C89.9141 137.86 90.9053 135.359 91.2713 133.941C88.8124 134.168 86.3395 134.204 83.8751 134.048Z" fill="#501200"/>
<path d="M77.9886 121.512C77.9886 122.022 78.1461 122.51 78.4264 122.871C78.7067 123.231 79.0868 123.434 79.4831 123.434C79.8795 123.434 80.2596 123.231 80.5399 122.871C80.8202 122.51 80.9776 122.022 80.9776 121.512C80.9776 121.002 80.8202 120.514 80.5399 120.153C80.2596 119.793 79.8795 119.591 79.4831 119.591C79.0868 119.591 78.7067 119.793 78.4264 120.153C78.1461 120.514 77.9886 121.002 77.9886 121.512Z" fill="#501200"/>
<path d="M93.7113 121.344C93.7113 121.854 93.8688 122.343 94.149 122.703C94.4293 123.063 94.8094 123.266 95.2058 123.266C95.6022 123.266 95.9823 123.063 96.2626 122.703C96.5428 122.343 96.7003 121.854 96.7003 121.344C96.7003 120.835 96.5428 120.346 96.2626 119.986C95.9823 119.625 95.6022 119.423 95.2058 119.423C94.8094 119.423 94.4293 119.625 94.149 119.986C93.8688 120.346 93.7113 120.835 93.7113 121.344Z" fill="#501200"/>
<path d="M77.1195 128.375C77.3611 128.407 77.6057 128.404 77.8388 128.364C78.072 128.324 78.2891 128.249 78.4773 128.142C78.6655 128.036 78.8211 127.9 78.9349 127.744C79.0487 127.588 79.1184 127.414 79.1399 127.232C79.1615 127.051 79.1344 126.865 79.0603 126.687C78.9863 126.508 78.8667 126.34 78.7086 126.193C78.5505 126.045 78.357 125.921 78.1397 125.828C77.9223 125.735 77.6854 125.674 77.4429 125.649C77.2009 125.616 76.9559 125.619 76.7222 125.659C76.4886 125.699 76.271 125.774 76.0823 125.88C75.8936 125.987 75.7376 126.122 75.6236 126.279C75.5095 126.435 75.4397 126.61 75.4182 126.792C75.3968 126.973 75.4241 127.159 75.4985 127.338C75.573 127.517 75.6931 127.685 75.8518 127.832C76.0105 127.98 76.2045 128.104 76.4225 128.197C76.6405 128.29 76.878 128.351 77.1211 128.375" fill="#FCCAC2"/>
<path d="M96.1332 127.81C96.1449 127.99 96.2037 128.165 96.3063 128.325C96.4088 128.486 96.5531 128.628 96.731 128.744C96.9088 128.86 97.1167 128.948 97.3427 129.003C97.5687 129.057 97.8085 129.077 98.0483 129.062C98.2881 129.046 98.5233 128.995 98.7404 128.912C98.9575 128.829 99.1523 128.715 99.3136 128.577C99.4749 128.439 99.5996 128.279 99.6806 128.107C99.7616 127.935 99.7973 127.754 99.7856 127.574C99.7756 127.393 99.7181 127.217 99.6163 127.056C99.5145 126.894 99.3705 126.751 99.1926 126.634C99.0146 126.516 98.8062 126.428 98.5794 126.372C98.3526 126.317 98.1118 126.297 97.871 126.312C97.6301 126.328 97.3939 126.379 97.176 126.463C96.9581 126.546 96.7628 126.661 96.6013 126.8C96.4397 126.939 96.3152 127.1 96.2349 127.273C96.1546 127.446 96.12 127.628 96.1332 127.809" fill="#FCCAC2"/>
<path d="M80.9776 162.458C79.5515 162.076 78.217 161.41 77.0537 160.501C75.8904 159.592 74.9221 158.458 74.2066 157.167C74.1752 157.109 74.1317 157.058 74.079 157.019C74.0264 156.979 73.9659 156.952 73.9016 156.938C72.5294 156.682 71.1336 156.574 69.7383 156.618C69.6769 156.619 69.6165 156.634 69.5607 156.66C69.5049 156.685 69.4548 156.722 69.4135 156.768C69.3723 156.813 69.3406 156.867 69.3204 156.925C69.3002 156.983 69.2919 157.044 69.2961 157.106C69.7383 165.981 70.8211 170.358 71.3853 172.02C71.4141 172.098 71.4629 172.167 71.5269 172.22C71.5909 172.273 71.6678 172.309 71.7497 172.323C71.8317 172.336 71.9159 172.329 71.9938 172.3C72.0718 172.271 72.1407 172.221 72.1936 172.157C74.8436 168.865 77.8568 165.883 81.1758 163.267C81.2446 163.212 81.2963 163.139 81.3247 163.056C81.3532 162.973 81.3572 162.884 81.3363 162.799C81.3155 162.714 81.2705 162.636 81.2069 162.576C81.1433 162.516 81.0637 162.475 80.9776 162.458Z" fill="white"/>
<path d="M95.4653 157.075C95.4653 156.897 95.3946 156.726 95.2687 156.601C95.1429 156.475 94.9722 156.404 94.7943 156.404C94.1441 156.434 93.4969 156.511 92.8575 156.633C92.737 156.653 92.6247 156.707 92.5331 156.788C92.4414 156.868 92.3742 156.973 92.339 157.09C91.241 160.049 87.764 161.986 85.9645 162.596C85.8592 162.628 85.764 162.687 85.6874 162.767C85.6109 162.846 85.5557 162.943 85.5268 163.05C85.4979 163.156 85.4963 163.268 85.5222 163.375C85.5481 163.483 85.6005 163.581 85.6748 163.663C88.3435 166.713 91.973 170.663 93.62 172.417C93.7078 172.505 93.8179 172.567 93.9385 172.597C94.0591 172.628 94.1857 172.625 94.3047 172.589C94.4237 172.553 94.5307 172.485 94.6143 172.393C94.6978 172.301 94.7548 172.188 94.779 172.066C95.3231 167.088 95.5523 162.081 95.4653 157.075Z" fill="white"/>
</svg>
