<svg width="305" height="305" viewBox="0 0 305 305" fill="none" xmlns="http://www.w3.org/2000/svg">
<path d="M147.672 87.5808C131.953 87.5808 119.223 75.3701 119.223 60.3016C119.223 45.2331 131.953 33.1566 147.672 33.1566C147.672 32.7525 147.652 32.8973 91.1643 32.8973C83.8443 32.9516 76.8426 35.8976 71.6856 41.0929C66.5287 46.2882 63.6348 53.3116 63.6348 60.6318C63.6348 67.952 66.5287 74.9753 71.6856 80.1706C76.8426 85.366 83.8443 88.3119 91.1643 88.3662H147.542C147.542 87.4649 147.49 87.5808 147.672 87.5808Z" fill="#FCCAC2"/>
<path d="M155.207 32.8912H147.672C131.954 32.8912 119.223 45.3627 119.223 60.3016C119.352 67.7586 122.407 74.8661 127.729 80.091C133.051 85.3158 140.214 88.2392 147.672 88.2304H155.207C162.495 88.1539 169.459 85.205 174.585 80.0243C179.712 74.8436 182.588 67.8494 182.588 60.5608C182.588 53.2723 179.712 46.2781 174.585 41.0974C169.459 35.9166 162.495 32.9678 155.207 32.8912Z" fill="#FF7449"/>
<path d="M153.908 86.9251C138.579 86.9251 126.109 74.9736 126.109 60.2955C126.109 45.6174 138.579 33.6644 153.908 33.6644C154.08 33.6644 154.246 33.596 154.367 33.4742C154.489 33.3523 154.558 33.1871 154.558 33.0148C154.558 32.8425 154.489 32.6772 154.367 32.5554C154.246 32.4336 154.08 32.3651 153.908 32.3651C137.8 32.3651 124.81 44.8366 124.81 60.2955C124.81 75.6233 137.8 88.2244 153.908 88.2244C154.08 88.2244 154.246 88.1559 154.367 88.0341C154.489 87.9122 154.558 87.747 154.558 87.5747C154.558 87.4024 154.489 87.2372 154.367 87.1153C154.246 86.9935 154.08 86.9251 153.908 86.9251Z" fill="white"/>
<path d="M95.0581 153.781C110.776 153.781 123.507 165.992 123.507 181.06C123.507 196.129 110.776 208.205 95.0581 208.205C95.0581 208.609 95.0764 208.466 151.565 208.466C157.024 208.424 162.349 206.773 166.873 203.719C171.397 200.664 174.92 196.343 176.999 191.296C179.079 186.249 179.623 180.701 178.564 175.346C177.505 169.991 174.889 165.068 171.044 161.193C165.887 155.998 158.885 153.052 151.565 152.997H95.1877C95.1877 153.897 95.2396 153.781 95.0581 153.781Z" fill="#FCCAC2"/>
<path d="M87.5229 208.468H95.0564C110.776 208.468 123.507 195.996 123.507 181.057C123.378 173.6 120.323 166.492 115 161.267C109.678 156.042 102.515 153.119 95.0564 153.128H87.5229C80.1848 153.13 73.1476 156.045 67.9588 161.234C62.7701 166.423 59.8545 173.46 59.8533 180.798C59.8541 188.136 62.7695 195.174 67.9584 200.362C73.1473 205.551 80.1847 208.467 87.5229 208.468Z" fill="#FF7449"/>
<path d="M88.8225 154.431C104.15 154.431 116.622 166.381 116.622 181.06C116.622 195.74 104.158 207.69 88.8225 207.69C88.6502 207.69 88.485 207.758 88.3632 207.88C88.2413 208.002 88.1729 208.167 88.1729 208.34C88.1729 208.512 88.2413 208.677 88.3632 208.799C88.485 208.921 88.6502 208.989 88.8225 208.989C104.93 208.989 117.921 196.519 117.921 181.06C117.921 165.731 104.93 153.131 88.8225 153.131C88.6505 153.133 88.4858 153.201 88.3635 153.322C88.3024 153.382 88.254 153.453 88.2212 153.532C88.1885 153.611 88.172 153.696 88.1729 153.781C88.1733 153.953 88.2419 154.118 88.3636 154.24C88.4854 154.362 88.6504 154.43 88.8225 154.431Z" fill="white"/>
<path d="M277.186 223.85C268.493 223.367 259.584 222.345 256.141 221.772C255.668 224.604 259.885 236.877 261.727 241.386C263.525 245.792 270.918 268.74 277.834 275.812C282.787 280.875 289.271 280.321 289.271 278.404C289.843 278.409 277.186 247.479 277.186 223.85Z" fill="white"/>
<path d="M276.025 149.156C275.375 143.179 266.931 102.52 263.683 96.804C260.889 91.9773 257.473 85.9078 251.735 84.427C251.026 82.3942 249.264 79.1383 249.264 76.5397C247.675 75.7437 247.547 76.4849 245.237 71.8626L244.587 71.4722C249.264 70.5572 252.642 64.8476 248.485 61.0808C247.618 60.3764 246.528 60.0028 245.411 60.0265C244.294 60.0503 243.222 60.4698 242.385 61.2105L241.737 60.6904C237.284 58.1223 237.654 52.4051 239.917 47.3101C240.047 46.9212 240.438 46.2716 240.047 46.0123C239.195 45.1598 229.869 46.5583 224.329 38.7365C222.607 39.8849 222.54 48.5469 219.133 50.8176C217.575 51.8576 212.507 50.5583 212.118 50.9472C211.469 51.8622 213.936 54.4547 214.326 55.4948C216.405 61.5947 213.027 70.0433 216.919 73.9473C221.526 78.6946 229.881 74.0479 232.247 85.8971C223.335 87.2696 222.764 88.7001 222.764 88.1069C215.62 86.5468 198.332 71.6598 196.004 71.219C195.383 71.1016 195.267 71.3242 194.835 71.3486C192.626 66.153 194.835 60.8262 196.004 55.6305C196.133 54.7155 197.173 50.8237 195.484 50.6941C193.129 50.5416 191.445 55.4338 190.158 57.5794C189.713 57.3568 192.8 43.0828 190.158 43.8087C186.98 44.6825 185.531 53.9133 184.831 57.0594C183.887 57.0594 185.171 41.6706 183.143 42.2501C181.751 42.424 180.322 47.0447 180.026 48.2251C178.321 55.8974 179.215 59.9173 178.468 59.9173C177.485 59.9173 176.404 50.5431 176.258 49.5244C176.258 49.2651 175.999 46.5369 175.219 46.9319C170.716 48.5697 174.849 62.6501 175.219 66.5464C175.219 66.9368 169.049 64.7317 168.854 67.3257C168.636 70.24 177.609 75.0483 180.545 76.2896C185.925 78.5314 184.95 77.4349 185.481 78.4978C184.963 78.8882 184.702 79.1475 184.831 79.1475C184.984 79.1475 191.197 92.505 191.197 92.6575C184.385 92.6575 166.907 83.5364 166.307 83.3001C164.645 82.6459 163.073 82.3241 162.647 83.2055C160.108 78.231 151.733 59.873 146.255 60.9604C144.056 61.3995 148.334 67.4569 148.848 68.2346C148.977 68.3657 150.406 70.1836 149.763 70.3147C146.713 70.3147 144.832 67.2128 132.095 66.4168C130.669 66.2872 129.235 66.2872 127.809 66.4168C127.377 66.4346 126.954 66.549 126.572 66.7514C126.19 66.9538 125.858 67.2391 125.6 67.5865C124.051 70.3757 140.985 72.895 140.28 73.9518C139.963 74.5847 137.352 73.6926 129.887 73.6926C125.5 73.6926 122.046 75.3701 125.6 76.5504C128.91 77.6499 139.76 79.2009 139.76 79.7971C139.76 80.4285 134.914 80.4072 134.044 80.5764C131.255 80.7762 125.683 81.0598 124.562 83.4343C123.456 85.7751 133.738 85.4686 135.999 85.2536C136.259 85.2536 138.337 84.8632 138.592 85.2536C138.964 85.9947 129.109 87.8461 129.109 90.7085C129.794 91.8492 136.379 91.224 140.021 90.9693C143.507 90.7253 146.478 91.6998 156.389 94.9953C155.474 97.3346 154.7 99.1524 154.7 99.4178C154.7 99.5489 182.76 126.178 215.496 124.885C215.496 125.055 217.265 155.774 219.392 161.908C221.244 165.61 272.158 166.413 276.551 166.455C276.88 166.455 276.81 166.579 276.81 165.935C276.797 165.92 276.797 156.689 276.025 149.156Z" fill="white"/>
<path d="M259 269.446C257.606 265.405 252.831 254.936 250.166 247.486C248.221 242.056 241.463 222.054 241.463 216.439C235.876 215.919 227.693 215.139 222.366 214.101C222.336 214.253 238.467 265.711 248.218 274.765C252.032 277.157 262.684 276.815 259 269.446Z" fill="white"/>
<path d="M262.767 284.26C263.416 283.999 263.936 283.61 264.455 283.345C264.67 283.132 265.71 283.209 265.37 282.177C265.124 281.686 264.238 281.88 263.941 282.177C248.233 290.026 246.144 291.142 246.144 293.218C246.136 293.305 246.147 293.394 246.176 293.476C246.206 293.559 246.253 293.634 246.316 293.696C246.378 293.758 246.453 293.806 246.535 293.836C246.618 293.865 246.706 293.876 246.794 293.868C247.524 293.868 247.338 293.322 247.573 293.088C248.052 291.649 250.298 290.882 251.469 290.101C251.622 290.02 261.577 284.774 261.733 284.774C262.058 285.1 262.539 285.142 263.162 286.073C265.144 288.056 265.687 289.971 266.279 289.971C268.305 289.971 264.273 285.259 262.767 284.26Z" fill="white"/>
<path d="M266.015 281.657C265.885 281.751 265.79 281.886 265.745 282.04C265.7 282.195 265.708 282.359 265.768 282.509C265.827 282.658 265.935 282.783 266.074 282.864C266.212 282.945 266.374 282.977 266.533 282.956C267.038 283.202 267.482 283.555 267.833 283.995C270.052 286.214 269.887 288.417 270.82 288.417C273.031 288.411 267.458 280.695 266.015 281.657Z" fill="white"/>
<path d="M235.227 282.695C235.097 282.566 234.967 282.566 234.708 282.566C234.295 281.948 233.511 282.695 233.668 282.695C233.668 283.665 234.264 283.865 234.708 283.865C234.967 284.124 235.358 284.255 235.488 284.515C237.318 286.345 236.826 287.632 237.825 287.632C239.754 287.632 236.985 283.87 235.227 282.695Z" fill="white"/>
<path d="M240.554 281.657C240.08 281.084 239.508 280.6 238.864 280.228C237.824 279.708 237.149 280.928 238.605 281.657C242.036 285.088 240.747 285.684 242.242 285.684C243.332 285.327 241.365 282.468 240.554 281.657Z" fill="white"/>
<path d="M269.391 46.5308C268.394 44.9463 266.655 44.199 265.625 42.6344C263.921 40.0419 263.32 37.1444 260.949 34.8401C250.15 24.3451 238.595 28.2979 231.59 27.3051C227.439 26.718 223.411 24.2703 220.029 26.5258C218.34 28.0844 218.99 30.2926 218.47 32.2415C218.34 33.0208 217.691 33.1565 217.171 33.6704C214.284 36.5588 215.367 42.8555 222.107 45.1079C222.514 42.9343 223.123 40.8034 223.925 38.7426L224.315 38.4833C230.341 46.517 239.088 44.8121 240.034 45.7576C240.491 46.2151 239.649 47.214 238.605 50.694C237.825 54.0719 238.345 58.624 241.722 60.4372L242.371 60.9573C243.208 60.217 244.28 59.7975 245.397 59.7735C246.514 59.7495 247.604 60.1225 248.471 60.8261C252.629 64.5944 249.251 70.3101 244.573 71.219L245.223 71.6079C245.743 72.7775 246.783 75.1154 247.951 75.765C249.646 77.4593 264.365 66.3527 267.827 61.735C270.84 57.7182 272.373 51.2628 269.391 46.5308Z" fill="#FFB949"/>
<path d="M227.564 54.7155C225.336 54.7155 224.736 57.308 224.971 57.308C224.971 57.8207 225.123 58.322 225.408 58.7483C225.693 59.1746 226.098 59.5069 226.572 59.7031C227.045 59.8994 227.567 59.9507 228.069 59.8507C228.572 59.7506 229.034 59.5037 229.397 59.1412C229.759 58.7786 230.006 58.3166 230.106 57.8138C230.206 57.3109 230.155 56.7896 229.959 56.3159C229.763 55.8422 229.43 55.4373 229.004 55.1524C228.578 54.8675 228.076 54.7155 227.564 54.7155Z" fill="#FCCAC2"/>
<path d="M290.696 281.137C289.636 278.143 290.162 277.469 288.878 274.901C283.799 259.194 277.619 240.256 277.836 224.629C279.324 224.629 280.216 225.064 280.564 224.369C282.383 221.642 280.434 175.136 277.186 166.301C277.577 164.872 276.927 153.311 276.538 149.156C275.992 144.353 268.28 104.978 263.807 96.0247C261.079 91.3475 257.707 85.5022 251.856 83.9436C251.856 82.5345 249.568 79.4647 249.777 76.5397C249.777 76.3674 249.709 76.2022 249.587 76.0804C249.465 75.9585 249.3 75.8901 249.128 75.8901C248.955 75.8901 248.79 75.9585 248.668 76.0804C248.546 76.2022 248.478 76.3674 248.478 76.5397C248.745 78.9837 249.449 81.3597 250.557 83.5547C244.644 83.6791 238.745 84.1562 232.889 84.9837C231.461 77.839 227.044 76.8005 223.146 75.8901C216.758 74.3895 215.44 72.805 215.742 65.2395C216.926 65.3038 218.111 65.13 219.227 64.7281C220.343 64.3263 221.366 63.7047 222.237 62.9001C222.847 62.3084 221.946 61.3995 221.322 61.9851C220.556 62.6867 219.652 63.222 218.668 63.5574C217.685 63.8928 216.642 64.021 215.607 63.9341C216.09 52.8016 213.125 54.1405 212.488 51.5923C213.861 51.5923 217.739 52.553 219.373 51.4626C222.396 49.5198 222.51 44.7008 224.439 39.252C224.465 39.1752 224.475 39.0941 224.469 39.0133C224.464 38.9326 224.442 38.8538 224.406 38.7815C224.369 38.7091 224.319 38.6446 224.258 38.5916C224.197 38.5386 224.126 38.4982 224.049 38.4727C223.972 38.4471 223.891 38.437 223.81 38.4428C223.73 38.4486 223.651 38.4702 223.579 38.5065C223.506 38.5427 223.442 38.5929 223.389 38.6541C223.336 38.7153 223.295 38.7863 223.27 38.8631C221.295 44.4461 221.386 48.649 218.724 50.4241C217.336 51.3483 212.282 49.8751 211.579 50.813C210.359 52.4402 213.658 55.0296 213.658 55.879C215.727 61.793 212.299 70.2705 216.386 74.5862C220.738 79.2725 229.321 75.2587 231.454 85.4976C228.501 86.01 225.592 86.7482 222.751 87.7058C215.584 86.2311 198.133 70.8195 195.731 70.8195C195.471 70.8195 195.341 70.9491 195.211 70.9491C192.053 63.3149 200.259 51.3971 195.341 50.1633C193.392 50.0337 191.963 52.5027 190.918 54.3205C191.402 51.0951 192.681 42.4606 189.619 43.4091C185.172 44.7816 184.683 57.4696 184.683 51.4626C184.683 49.0486 184.423 45.0973 184.423 45.0973C183.687 38.4696 179.391 41.7423 177.928 55.6198C177.928 59.9935 177.662 57.7746 176.888 51.9827C176.509 49.6952 176.774 47.4077 175.589 46.5262C174.714 46.087 172.516 46.9959 172.213 51.853C171.999 57.8326 173.87 61.9394 174.16 66.0127C174.008 66.0127 167.926 64.2574 167.926 67.3104C167.796 69.0001 169.744 70.5587 170.518 71.2083C175.819 75.5454 179.916 76.7624 184.289 78.353C183.812 78.8303 183.751 79.2451 184.028 79.5226C184.953 81.3694 187.472 88.1343 189.744 91.7333C171.986 88.1084 166.698 80.4483 162.599 82.2509C159.781 76.6084 152.106 59.0465 145.842 60.0362C142.205 60.9436 148.587 69.0337 148.7 69.2594C147.047 68.8536 145.437 68.2882 143.894 67.5712C138.879 66.1148 122.879 63.1487 124.407 68.0912C124.764 69.2396 126.931 70.0387 127.266 70.0387C129.31 70.7554 131.392 71.3639 133.501 71.858C141.978 73.8237 133.993 71.7528 126.876 72.773C123.158 72.773 121.563 75.3319 125.188 76.5413C128.836 77.7613 136.384 78.7617 136.879 79.0087C121.499 79.0087 117.391 86.2418 135.579 85.3741C135.427 85.3741 127.588 87.6387 128.435 90.1793C128.435 90.3105 128.564 90.3105 128.564 90.4401C129.084 91.3551 130.513 91.3551 131.292 91.4802C134.285 91.4871 137.276 91.3568 140.256 91.0898C145.458 90.8976 150.454 93.4215 155.715 94.8565C154.343 98.0438 154.114 98.669 154.416 99.279C154.675 99.5398 182.215 125.91 215.081 125.001C215.48 128.193 216.959 159.869 219.238 162.153C217.966 163.421 215.108 209.945 217.289 213.075C217.557 213.459 218.458 214.115 222.225 214.764C221.984 215.484 222.48 214.879 225.862 225.026C229.628 236.32 239.869 266.033 247.946 274.779C225.013 288.098 220.787 288.004 220.017 291.667C219.254 295.479 226.556 295.434 230.669 295.434C244.964 295.434 246.517 292.492 246.517 294.519C248.89 299.856 280.067 296.469 285.879 295.557C287.576 295.557 291.629 294.572 292.633 292.44C293.424 289.971 292.067 285.009 290.696 281.137ZM280.434 251C276.538 252.169 269.262 252.169 265.625 250.48C264.975 248.921 264.457 247.363 263.937 245.803C262.06 240.177 258.752 233.924 256.663 222.551C263.234 223.324 268.851 224.149 276.538 224.369C276.611 233.382 277.922 242.343 280.434 251ZM184.956 77.1879C180.021 75.7317 175.427 73.3024 171.446 70.0432C168.594 67.7557 169.497 66.9566 169.497 66.7965C170.833 65.729 175.732 68.1294 175.732 66.4061C175.138 61.3614 171.7 49.503 175.083 47.5708C175.618 48.6383 175.673 52.9861 176.641 57.8326V57.9622C176.901 59.2615 177.161 60.4312 178.2 60.5547C180.253 60.5547 178.047 54.4044 181.448 45.355C181.448 45.05 182.4 43.0065 182.877 42.8876C183.173 43.5845 183.306 44.3394 183.266 45.0958C183.916 55.4856 182.912 57.5916 184.565 57.8265C185.338 57.8265 185.044 57.6923 186.124 52.89C186.595 50.8008 188.073 45.0958 190.022 44.4461C190.022 44.4461 190.281 44.7069 190.281 46.2654C190.281 54.0673 188.33 57.5657 189.631 58.0857C190.47 58.5066 191.28 56.2557 191.58 55.359C192.23 54.1893 193.788 51.0707 195.088 51.2019C195.896 51.2019 195.088 55.1669 195.088 55.4886C193.519 61.7716 192.019 66.6638 193.918 71.3364C187.565 75.2115 185.839 77.1879 184.956 77.1879ZM186.385 80.9561C185.421 78.7098 185.3 79.0514 185.735 78.6168C188.812 76.1132 192.086 73.8616 195.525 71.8839C198.961 72.866 213.022 85.5494 220.566 88.328C201.836 95.1905 193.243 91.6067 191.58 91.6067C190.151 89.9186 187.682 84.0732 186.385 80.9561ZM155.596 93.6868C149.737 92.2198 145.772 89.4626 139.878 89.6593C138.922 89.7462 130.312 90.4859 129.487 89.6593C129.487 89.5297 129.487 88.6208 135.332 86.5407C139.219 85.249 138.969 84.7564 138.969 84.2029C138.49 83.2436 125.668 84.6222 124.81 82.9036C126.515 79.4952 139.878 81.1834 139.878 79.0072C139.878 77.229 133.168 77.7872 125.33 75.3701C122.932 74.6289 125.465 74.545 126.499 74.2004C126.688 74.2004 128.993 73.993 129.356 73.9411C138.461 73.9411 139.706 75.1093 140.139 73.8115C142.173 71.7817 128.279 70.6502 125.33 67.7115C127.26 65.1358 141.11 67.8915 145.205 69.5308C146.489 70.0448 149.589 71.4478 150.01 70.179C150.876 68.8827 145.855 64.785 145.855 61.2165C150.465 60.149 159.246 78.4231 161.182 82.78C159.494 84.5933 157.286 89.5297 155.596 93.6868ZM220.42 161.244C218.343 161.244 216.279 127.226 216.133 124.87C219.808 124.67 223.459 124.148 227.044 123.311C227.129 123.294 227.211 123.261 227.283 123.212C227.355 123.164 227.417 123.102 227.466 123.03C227.514 122.957 227.547 122.876 227.564 122.791C227.581 122.705 227.581 122.618 227.564 122.532C227.547 122.447 227.513 122.366 227.465 122.293C227.417 122.221 227.355 122.159 227.282 122.111C227.21 122.063 227.129 122.029 227.043 122.012C226.958 121.995 226.87 121.995 226.785 122.012C201.905 128.236 173.98 115.455 155.467 98.6309C163.958 77.3907 162.787 82.9234 171.185 86.2891C192.475 96.932 207.378 94.7879 223.277 88.6284C232.885 84.9044 248.762 84.7702 250.21 84.8754C255.76 85.2734 259.81 91.259 262.923 96.6347C266.859 104.507 274.665 143.568 275.315 149.224C275.965 155.719 276.023 162.975 276.023 165.183C252.64 164.787 224.446 163.575 220.42 161.237V161.244ZM227.823 227.495C223.39 214.735 223.732 216.515 223.146 214.764C230.854 216.147 240.943 216.637 240.943 216.972C241.553 223.53 247.407 241.104 249.517 246.98C244.824 248.348 239.858 248.483 235.098 247.37C232.501 240.738 229.954 233.621 227.823 227.487V227.495ZM244.841 268.284C241.421 262.022 238.385 255.558 235.747 248.929C240.498 249.804 245.385 249.581 250.037 248.279C258.374 271.435 262.847 273.594 255.752 275.169C253.16 275.162 249.157 277.446 244.841 268.276V268.284ZM247.179 292.317C248.224 291.147 249.509 290.217 250.945 289.588C249.536 290.261 248.26 291.183 247.179 292.309V292.317ZM265.105 281.664C264.687 280.307 261.468 272.057 261.079 272.057C260.734 269.304 256.086 258.825 255.752 258.158C249.985 247.344 243.038 222.513 242.503 216.983C246.114 217.241 246.755 217.666 247.308 217.113C248.608 220.361 249.257 221.14 249.901 221.27C251.85 221.66 253.668 221.92 255.617 222.185C255.617 228.285 269.906 267.404 277.31 275.575L265.105 281.664ZM288.488 278.677C278.809 281.012 273.313 269.481 269.653 260.224C269.435 259.675 267.144 254.574 266.145 251.91C270.942 253.207 275.985 253.296 280.825 252.171C284.651 269.393 289.241 278.669 288.488 278.669V278.677Z" fill="#501200"/>
<path d="M239.904 65.1068C240.075 65.1291 240.248 65.0889 240.391 64.9935C240.534 64.8982 240.638 64.7543 240.683 64.5883C240.714 64.3687 240.756 64.1521 240.813 63.9386C244.659 57.5336 250.716 61.8601 249.386 66.2765C249.001 67.4043 248.333 68.4144 247.446 69.2104C246.56 70.0063 245.483 70.5614 244.32 70.8225C244.155 70.864 244.012 70.9676 243.921 71.1117C243.83 71.2557 243.798 71.4293 243.832 71.5964C243.865 71.7635 243.962 71.9112 244.101 72.0091C244.241 72.1069 244.413 72.1472 244.581 72.1218C249.876 71.1595 253.225 64.5868 248.737 60.5608C243.965 56.2801 237.467 64.2955 239.904 65.1068Z" fill="#501200"/>
<path d="M223.412 50.0383C223.412 52.8992 226.141 51.8134 226.141 48.8702C226.334 46.665 223.412 45.9025 223.412 50.0383Z" fill="#501200"/>
<path d="M173.393 98.1032C166.073 100.63 165.35 100.722 165.73 101.48C165.934 101.89 166.311 101.87 166.645 101.87C173.94 99.2652 174.687 99.2515 174.309 98.4921C174.224 98.3323 174.086 98.2066 173.92 98.1359C173.753 98.0651 173.567 98.0536 173.393 98.1032Z" fill="#501200"/>
<path d="M189.111 100.7C189.042 100.649 188.965 100.612 188.882 100.591C188.799 100.57 188.713 100.565 188.629 100.577C188.544 100.589 188.463 100.618 188.39 100.661C188.316 100.705 188.252 100.762 188.201 100.831C188.15 100.899 188.113 100.977 188.092 101.059C188.07 101.142 188.066 101.228 188.078 101.313C188.09 101.397 188.119 101.478 188.162 101.552C188.206 101.625 188.263 101.689 188.331 101.74C195.237 106.925 194.621 106.547 194.958 106.547C195.061 106.551 195.164 106.529 195.257 106.485C195.351 106.44 195.432 106.373 195.494 106.29C195.556 106.207 195.597 106.11 195.613 106.008C195.629 105.905 195.621 105.801 195.587 105.702C195.544 105.571 195.46 105.457 195.346 105.378L189.111 100.7Z" fill="#501200"/>
<path d="M205.74 111.352C205.467 110.535 204.003 111.151 204.57 112.002C208.001 119.412 207.798 119.408 208.468 119.408C209.798 119.408 209.035 118.602 205.74 111.352Z" fill="#501200"/>
<path d="M199.115 88.4897C202.103 80.5201 202.269 80.7122 201.453 80.4362C200.637 80.1602 200.855 80.3401 197.945 88.1008C197.46 88.8283 198.737 89.2431 199.115 88.4897Z" fill="#501200"/>
<path d="M233.279 97.9737C233.279 97.0831 232.729 97.414 224.835 98.7529C224.042 98.7529 224.134 100.051 224.965 100.051C225.166 100.051 227.042 99.7213 232.759 98.7529C233.148 98.6218 233.409 98.3625 233.279 97.9737Z" fill="#501200"/>
<path d="M256.792 99.9211C257.621 99.6451 257.249 99.4468 253.803 91.9911C253.531 91.1737 252.066 91.7883 252.635 92.6407C256.353 100.525 255.823 99.9211 256.792 99.9211Z" fill="#501200"/>
<path d="M246.135 114.985C246.232 114.906 246.303 114.8 246.341 114.681C246.38 114.562 246.383 114.435 246.351 114.314C246.319 114.194 246.253 114.085 246.16 114C246.068 113.916 245.953 113.861 245.83 113.84C245.664 113.813 245.494 113.851 245.356 113.946C239.533 117.986 238.168 118.582 238.859 119.273C239.272 120.089 240.128 119.16 246.135 114.985Z" fill="#501200"/>
<path d="M223.666 139.672C226.313 132.262 226.763 131.914 225.874 131.618C225.058 131.347 225.253 131.566 222.496 139.283C221.888 139.893 223.26 140.492 223.666 139.672Z" fill="#501200"/>
<path d="M250.945 147.596C251.776 147.32 251.402 147.121 247.957 139.666C247.686 138.848 246.22 139.463 246.789 140.315C250.504 148.2 249.978 147.596 250.945 147.596Z" fill="#501200"/>
<path d="M256.402 127.202C264.109 125.895 264.898 126.057 264.586 125.123C264.586 124.233 264.036 124.565 256.143 125.903C255.249 126.2 255.487 127.202 256.402 127.202Z" fill="#501200"/>
<path d="M228.082 156.819C228.082 157.667 228.317 157.653 236.526 157.859C236.612 157.864 236.699 157.851 236.78 157.82C236.862 157.79 236.936 157.742 236.997 157.68C237.058 157.619 237.106 157.545 237.137 157.464C237.168 157.383 237.181 157.296 237.175 157.209C237.175 156.361 236.94 156.375 228.731 156.169C228.645 156.164 228.558 156.177 228.476 156.207C228.395 156.238 228.321 156.285 228.259 156.346C228.198 156.408 228.15 156.482 228.12 156.564C228.089 156.645 228.076 156.732 228.082 156.819Z" fill="#501200"/>
<path d="M263.417 160.846C269.645 155.701 269.91 155.776 269.517 155.001C268.826 154.31 268.486 154.97 262.631 159.808C262.528 159.885 262.45 159.991 262.408 160.113C262.365 160.235 262.36 160.367 262.393 160.491C262.425 160.616 262.494 160.728 262.591 160.814C262.687 160.899 262.807 160.954 262.935 160.971C263.019 160.983 263.106 160.978 263.188 160.957C263.271 160.935 263.349 160.898 263.417 160.846Z" fill="#501200"/>
<path d="M12.9626 34.8402C12.8666 34.8076 12.7641 34.7993 12.6642 34.8161C12.5642 34.8329 12.47 34.8742 12.39 34.9363C12.3099 34.9984 12.2465 35.0793 12.2053 35.1719C12.1642 35.2645 12.1467 35.3659 12.1543 35.4669C12.1627 35.5884 12.2069 35.7046 12.2812 35.8009C12.3556 35.8973 12.4568 35.9694 12.5722 36.0083C16.9779 37.4982 43.7783 46.7916 45.6982 46.7916C47.0921 45.3962 46.688 46.3493 12.9626 34.8402Z" fill="#501200"/>
<path d="M14.7802 19.2516C14.9327 19.34 40.7052 33.2084 41.6705 33.9297C41.8398 34.1005 42.2179 34.163 42.5855 33.8001C43.348 33.0299 42.9118 33.1352 24.133 22.7591C15.0302 17.7266 15.1355 17.7266 14.5255 18.3366C14.4609 18.4064 14.4152 18.4917 14.3928 18.5842C14.3705 18.6767 14.3721 18.7734 14.3976 18.8651C14.4232 18.9568 14.4717 19.0404 14.5386 19.1081C14.6056 19.1757 14.6887 19.2251 14.7802 19.2516Z" fill="#501200"/>
<path d="M53.8816 28.9948C52.8232 27.9273 51.8991 26.8598 48.2955 23.0183C33.0699 6.8137 33.872 7.17512 33.227 7.8202C33.1645 7.87894 33.1148 7.94983 33.0808 8.02851C33.0468 8.10719 33.0293 8.19199 33.0293 8.2777C33.0293 8.3634 33.0468 8.4482 33.0808 8.52688C33.1148 8.60556 33.1645 8.67645 33.227 8.7352C39.5664 15.0746 52.66 30.1691 53.4927 30.1691C53.8007 30.163 54.1256 29.4798 53.8816 28.9948Z" fill="#501200"/>
<path d="M248.087 216.315C239.172 193.681 240.694 182.317 230.681 180.462C230.291 180.331 230.031 180.592 229.902 180.981C229.388 182.521 234.837 181.475 237.046 187.346C239.169 192.989 244.134 210.096 246.79 216.835C246.908 217.036 246.995 217.256 247.049 217.485C247.403 218.191 248.676 217.95 248.348 216.965C248.348 216.812 248.298 216.946 248.087 216.315Z" fill="white"/>
</svg>
