<svg width="305" height="305" viewBox="0 0 305 305" fill="none" xmlns="http://www.w3.org/2000/svg">
<path d="M55.7909 106.489C55.7909 106.489 52.4222 114.348 34.8023 119.394C34.8023 119.394 33.805 125.1 35.2888 128.493C37.5321 133.622 44.7011 137.47 45.0945 144.706C45.1283 149.209 43.5609 153.578 40.672 157.032C40.672 157.032 24.8395 156.871 14.4802 180.56C3.78229 205.012 7.01529 225.853 23.8803 227.347L23.8635 228.835C55.7909 245.458 86.5578 225.053 86.5578 225.053L81.2096 198.201C81.2096 198.201 91.7214 206.804 98.0471 207.466L98.6373 182.867C98.6373 182.867 120.529 183.566 121.467 183.714C122.404 183.862 125.944 184.362 123.591 188.109C120.889 192.411 121.829 194.553 122.13 195.333C123.15 197.98 130.975 200.557 133.27 195.857C135.448 191.391 131.898 190.122 131.449 186.73C131.193 184.761 132.884 183.697 136.523 183.642C140.162 183.587 156.441 183.714 156.441 183.714C156.441 183.714 156.662 163.736 156.653 161.803C156.644 159.869 156.481 158.55 153.508 159.762C150.062 161.168 146.596 161.43 144.465 159.045C142.149 156.453 142.673 149.269 148.683 149.174C152.214 149.119 154.115 152.627 155.66 152.5C157.205 152.373 157.148 149.726 157.148 147.519C157.148 145.313 156.818 126.729 156.818 126.729L115.568 126.16C115.568 126.16 115.223 121.324 112.583 121.546C112.4 121.156 112.131 120.814 111.795 120.545C111.459 120.275 111.067 120.087 110.647 119.993C110.227 119.899 109.791 119.902 109.373 120.002C108.954 120.102 108.564 120.297 108.233 120.571C108.233 120.571 106.468 118.11 103.38 120.571C103.38 120.571 102.008 120.028 100.842 121.82C99.7391 123.203 98.2448 124.223 96.5541 124.745C95.3006 125.355 93.3425 128.027 97.8916 131.638C97.8916 131.638 94.8309 131.914 94.5564 132.907C94.2819 133.9 89.7023 172.557 89.7023 172.557C89.7023 172.557 72.7047 156.399 60.7441 156.73C60.7441 156.73 66.1548 151.079 65.1666 149.975C64.1784 148.871 57.2717 154.085 57.2717 154.085V149.368C57.2717 149.368 65.1132 147.024 66.989 139.303C68.8647 131.582 65.6622 115.037 64.9455 112.832C61.452 111.44 58.3214 109.271 55.7909 106.489Z" fill="white"/>
<path d="M218.28 78.3636C218.28 78.3636 214.641 93.9186 215.054 100.534C215.468 107.15 216.915 112.528 225.208 115.589L224.816 119.202C224.816 119.202 220.486 119.063 219.879 119.725C218.752 121.964 218.229 124.46 218.364 126.964C218.364 126.964 199.71 129.527 191.066 137.965L180.51 140.517L181.416 145.702C181.416 145.702 164.153 164.7 163.601 183.714H156.441C156.441 183.714 156.404 206.418 156.322 207.947C156.24 209.477 155.95 212.208 152.31 210.967C148.67 209.726 147.843 207.212 143.465 209.401C139.086 211.589 141.728 220.205 145.973 220.729C149.999 221.226 152.506 217.213 155.459 218.825C156.598 219.449 155.858 243.277 155.858 243.277L211.256 244.221V235.164C211.256 235.164 235.608 250.025 265.456 229.177L264.792 209.285C264.792 209.285 291.228 214.223 295.948 195.223C301.006 174.864 274.95 137.924 243.059 129.707C243.059 129.707 243.766 123.22 242.297 121.69C240.828 120.161 237.466 120.283 237.466 120.283L237.685 116.21C237.685 116.21 246.55 112.55 248.867 100.368C248.867 100.368 257.879 100.902 256.255 93.7509C254.932 87.9193 247.157 92.0414 247.157 92.0414C247.157 92.0414 248.755 81.5433 246.991 80.2577C245.226 78.9721 238.388 80.2394 237.065 79.8002C235.741 79.361 238.388 76.4635 238.388 76.4635C238.388 76.4635 230.439 78.4124 229.481 77.897C228.764 77.5112 229.675 75.3319 229.675 75.3319C229.675 75.3319 221.397 77.7018 218.28 78.3636Z" fill="white"/>
<path d="M185.529 165.719C185.529 165.719 200.082 164.975 205.624 153.641C211.165 142.307 207.278 134.121 207.278 134.121L180.508 140.573L185.529 165.719Z" fill="#FF7449"/>
<path d="M248.433 184.193L247.93 184.324C247.761 183.977 247.568 183.642 247.353 183.322C245.146 181.531 242.841 179.865 240.448 178.332C239.893 178.074 238.486 177.367 237.737 178.332C237.209 179.2 237.924 180.314 238.432 180.749C240.586 182.103 242.663 183.576 244.654 185.159L242.907 185.609C241.245 184.316 239.514 183.115 237.722 182.01C237.16 181.761 236.528 181.717 235.937 181.887C235.861 181.931 235.796 181.994 235.749 182.068C235.702 182.143 235.674 182.229 235.667 182.317C235.234 183.331 238.911 185.672 240.027 186.349L218.285 191.936C218.285 191.936 218.302 191.665 218.359 191.174C219.175 184.09 221.58 177.282 225.395 171.257C229.247 165.664 234.968 161.627 241.529 159.872C241.85 159.794 242.02 159.76 242.02 159.76L245.04 171.257C243.883 170.788 242.971 170.628 242.696 170.936C242.356 171.32 242.839 172.354 243.24 172.943C244.167 173.378 245.052 173.896 245.886 174.489L246.47 176.718C245.268 175.701 243.934 174.85 242.505 174.187C241.676 173.859 240.357 173.638 240.038 174.076C239.411 174.943 240.741 176.596 241.317 177.168C242.528 177.961 245.449 179.913 247.82 181.847L248.433 184.193Z" fill="#FFB949"/>
<path d="M156.441 184.029L184.045 214.363L212.242 185.779L156.441 184.029Z" fill="#FF7449"/>
<path d="M155.853 242.981L211.25 244.139L184.045 214.363L155.853 242.981Z" fill="#FF7449"/>
<path d="M146.553 209.041C147.379 212.637 147.177 216.393 145.969 219.879C147.438 220.094 148.934 219.749 150.161 218.914C152.261 217.892 154.821 216.66 156.099 218.619L155.854 242.981L97.4263 241.934L98.8857 182.867L123.896 183.37C124.219 183.531 124.502 183.762 124.725 184.046C125.901 185.586 124.509 187.994 123.505 189.666C122.48 191.386 121.8 192.517 122.516 194.286C126.001 193.417 129.658 193.513 133.093 194.566C133.648 191.973 131.396 189.333 130.88 187.246C130.51 185.736 130.609 184.31 131.968 183.535L156.43 184.031L156.16 211.066C155.872 211.524 155.442 211.876 154.936 212.068C154.43 212.261 153.876 212.284 153.356 212.134C151.208 211.598 149.121 208.798 146.553 209.041Z" fill="#FFB949"/>
<path d="M142.661 152.239L135.712 150.283C135.655 150.267 135.602 150.239 135.558 150.201C135.513 150.163 135.477 150.116 135.452 150.062C135.427 150.009 135.413 149.951 135.413 149.892C135.412 149.833 135.424 149.775 135.448 149.721L139.43 140.814C139.464 140.737 139.474 140.652 139.458 140.57C139.442 140.488 139.402 140.412 139.342 140.354C139.281 140.295 139.205 140.257 139.122 140.243C139.039 140.23 138.955 140.242 138.879 140.279L129.198 144.962C129.144 144.988 129.084 145.002 129.023 145.002C128.963 145.003 128.903 144.99 128.848 144.964C128.793 144.939 128.744 144.901 128.705 144.855C128.667 144.808 128.639 144.754 128.623 144.695L126.351 135.812C126.329 135.726 126.279 135.649 126.209 135.594C126.139 135.538 126.053 135.507 125.964 135.505C125.875 135.503 125.788 135.53 125.716 135.581C125.643 135.633 125.589 135.707 125.563 135.792L122.838 144.671C122.819 144.731 122.787 144.786 122.744 144.832C122.701 144.878 122.648 144.913 122.589 144.935C122.529 144.957 122.466 144.964 122.404 144.958C122.341 144.951 122.281 144.93 122.228 144.896L113.421 139.385C113.347 139.339 113.261 139.318 113.175 139.324C113.089 139.33 113.007 139.363 112.941 139.419C112.874 139.475 112.828 139.55 112.807 139.634C112.787 139.718 112.793 139.807 112.826 139.887L116.783 149.526C116.804 149.578 116.815 149.632 116.814 149.688C116.813 149.743 116.801 149.798 116.778 149.848C116.756 149.899 116.723 149.944 116.683 149.982C116.642 150.02 116.594 150.049 116.542 150.068L107.632 153.246C107.552 153.274 107.482 153.326 107.433 153.395C107.384 153.464 107.358 153.547 107.358 153.632C107.358 153.716 107.384 153.799 107.433 153.868C107.482 153.937 107.552 153.989 107.632 154.017L116.504 157.028C116.559 157.046 116.609 157.076 116.651 157.115C116.694 157.155 116.727 157.203 116.75 157.256C116.772 157.309 116.783 157.366 116.782 157.424C116.78 157.482 116.767 157.538 116.742 157.59L112.259 167.033C112.222 167.11 112.21 167.196 112.225 167.28C112.239 167.363 112.28 167.44 112.34 167.5C112.4 167.56 112.478 167.599 112.562 167.613C112.645 167.626 112.731 167.614 112.808 167.576L121.27 163.434C121.322 163.409 121.378 163.395 121.436 163.393C121.493 163.391 121.551 163.401 121.604 163.423C121.658 163.445 121.706 163.478 121.746 163.519C121.786 163.561 121.816 163.61 121.836 163.665L124.692 171.717C124.721 171.797 124.774 171.867 124.845 171.915C124.915 171.964 124.999 171.989 125.085 171.987C125.17 171.986 125.253 171.957 125.322 171.906C125.39 171.855 125.441 171.783 125.467 171.701L128.379 162.371C128.397 162.315 128.426 162.263 128.465 162.219C128.505 162.175 128.553 162.141 128.607 162.117C128.661 162.094 128.72 162.082 128.778 162.083C128.837 162.085 128.895 162.099 128.948 162.124L137.946 166.48C138.022 166.517 138.108 166.529 138.192 166.515C138.276 166.501 138.353 166.461 138.413 166.401C138.473 166.341 138.513 166.264 138.527 166.18C138.541 166.096 138.529 166.01 138.492 165.934L134.707 158.094C134.679 158.037 134.665 157.976 134.666 157.913C134.666 157.85 134.681 157.789 134.709 157.733C134.737 157.677 134.777 157.628 134.827 157.59C134.877 157.552 134.935 157.526 134.996 157.514L142.621 156.026C142.715 156.008 142.799 155.958 142.859 155.885C142.92 155.812 142.953 155.72 142.952 155.625V152.637C142.954 152.548 142.926 152.461 142.874 152.389C142.821 152.318 142.746 152.265 142.661 152.239Z" fill="#FFB949"/>
<path d="M46.5342 124.51C46.5674 124.772 46.6383 125.027 46.7427 125.26C46.8471 125.493 46.983 125.7 47.1426 125.868C47.3021 126.036 47.4822 126.162 47.6722 126.239C47.8623 126.316 48.0587 126.343 48.2501 126.317C48.4414 126.292 48.6239 126.214 48.787 126.09C48.9501 125.965 49.0905 125.796 49.2003 125.592C49.31 125.388 49.3868 125.153 49.4263 124.901C49.4657 124.649 49.467 124.384 49.4301 124.123C49.3953 123.862 49.3233 123.61 49.2183 123.379C49.1133 123.148 48.9773 122.944 48.8182 122.778C48.659 122.612 48.4797 122.487 48.2906 122.411C48.1015 122.335 47.9063 122.308 47.716 122.334C47.5258 122.359 47.3442 122.436 47.1818 122.559C47.0194 122.682 46.8792 122.849 46.7693 123.052C46.6594 123.254 46.582 123.486 46.5414 123.737C46.5008 123.987 46.4978 124.25 46.5327 124.51" fill="#501200"/>
<path d="M60.3535 122.204C60.3846 122.463 60.4533 122.715 60.5554 122.946C60.6575 123.177 60.791 123.382 60.9481 123.548C61.1052 123.715 61.2828 123.84 61.4705 123.917C61.6581 123.994 61.8521 124.02 62.0411 123.995C62.2301 123.969 62.4103 123.893 62.5711 123.769C62.732 123.646 62.8703 123.478 62.9779 123.276C63.0856 123.074 63.1605 122.841 63.1982 122.592C63.2359 122.342 63.2357 122.081 63.1976 121.823C63.1664 121.564 63.0978 121.312 62.9957 121.081C62.8936 120.85 62.7601 120.646 62.603 120.479C62.4458 120.312 62.2683 120.187 62.0806 120.11C61.8929 120.034 61.6989 120.007 61.5099 120.033C61.321 120.058 61.1408 120.135 60.9799 120.258C60.8191 120.381 60.6808 120.549 60.5731 120.751C60.4654 120.953 60.3905 121.186 60.3528 121.435C60.3151 121.685 60.3153 121.946 60.3535 122.204Z" fill="#501200"/>
<path d="M44.6995 131.496C44.6995 131.88 44.903 132.248 45.2654 132.52C45.6277 132.791 46.1192 132.943 46.6316 132.943C47.1441 132.943 47.6355 132.791 47.9979 132.52C48.3602 132.248 48.5638 131.88 48.5638 131.496C48.5638 131.112 48.3602 130.744 47.9979 130.473C47.6355 130.201 47.1441 130.049 46.6316 130.049C46.1192 130.049 45.6277 130.201 45.2654 130.473C44.903 130.744 44.6995 131.112 44.6995 131.496Z" fill="#FCCAC2"/>
<path d="M62.6856 129.765C62.7046 129.933 62.7699 130.094 62.8777 130.238C62.9855 130.382 63.1336 130.507 63.3134 130.604C63.4932 130.702 63.7011 130.77 63.925 130.806C64.1489 130.842 64.3843 130.844 64.6176 130.813C64.8508 130.782 65.0773 130.717 65.2837 130.624C65.4902 130.53 65.6725 130.409 65.8201 130.267C65.9677 130.126 66.0776 129.967 66.1435 129.799C66.2094 129.632 66.2298 129.46 66.2037 129.293C66.1847 129.124 66.1193 128.964 66.0116 128.82C65.9038 128.676 65.7557 128.551 65.5759 128.454C65.3961 128.356 65.1882 128.288 64.9643 128.252C64.7404 128.216 64.505 128.213 64.2717 128.245C64.0385 128.276 63.812 128.341 63.6056 128.434C63.3991 128.528 63.2168 128.649 63.0692 128.791C62.9216 128.932 62.8116 129.091 62.7458 129.258C62.6799 129.426 62.6595 129.598 62.6856 129.765Z" fill="#FCCAC2"/>
<path d="M219.441 97.2324C219.707 97.281 219.978 97.2905 220.237 97.2606C220.497 97.2306 220.741 97.1617 220.954 97.0579C221.167 96.9542 221.345 96.8175 221.478 96.6561C221.611 96.4947 221.697 96.3117 221.729 96.1178C221.761 95.9239 221.74 95.7231 221.667 95.5271C221.594 95.3311 221.47 95.1438 221.302 94.9762C221.135 94.8086 220.927 94.6641 220.691 94.5511C220.455 94.4381 220.196 94.3589 219.929 94.3181C219.661 94.2656 219.387 94.2528 219.124 94.2804C218.86 94.3081 218.613 94.3756 218.396 94.4791C218.179 94.5825 217.997 94.7197 217.862 94.8824C217.726 95.0451 217.639 95.23 217.606 95.426C217.574 95.622 217.595 95.8251 217.671 96.0232C217.746 96.2212 217.873 96.4102 218.044 96.5787C218.216 96.7472 218.428 96.8918 218.668 97.0039C218.908 97.1159 219.171 97.1931 219.441 97.2309" fill="#FCCAC2"/>
<path d="M236.76 98.515C236.771 98.7216 236.839 98.9223 236.959 99.1053C237.08 99.2883 237.25 99.45 237.46 99.5809C237.671 99.7118 237.917 99.8093 238.185 99.8676C238.453 99.9259 238.737 99.944 239.02 99.9206C239.304 99.8973 239.581 99.8331 239.835 99.7317C240.09 99.6304 240.317 99.494 240.504 99.3304C240.69 99.1669 240.832 98.9795 240.92 98.7793C241.009 98.579 241.043 98.37 241.021 98.1643C241.009 97.9577 240.942 97.757 240.821 97.574C240.701 97.391 240.531 97.2293 240.32 97.0984C240.11 96.9675 239.863 96.8701 239.596 96.8117C239.328 96.7534 239.044 96.7354 238.761 96.7587C238.477 96.782 238.2 96.8462 237.945 96.9476C237.691 97.0489 237.463 97.1854 237.277 97.3489C237.091 97.5125 236.949 97.6998 236.86 97.9001C236.772 98.1003 236.737 98.3094 236.76 98.515Z" fill="#FCCAC2"/>
<path d="M60.599 126.79C60.3337 126.366 56.6752 125.857 56.329 125.672C55.7983 123.428 55.4203 121.15 55.1975 118.854C55.1705 118.669 55.0723 118.502 54.9239 118.388C54.7754 118.274 54.5884 118.223 54.4028 118.246C54.2172 118.268 54.0476 118.362 53.9303 118.507C53.8129 118.653 53.7571 118.839 53.7747 119.025C54.1452 122.117 54.6897 125.939 55.2097 126.583C56.3729 127.131 57.6199 127.48 58.8987 127.615C58.3329 128.313 57.2989 129.445 56.3733 130.392C56.3076 130.459 56.2558 130.539 56.2208 130.626C56.1858 130.713 56.1684 130.806 56.1694 130.9C56.1705 130.994 56.19 131.087 56.227 131.173C56.2639 131.26 56.3175 131.338 56.3847 131.404C56.4519 131.47 56.5314 131.521 56.6186 131.556C56.7058 131.591 56.799 131.609 56.893 131.608C56.9869 131.607 57.0798 131.587 57.1662 131.55C57.2526 131.513 57.3308 131.46 57.3965 131.392C61.1038 127.598 60.8918 127.26 60.599 126.79Z" fill="#501200"/>
<path d="M53.2989 137.233C54.0817 137.419 54.8939 137.445 55.6871 137.31C56.4803 137.175 57.238 136.881 57.915 136.446C58.0647 136.336 58.1658 136.172 58.1968 135.989C58.2278 135.806 58.1865 135.617 58.0814 135.464C57.9763 135.311 57.8158 135.204 57.6337 135.167C57.4515 135.13 57.2621 135.165 57.1053 135.264C56.6161 135.587 56.0667 135.808 55.4901 135.912C54.9135 136.017 54.3217 136.004 53.7502 135.874C52.6827 135.516 52.2054 133.958 52.1155 133.387C52.0865 133.2 51.9843 133.031 51.8311 132.919C51.678 132.807 51.4865 132.76 51.2988 132.789C51.1111 132.818 50.9427 132.92 50.8304 133.073C50.7181 133.226 50.6713 133.418 50.7002 133.605C50.8303 134.367 51.1317 135.09 51.5819 135.718C52.0321 136.347 52.6192 136.865 53.2989 137.233Z" fill="#501200"/>
<path d="M43.6457 120.301C43.7986 120.413 43.9895 120.459 44.1766 120.431C44.3638 120.402 44.532 120.301 44.6446 120.149C45.1401 119.515 45.8261 119.058 46.6014 118.845C47.3766 118.631 48.1999 118.673 48.9497 118.964C49.1278 119.029 49.3247 119.021 49.497 118.942C49.6694 118.862 49.803 118.717 49.8685 118.539C49.934 118.361 49.9261 118.164 49.8464 117.992C49.7668 117.819 49.6219 117.686 49.4438 117.62C48.404 117.222 47.2634 117.17 46.1918 117.472C45.1202 117.775 44.1748 118.415 43.4963 119.298C43.4399 119.373 43.3991 119.459 43.3761 119.551C43.3531 119.642 43.3484 119.737 43.3623 119.83C43.3762 119.924 43.4084 120.013 43.457 120.094C43.5057 120.175 43.5698 120.245 43.6457 120.301Z" fill="#501200"/>
<path d="M57.0901 115.639C56.986 115.798 56.9491 115.991 56.9875 116.177C57.026 116.363 57.1367 116.526 57.2952 116.63C57.4538 116.734 57.6472 116.771 57.8329 116.732C58.0187 116.694 58.1816 116.583 58.2857 116.425C58.4853 116.129 58.742 115.877 59.0406 115.682C59.3393 115.487 59.6739 115.354 60.0247 115.29C60.3755 115.227 60.7355 115.234 61.0835 115.312C61.4315 115.39 61.7604 115.536 62.0509 115.743C62.2159 115.837 62.4115 115.861 62.5945 115.811C62.7776 115.761 62.9331 115.64 63.0269 115.475C63.1208 115.31 63.1452 115.114 63.0949 114.931C63.0445 114.748 62.9235 114.592 62.7585 114.499C62.3114 114.201 61.8102 113.995 61.2833 113.891C60.7565 113.788 60.2144 113.789 59.6881 113.895C59.1617 114.001 58.6614 114.209 58.2156 114.509C57.7698 114.808 57.3874 115.192 57.0901 115.639Z" fill="#501200"/>
<path d="M222.589 121.248C222.401 121.224 222.211 121.276 222.061 121.393C221.911 121.509 221.813 121.68 221.789 121.869L221.331 125.468C221.32 125.561 221.326 125.656 221.351 125.746C221.376 125.837 221.418 125.922 221.476 125.996C221.534 126.07 221.605 126.132 221.687 126.179C221.769 126.225 221.859 126.255 221.952 126.267C222.045 126.279 222.14 126.272 222.23 126.247C222.321 126.222 222.406 126.18 222.48 126.122C222.554 126.064 222.616 125.993 222.663 125.911C222.709 125.83 222.739 125.739 222.751 125.646L223.209 122.049C223.232 121.861 223.18 121.671 223.064 121.521C222.948 121.371 222.777 121.273 222.589 121.248Z" fill="#501200"/>
<path d="M225.468 121.247C225.375 121.237 225.28 121.246 225.19 121.273C225.1 121.299 225.016 121.344 224.943 121.403C224.869 121.462 224.809 121.536 224.764 121.618C224.719 121.701 224.691 121.792 224.681 121.886L224.309 125.483C224.297 125.668 224.356 125.851 224.475 125.993C224.594 126.135 224.764 126.225 224.948 126.245C225.132 126.265 225.317 126.212 225.464 126.099C225.61 125.985 225.707 125.819 225.734 125.636L226.106 122.037C226.116 121.943 226.108 121.848 226.081 121.757C226.055 121.667 226.011 121.582 225.951 121.509C225.892 121.435 225.819 121.374 225.736 121.329C225.653 121.284 225.562 121.256 225.468 121.247Z" fill="#501200"/>
<path d="M229.014 121.825C228.92 121.816 228.826 121.826 228.736 121.854C228.646 121.883 228.563 121.928 228.491 121.988C228.419 122.049 228.359 122.123 228.316 122.206C228.272 122.289 228.246 122.381 228.238 122.474L227.991 125.288C227.974 125.477 228.033 125.665 228.155 125.81C228.277 125.956 228.452 126.047 228.641 126.063C228.83 126.08 229.018 126.021 229.163 125.899C229.309 125.777 229.4 125.602 229.416 125.413L229.663 122.601C229.68 122.412 229.621 122.224 229.499 122.078C229.377 121.933 229.203 121.842 229.014 121.825Z" fill="#501200"/>
<path d="M234.472 122.153C234.283 122.148 234.099 122.218 233.961 122.348C233.823 122.479 233.743 122.658 233.737 122.848L233.655 125.806C233.65 125.996 233.72 126.18 233.85 126.318C233.981 126.456 234.161 126.536 234.35 126.541C234.54 126.547 234.724 126.476 234.862 126.346C235 126.216 235.08 126.036 235.085 125.846L235.168 122.889C235.173 122.699 235.102 122.515 234.972 122.377C234.842 122.239 234.662 122.159 234.472 122.153Z" fill="#501200"/>
<path d="M238.175 122.483C238.081 122.483 237.988 122.502 237.901 122.538C237.814 122.574 237.735 122.627 237.669 122.693C237.602 122.76 237.55 122.839 237.514 122.926C237.478 123.013 237.46 123.106 237.46 123.2V126.798C237.46 126.987 237.535 127.169 237.669 127.303C237.803 127.438 237.985 127.513 238.175 127.513C238.365 127.513 238.547 127.438 238.681 127.303C238.815 127.169 238.89 126.987 238.89 126.798V123.2C238.89 123.106 238.872 123.013 238.836 122.926C238.8 122.839 238.748 122.76 238.681 122.693C238.615 122.627 238.536 122.574 238.449 122.538C238.362 122.502 238.269 122.483 238.175 122.483Z" fill="#501200"/>
<path d="M224.904 91.9575C224.599 92.3555 224.349 92.6986 227.202 96.8848C227.309 97.0415 227.475 97.1491 227.662 97.184C227.848 97.2189 228.041 97.1782 228.198 97.0708C228.355 96.9634 228.462 96.7982 228.497 96.6114C228.532 96.4247 228.491 96.2317 228.384 96.075C227.664 95.0166 226.873 93.7646 226.456 93.0021C227.392 93.1706 228.349 93.1814 229.288 93.0341C229.767 92.8161 230.051 92.6849 231.161 84.9837L231.231 84.5048C231.251 84.3209 231.198 84.1365 231.085 83.9903C230.972 83.844 230.807 83.7471 230.624 83.72C230.441 83.6928 230.254 83.7374 230.104 83.8444C229.953 83.9515 229.849 84.1127 229.814 84.2944C229.622 85.6089 228.944 90.4157 228.535 91.7165C227.019 91.6937 225.433 91.2499 224.904 91.9575Z" fill="#501200"/>
<path d="M228.454 101.933C227.371 101.66 226.407 101.041 225.709 100.17C225.589 100.029 225.418 99.9401 225.233 99.9224C225.048 99.9048 224.864 99.9595 224.719 100.075C224.573 100.191 224.479 100.358 224.454 100.542C224.43 100.726 224.478 100.912 224.588 101.062C225.524 102.227 226.832 103.035 228.293 103.349C229.89 103.369 231.456 102.898 232.776 101.998C232.936 101.895 233.047 101.733 233.087 101.547C233.127 101.362 233.091 101.168 232.988 101.008C232.885 100.849 232.723 100.737 232.537 100.697C232.352 100.658 232.158 100.693 231.998 100.796C230.946 101.498 229.719 101.892 228.454 101.933Z" fill="#501200"/>
<path d="M235.446 90.4996C236.35 89.5741 237.531 88.969 238.81 88.7763C240.089 88.5836 241.397 88.8139 242.533 89.4321C242.703 89.5158 242.9 89.5285 243.079 89.4673C243.259 89.4061 243.407 89.276 243.491 89.1057C243.574 88.9355 243.587 88.7389 243.526 88.5593C243.465 88.3797 243.334 88.2318 243.164 88.148C241.745 87.3888 240.117 87.1158 238.528 87.3708C236.939 87.6259 235.478 88.395 234.368 89.5602C234.259 89.705 234.208 89.8858 234.227 90.0663C234.246 90.2468 234.332 90.4134 234.469 90.5326C234.606 90.6518 234.783 90.7147 234.964 90.7085C235.145 90.7024 235.318 90.6277 235.446 90.4996Z" fill="#501200"/>
<path d="M236.704 83.6432C237.525 83.2764 238.417 83.0977 239.316 83.1204C240.215 83.1431 241.098 83.3666 241.899 83.7744C242.06 83.8585 242.247 83.8782 242.422 83.8294C242.597 83.7807 242.747 83.6671 242.842 83.5118C242.936 83.3565 242.968 83.1711 242.93 82.9933C242.893 82.8154 242.789 82.6585 242.64 82.5544C241.636 82.0213 240.522 81.7261 239.385 81.6915C238.248 81.6569 237.118 81.8837 236.083 82.3546C235.915 82.4385 235.786 82.5853 235.726 82.7631C235.665 82.941 235.676 83.1356 235.758 83.305C235.839 83.4743 235.984 83.6047 236.161 83.668C236.338 83.7313 236.533 83.7224 236.704 83.6432Z" fill="#501200"/>
<path d="M221.831 81.8925C222.486 81.6838 223.182 81.6353 223.86 81.7513C224.537 81.8673 225.177 82.1442 225.726 82.5589C225.855 82.665 226.017 82.7223 226.183 82.7206C226.331 82.7206 226.475 82.6752 226.596 82.5904C226.716 82.5057 226.808 82.3857 226.858 82.2469C226.908 82.1082 226.914 81.9573 226.875 81.815C226.836 81.6727 226.755 81.5458 226.641 81.4518C225.901 80.8803 225.032 80.499 224.11 80.3411C223.188 80.1831 222.242 80.2535 221.354 80.5459C221.175 80.6102 221.029 80.7428 220.949 80.9146C220.868 81.0863 220.859 81.2831 220.923 81.4617C220.987 81.6402 221.12 81.7859 221.292 81.8667C221.463 81.9475 221.66 81.9568 221.839 81.8925H221.831Z" fill="#501200"/>
<path d="M218.786 86.0237C218.808 86.1151 218.849 86.2011 218.905 86.2768C218.96 86.3526 219.031 86.4165 219.111 86.465C219.192 86.5134 219.281 86.5455 219.374 86.5593C219.467 86.5731 219.562 86.5683 219.654 86.5453C220.643 86.3556 221.665 86.4626 222.594 86.8528C223.522 87.243 224.314 87.899 224.871 88.7382C224.978 88.8945 225.143 89.0017 225.33 89.0362C225.422 89.0532 225.517 89.0519 225.609 89.0323C225.701 89.0128 225.788 88.9752 225.866 88.922C225.943 88.8687 226.009 88.8007 226.06 88.7219C226.111 88.643 226.147 88.5549 226.164 88.4625C226.181 88.3701 226.179 88.2752 226.16 88.1833C226.14 88.0914 226.103 88.0043 226.049 87.9269C225.333 86.8419 224.307 85.9975 223.104 85.5034C221.902 85.0092 220.578 84.8882 219.306 85.156C219.215 85.1788 219.129 85.2194 219.054 85.2753C218.978 85.3313 218.914 85.4016 218.866 85.4821C218.818 85.5627 218.786 85.652 218.772 85.7449C218.758 85.8379 218.763 85.9326 218.786 86.0237Z" fill="#501200"/>
<path d="M250.461 96.685C250.637 96.6846 250.807 96.6194 250.938 96.502C251.303 96.1685 251.734 95.9155 252.204 95.7593C252.384 95.714 252.54 95.6001 252.638 95.4419C252.736 95.2837 252.769 95.0935 252.729 94.9116C252.69 94.7296 252.581 94.5703 252.426 94.4672C252.271 94.3642 252.082 94.3255 251.899 94.3594C251.186 94.5699 250.53 94.9385 249.979 95.4375C249.871 95.5348 249.796 95.6622 249.763 95.8031C249.73 95.9439 249.74 96.0915 249.792 96.2265C249.844 96.3615 249.936 96.4776 250.055 96.5594C250.174 96.6412 250.316 96.685 250.461 96.685Z" fill="#501200"/>
<path d="M108.278 213.55C108.278 216.043 108.771 218.512 109.727 220.815C110.683 223.119 112.085 225.212 113.853 226.975C115.62 228.737 117.718 230.136 120.027 231.09C122.336 232.044 124.811 232.535 127.31 232.535C129.81 232.535 132.284 232.044 134.594 231.09C136.903 230.136 139.001 228.737 140.768 226.975C142.535 225.212 143.937 223.119 144.894 220.815C145.85 218.512 146.342 216.043 146.342 213.55C146.342 208.515 144.337 203.686 140.768 200.126C137.199 196.566 132.358 194.566 127.31 194.566C122.263 194.566 117.422 196.566 113.853 200.126C110.283 203.686 108.278 208.515 108.278 213.55Z" fill="white"/>
<path d="M119.031 217.604C118.926 217.445 118.763 217.335 118.577 217.297C118.391 217.259 118.197 217.297 118.039 217.402C117.881 217.506 117.771 217.67 117.733 217.856C117.695 218.042 117.732 218.235 117.837 218.394C118.814 219.791 120.101 220.943 121.597 221.759C123.094 222.576 124.759 223.034 126.462 223.098C128.302 223.096 130.116 222.672 131.766 221.859C133.416 221.046 134.858 219.866 135.98 218.409C136.034 218.332 136.072 218.245 136.092 218.153C136.112 218.061 136.114 217.966 136.098 217.874C136.081 217.781 136.047 217.693 135.996 217.614C135.945 217.535 135.879 217.466 135.802 217.412C135.725 217.359 135.638 217.321 135.546 217.3C135.455 217.28 135.36 217.278 135.267 217.295C135.175 217.311 135.086 217.346 135.007 217.397C134.928 217.447 134.86 217.513 134.806 217.59C133.81 218.852 132.544 219.874 131.1 220.58C129.656 221.285 128.071 221.657 126.464 221.668C124.999 221.592 123.57 221.188 122.284 220.484C120.997 219.781 119.885 218.796 119.031 217.604Z" fill="#501200"/>
<path d="M132.663 212.841C132.853 212.841 133.035 212.766 133.169 212.632C133.303 212.498 133.378 212.316 133.378 212.126V207.08C133.378 206.89 133.303 206.708 133.169 206.574C133.035 206.44 132.853 206.365 132.663 206.365C132.474 206.365 132.292 206.44 132.157 206.574C132.023 206.708 131.948 206.89 131.948 207.08V212.128C131.948 212.317 132.024 212.498 132.158 212.632C132.292 212.766 132.474 212.841 132.663 212.841Z" fill="#501200"/>
<path d="M120.751 212.841C120.941 212.841 121.123 212.766 121.257 212.632C121.391 212.498 121.467 212.316 121.467 212.126V207.08C121.458 206.896 121.379 206.722 121.246 206.594C121.112 206.467 120.935 206.396 120.751 206.396C120.566 206.396 120.389 206.467 120.256 206.594C120.122 206.722 120.043 206.896 120.035 207.08V212.128C120.035 212.317 120.111 212.499 120.246 212.632C120.38 212.766 120.562 212.841 120.751 212.841Z" fill="#501200"/>
<path d="M297.335 186.422C296.436 167.033 269.149 134.104 243.533 129.012C243.655 127.351 243.864 123.2 243.055 121.462C242.858 121.041 242.396 120.727 241.554 120.443C240.4 120.112 239.223 119.873 238.031 119.728L238.281 116.783C240.796 115.823 242.934 114.079 244.381 111.81C258.645 107.069 261.58 86.9525 261.04 79.7713C260.43 71.6888 253.679 60.875 242.978 58.8422C232.749 56.8994 227.289 58.2658 227.289 59.6688C227.289 60.2574 229.441 60.5838 229.441 60.5838C229.441 60.5838 216.204 64.4695 211.739 71.5867C208.425 76.8586 213.64 76.2166 213.64 76.2166C213.64 76.2166 210.912 79.5899 212.982 80.2609C214.512 80.3403 216.044 80.1392 217.502 79.6676C212.012 103.381 213.653 112.303 224.578 115.928L224.184 118.766C222.645 118.657 221.097 118.741 219.579 119.016C218.086 119.821 217.749 124.181 217.682 126.566C207.501 127.968 197.796 131.759 189.361 137.63C189.208 137.723 190.224 137.477 180.607 139.785C180.321 139.852 180.073 140.029 179.916 140.278C179.76 140.527 179.709 140.828 179.773 141.114C179.941 141.877 180.273 143.393 180.688 145.265C165.583 161.071 163.141 181.141 162.908 183.451L157.266 183.279C157.302 179.865 157.478 161.917 157.478 160.842C157.515 160.479 157.466 160.113 157.335 159.772C157.205 159.432 156.996 159.127 156.726 158.882C156.303 158.595 155.808 158.434 155.297 158.418C154.786 158.403 154.282 158.532 153.842 158.792C145.898 162.62 143.333 157.613 143.943 154.065C144.823 148.932 150.501 149.316 152.5 151.431C152.882 151.961 153.387 152.391 153.971 152.683C154.555 152.975 155.202 153.121 155.855 153.109C157.712 152.88 157.888 150.364 157.868 148.588C157.868 148.393 157.781 132.904 157.745 127.148C157.741 126.854 157.623 126.573 157.415 126.365C157.208 126.156 156.927 126.037 156.633 126.032L116.123 125.529C115.87 120.568 113.211 120.719 112.81 120.76C112.604 120.378 112.318 120.044 111.972 119.782C111.626 119.519 111.228 119.333 110.804 119.236C110.381 119.14 109.941 119.135 109.516 119.222C109.09 119.309 108.688 119.486 108.336 119.742C107.976 119.385 107.547 119.107 107.075 118.924C106.603 118.741 106.098 118.657 105.592 118.678C105.087 118.699 104.59 118.824 104.135 119.045C103.68 119.266 103.274 119.578 102.945 119.963C100.615 119.43 99.8296 122.555 98.6294 122.976C98.6294 122.976 93.9629 124.608 94.3594 127.551C94.7133 129.012 95.5512 130.311 96.7369 131.235C95.9067 131.292 95.0869 131.453 94.2969 131.714C94.1745 131.761 94.0672 131.84 93.9865 131.943C93.9059 132.047 93.855 132.17 93.8394 132.3L89.2278 171.383C84.9097 167.031 79.9528 163.363 74.5283 160.506C75.7483 159.116 80.0702 153.889 80.4377 149.452C81.2932 139.082 75.4723 133.134 73.5996 129.598C70.208 123.2 70.2903 107.069 65.4363 101.969C61.7991 98.1445 57.4682 97.2615 54.5386 98.7088C54.8727 97.8334 55.4446 97.0686 56.1899 96.5007C56.9351 95.9327 57.8241 95.5841 58.7568 95.4941C58.945 95.4706 59.1163 95.3733 59.2328 95.2236C59.3494 95.0739 59.4017 94.884 59.3782 94.6957C59.3548 94.5075 59.2575 94.3362 59.1077 94.2197C58.958 94.1031 58.7681 94.0508 58.5799 94.0743C57.3176 94.1969 56.1202 94.6915 55.1393 95.4954C54.1584 96.2993 53.4382 97.3762 53.0701 98.5898C50.9015 97.0069 43.8179 92.99 33.6705 98.7698C24.4717 104.005 22.9955 116.623 23.3005 120.44C23.8023 126.575 25.3151 131.618 24.5526 136.183C23.7901 140.747 18.7896 149.348 16.7034 155.245C13.08 165.49 16.3435 171.659 17.4659 173.344C14.3412 178.608 8.99908 189.074 7.87821 200.719C6.98761 209.996 8.56141 218.144 12.624 222.699C13.9577 224.243 15.6087 225.481 17.4643 226.329C19.32 227.177 21.3366 227.615 23.3768 227.612L22.7104 236.941C22.6449 237.546 22.7556 238.157 23.0291 238.7C23.3026 239.244 23.7273 239.697 24.2521 240.005C53.921 255.465 83.2696 241.289 87.9559 238.679C88.6024 238.32 89.1113 237.757 89.4031 237.077C89.6948 236.398 89.7528 235.641 89.5679 234.925C87.1172 225.48 84.3691 211.481 82.2174 199.749C84.9746 201.996 91.0197 206.45 97.4079 208.123L96.6195 241.498C96.6154 241.646 96.6407 241.793 96.6938 241.931C96.747 242.07 96.8269 242.196 96.9291 242.303C97.0313 242.411 97.1537 242.497 97.2893 242.557C97.4248 242.616 97.5709 242.649 97.719 242.652L210.962 245.007C211.26 245.005 211.546 244.887 211.756 244.676C211.967 244.466 212.086 244.181 212.088 243.883L211.83 236.271C240.866 249.818 265.763 229.775 265.914 229.682C266.018 229.614 266.103 229.521 266.16 229.411C266.217 229.302 266.245 229.179 266.241 229.055L265.698 210.037C274.376 211.38 284.66 210.54 291.106 204.568C295.597 200.406 297.698 194.296 297.335 186.422ZM219.025 79.2803C223.373 78.1396 228.37 76.4621 228.37 76.4621C228.37 76.4621 227.504 78.1152 228.764 78.6138C230.023 79.1125 236.808 77.6195 236.808 77.6195C236.808 77.6195 235.14 79.4068 235.983 80.2578C236.976 81.2597 244.793 79.8933 245.909 81.092C247.434 82.7237 245.287 91.6007 246.532 92.7582C247.395 93.568 248.265 92.1406 251.259 91.433C254.184 90.7452 258.283 94.3305 254.269 98.2955C252.384 100.156 248.752 99.2242 248.56 99.8937C244.639 113.544 237.467 115.543 237.427 115.555C237.285 115.594 237.159 115.675 237.065 115.787C236.97 115.9 236.913 116.039 236.9 116.185L236.617 119.54C233.247 119.144 229.038 118.883 225.637 118.788L225.978 116.33C227.155 116.629 228.352 116.841 229.56 116.965C229.741 116.962 229.914 116.891 230.045 116.766C230.176 116.64 230.255 116.47 230.265 116.289C230.275 116.108 230.217 115.93 230.101 115.791C229.986 115.651 229.822 115.561 229.642 115.537C214.95 113.887 213.014 104.118 219.025 79.2803ZM232.093 128.771C233.197 132.64 237.683 148.326 237.897 149.116C237.968 149.573 238.137 150.009 238.392 150.395C238.648 150.78 238.984 151.106 239.377 151.349C239.77 151.593 240.211 151.748 240.67 151.804C241.129 151.861 241.595 151.817 242.036 151.677C243.115 151.196 244.059 150.455 244.781 149.52C245.647 148.423 246.812 147.601 248.136 147.152C255.038 145.474 255.589 154.579 253.4 156.465C252.827 156.959 251.591 158.329 247.309 157.685C245.98 157.408 244.603 157.465 243.302 157.85C241.191 158.641 241.27 160.442 241.777 162.66C242.207 164.569 243.119 167.788 243.581 169.388C240.4 169.388 241.09 171.65 241.377 172.438C240.485 172.336 237.311 172.613 238.968 176.403C238.053 176.276 235.048 176.493 236.733 180.342C236.459 180.284 236.176 180.282 235.902 180.336C235.627 180.39 235.366 180.5 235.135 180.658C234.904 180.817 234.708 181.02 234.558 181.257C234.408 181.494 234.307 181.758 234.263 182.035C234.031 183.226 234.992 184.534 237.516 186.355L212.716 192.583C212.794 190.044 212.869 187.603 212.933 185.672C212.938 185.482 212.868 185.298 212.738 185.16C212.608 185.022 212.428 184.941 212.239 184.935L188.016 184.203C189.827 181.715 192.133 173.958 189.251 173.446C188.969 173.392 188.678 173.41 188.405 173.499C188.351 171.393 186.704 170.879 185.333 172.031C184.912 170.629 183.334 170.018 181.673 171.807C181.481 171.511 181.191 171.293 180.854 171.189C178.666 170.539 176.952 174.172 175.852 176.203C172.85 172.391 174.265 168.471 177.153 167.306C177.865 168.651 179.12 169.974 180.531 169.373C180.797 169.237 181.022 169.033 181.183 168.781C181.344 168.529 181.435 168.239 181.446 167.941C182.072 168.041 182.711 168.014 183.326 167.861C183.941 167.709 184.519 167.434 185.025 167.053C186.689 165.704 186.084 163.114 185.684 161.4C185.504 160.638 186.142 163.494 181.246 141.098L232.093 128.771ZM244.642 186.994C245.232 187.503 246.015 188.054 245.88 188.536C245.496 189.073 242.972 188.217 240.339 186.541L240.023 186.352C238.907 185.669 235.23 183.334 235.663 182.32C236.433 180.533 244.073 186.508 244.642 186.994ZM245.467 185.821C243.262 183.997 240.937 182.324 238.505 180.815C237.876 180.289 237.325 179.005 237.953 178.279C238.455 177.699 239.805 178.074 240.518 178.361C242.883 179.893 245.164 181.549 247.354 183.322C247.755 183.915 248.673 185.587 248.38 186.201C248.27 186.434 246.898 186.355 245.467 185.821ZM248.229 182.189C246.02 180.388 243.712 178.713 241.316 177.17C240.74 176.598 239.41 174.945 240.037 174.077C240.355 173.64 241.674 173.861 242.504 174.189C243.933 174.851 245.266 175.703 246.469 176.72C247.703 177.705 248.867 178.775 249.951 179.923C250.315 180.479 250.85 181.644 250.576 182.14C250.417 182.43 249.28 182.447 248.229 182.189ZM243.239 172.944C242.838 172.356 242.355 171.322 242.695 170.937C242.969 170.632 243.881 170.785 245.039 171.259C246.193 171.747 247.29 172.36 248.31 173.089C250.111 174.397 251.624 176.062 252.752 177.981C253.293 179.09 251.957 179.078 250.882 178.832C248.693 176.443 246.107 174.451 243.238 172.944H243.239ZM178.697 182.622C178.471 182.503 178.512 181.538 178.765 180.696C180.239 178.527 181.36 176.139 182.087 173.62C182.544 172.876 183.375 171.993 183.796 172.168C184.017 172.263 184.11 173.101 183.988 173.83C183.271 176.366 182.216 178.794 180.851 181.048C180.01 181.992 178.969 182.695 178.697 182.622ZM177.566 179.903C177.385 180.208 176.629 180.992 176.156 181.036C176.099 181.042 176.042 181.035 175.989 181.014C175.936 180.993 175.888 180.96 175.851 180.917C175.74 180.81 175.29 180.078 177.502 176.168C177.946 175.364 179.538 172.299 180.43 172.569C180.588 172.767 180.681 173.008 180.697 173.26C180.015 175.627 178.958 177.87 177.566 179.903ZM182.094 181.759C183.529 179.404 184.633 176.864 185.374 174.208C185.788 173.518 186.471 172.81 186.787 172.871C186.801 172.874 186.815 172.88 186.826 172.889C186.838 172.899 186.847 172.911 186.852 172.924C187.023 173.722 186.97 174.552 186.7 175.322C186.485 176.501 184.646 181.201 184.193 182.328C183.665 183.072 182.695 184.037 182.151 184.029C181.628 184.01 181.951 182.267 182.094 181.759ZM188.063 175.767C188.19 175.473 188.606 174.794 188.978 174.852C189.365 175.175 189.195 177.634 188.441 179.932C187.848 181.762 186.666 184.15 186.001 184.15C185.588 184.043 185.532 183.185 185.536 182.832C185.837 182.07 187.522 177.841 188.063 175.767ZM177.858 164.265C178.01 163.692 178.905 163.692 179.592 165.264C180.013 166.135 180.136 167.121 179.944 168.069C179.599 168.185 179.125 167.775 178.532 166.863C178.047 166.086 177.812 165.18 177.858 164.265ZM181.06 146.957C182.291 152.564 184.226 161.464 184.287 161.734C184.627 163.178 185.089 165.161 184.119 165.946C183.731 166.221 183.29 166.412 182.823 166.506C182.356 166.599 181.875 166.594 181.411 166.49C181.318 165.87 181.148 165.264 180.905 164.686C180.214 163.11 178.849 161.967 177.423 162.704C176.241 163.294 176.234 164.718 176.61 165.98C175.486 166.452 174.522 167.238 173.833 168.244C173.145 169.25 172.761 170.434 172.728 171.653C172.769 173.768 173.561 175.801 174.962 177.387C175.022 177.453 175.094 177.507 175.174 177.547C174.332 179.366 173.919 181.054 174.869 181.955C175.163 182.239 175.543 182.417 175.949 182.461C176.355 182.505 176.765 182.414 177.114 182.201C177.126 182.407 177.197 183.555 178.076 183.906L164.34 183.494C166.116 169.912 171.942 157.179 181.06 146.957ZM114.889 127.197C114.804 129.216 113.945 130.186 113.712 130.031C113.885 127.438 113.758 124.835 113.335 122.272C113.46 122.325 115.093 122.546 114.889 127.197ZM113.507 131.524C115.679 132.355 116.17 127.037 116.17 126.964L156.314 127.463C156.348 132.28 156.433 148.409 156.438 148.608C156.462 150.65 156.348 151.619 155.619 151.631C153.301 151.642 152.721 147.802 147.631 148.633C141.52 149.63 140.677 158.088 145.724 160.805C149.281 162.724 151.913 160.849 154.249 160.159C155.469 159.796 155.811 159.983 155.869 160.028C156.134 160.227 156.087 160.005 155.832 183.252C151.84 183.186 138.359 182.974 135.266 182.925C134.546 182.829 133.813 182.89 133.119 183.103C132.424 183.316 131.784 183.677 131.242 184.161C130.096 185.602 130.981 187.949 131.852 189.571C132.821 191.047 133.261 192.808 133.099 194.566C129.709 193.265 125.975 193.166 122.522 194.287C121.357 191.508 124.387 189.338 125.085 186.225C125.263 185.686 125.241 185.101 125.022 184.576C124.804 184.052 124.404 183.624 123.896 183.371C123.04 183.012 122.12 182.834 121.192 182.848C121.004 182.838 103.175 182.361 99.4361 182.283L100.606 132.898C100.879 132.847 101.132 132.721 101.338 132.535C102.698 131.283 100.767 129.027 99.4239 127.757C100.013 127.017 101.301 125.819 102.177 126.079C102.614 126.211 103.278 128.137 103.538 129.195C105.028 135.225 107.526 132.3 107.604 132.1C109.082 134.95 110.451 132.75 110.468 132.73C110.845 133.038 112.202 134.558 113.507 131.524ZM155.799 205.875C155.828 207.772 155.593 211.199 153.709 210.738C151.948 210.302 149.592 207.306 146.408 207.614C146.33 207.623 146.255 207.638 146.184 207.647C145.302 204.802 143.792 202.191 141.764 200.009C139.736 197.828 137.242 196.131 134.468 195.045C134.981 193.152 133.872 190.424 133.14 188.934C132.785 188.286 132.497 187.604 132.282 186.898C132.06 186.001 131.815 184.353 135.242 184.353C138.347 184.353 151.91 184.62 155.852 184.681C155.828 188.528 155.75 202.75 155.799 205.875ZM127.533 199.078C130.67 199.078 132.899 198.117 133.938 196.374C136.503 197.377 138.81 198.942 140.689 200.956C142.568 202.969 143.971 205.379 144.794 208.007C143.601 208.547 142.58 209.404 141.841 210.485C141.102 211.566 140.675 212.829 140.606 214.136C140.536 215.444 140.828 216.745 141.448 217.898C142.069 219.051 142.994 220.011 144.123 220.674C142.91 223.491 141.007 225.958 138.592 227.848C136.176 229.739 133.324 230.992 130.298 231.493C127.271 231.994 124.168 231.726 121.272 230.715C118.376 229.703 115.78 227.981 113.724 225.705C111.667 223.429 110.215 220.673 109.502 217.689C108.788 214.706 108.835 211.591 109.639 208.631C110.443 205.671 111.978 202.96 114.102 200.747C116.227 198.535 118.873 196.892 121.799 195.969C122.417 196.926 123.266 197.713 124.268 198.257C125.27 198.801 126.393 199.085 127.533 199.081V199.078ZM123.283 195.571C126.34 194.877 129.525 194.982 132.53 195.876C131.402 197.364 129.058 197.634 127.533 197.634C126.716 197.632 125.909 197.447 125.174 197.091C124.438 196.735 123.792 196.219 123.283 195.58V195.571ZM145.165 209.392C145.914 212.683 145.734 216.118 144.645 219.313C143.802 218.765 143.119 218.004 142.663 217.108C142.207 216.212 141.995 215.211 142.048 214.207C142.101 213.203 142.416 212.231 142.963 211.387C143.51 210.544 144.27 209.859 145.165 209.401V209.392ZM110.881 120.676C112.341 121.279 112.583 125.933 112.583 127.769C112.583 130.853 112.341 131.867 111.834 131.905C110.796 131.905 111.131 127.001 110.919 125.683C110.737 123.974 110.168 122.329 109.256 120.873C109.497 120.726 109.767 120.633 110.047 120.599C110.328 120.565 110.612 120.592 110.881 120.676ZM106.001 119.978C107.711 120.236 109.343 123.441 109.661 126.137C109.98 128.834 110.172 131.876 109.408 131.867C107.862 131.974 107.808 126.04 107.326 124.574C106.728 123.007 105.701 121.639 104.362 120.628C104.806 120.211 105.392 119.979 106.001 119.978ZM95.7838 127.365C95.1585 125.822 99.1174 124.329 99.1174 124.329C100.61 123.8 101.452 121.439 102.495 121.347C103.453 121.257 105.371 123.312 105.977 125.049C106.505 126.551 106.806 131.12 106.189 131.786C105.588 130.864 105.157 129.841 104.917 128.767C104.299 126.775 103.767 125.058 102.597 124.705C102.384 124.642 102.163 124.61 101.94 124.611C99.976 124.611 98.1277 127.001 97.8578 127.572C97.792 127.713 97.774 127.871 97.8065 128.022C97.839 128.174 97.9202 128.31 98.0377 128.411C99.4849 129.675 100.795 131.098 100.377 131.483C99.6984 131.913 97.0937 130.604 95.77 127.365H95.7838ZM95.4788 142.069L96.223 135.042C96.2432 134.853 96.3375 134.68 96.4853 134.561C96.633 134.442 96.822 134.387 97.0106 134.407C97.1993 134.427 97.3722 134.521 97.4913 134.669C97.6105 134.817 97.666 135.006 97.6458 135.194L96.9016 142.222C96.8814 142.41 96.787 142.583 96.6393 142.702C96.4916 142.821 96.3026 142.877 96.1139 142.857C95.9253 142.837 95.7523 142.742 95.6332 142.594C95.5141 142.447 95.4585 142.258 95.4788 142.069ZM35.3801 120.44C35.3801 120.44 53.1219 114.845 56.207 107.895C58.541 110.248 61.3259 112.105 64.3947 113.355C64.3947 113.355 67.0619 127.749 66.9872 132.215C66.9186 135.986 66.9872 151.324 48.5164 148C48.3381 147.946 48.146 147.964 47.9808 148.05C47.8157 148.136 47.6905 148.283 47.632 148.46C47.5734 148.637 47.586 148.829 47.6672 148.997C47.7483 149.164 47.8916 149.293 48.0665 149.357C50.8778 150.116 53.8177 150.272 56.6934 149.815V153.766C56.4189 154.04 54.833 155.268 51.3224 158.62C50.1161 155.651 48.0101 151.41 46.328 152.297C45.4207 152.776 44.9418 155.463 46.8923 162.841C45.5106 162.734 42.7656 161.978 41.2894 157.917C42.8846 156.735 46.5446 153.148 45.8949 145.535C45.0638 135.858 40.5986 134.148 38.5322 131.614C37.2658 130.069 36.3321 128.279 35.7897 126.356C35.2473 124.433 35.1078 122.419 35.3801 120.44ZM57.3721 158.743C57.5474 159.048 57.9699 159.259 58.252 159.048C62.1545 156.203 61.9333 159.238 59.7526 160.235C59.6759 160.287 59.6109 160.354 59.5618 160.433C59.5127 160.512 59.4806 160.6 59.4676 160.691C59.4545 160.783 59.4608 160.877 59.4859 160.966C59.5111 161.055 59.5547 161.138 59.6138 161.209C59.7173 161.362 59.8765 161.467 60.0571 161.503C60.2377 161.539 60.4252 161.503 60.5791 161.402C63.1472 159.597 63.6429 161.212 61.6588 162.432C61.5205 162.531 61.4217 162.675 61.38 162.84C61.3383 163.004 61.3565 163.178 61.4313 163.331C61.5061 163.483 61.6327 163.604 61.7883 163.671C61.944 163.739 62.1186 163.749 62.2811 163.7C65.1069 162.6 65.1892 165.225 58.8528 168.203C57.0416 168.937 55.5529 170.295 54.6561 172.031C52.9169 171.445 51.1631 170.904 49.3963 170.408C49.5597 169 49.5336 167.576 49.3186 166.175C47.5313 160.206 46.4714 154.89 46.8115 153.711C47.5602 154.109 49.192 157.02 50.3739 160.125C50.4159 160.236 50.485 160.335 50.575 160.413C50.6649 160.491 50.7728 160.545 50.8889 160.571C51.005 160.596 51.1257 160.592 51.24 160.56C51.3543 160.527 51.4586 160.466 51.5435 160.383C57.4133 154.623 63.2982 150.075 64.3749 150.415C64.6036 151.237 61.4133 154.701 57.5398 157.827C57.4072 157.935 57.3175 158.086 57.2871 158.254C57.2566 158.423 57.2873 158.596 57.3736 158.743H57.3721ZM56.5013 175.75C56.6693 175.838 56.7956 175.989 56.8528 176.17C56.9099 176.351 56.8932 176.547 56.8063 176.716L54.4868 181.265C54.3973 181.428 54.2475 181.551 54.0693 181.606C53.891 181.661 53.6982 181.644 53.532 181.56C53.3658 181.475 53.2392 181.328 53.1792 181.152C53.1191 180.975 53.1303 180.782 53.2104 180.613L55.5299 176.066C55.5725 175.981 55.6317 175.905 55.7038 175.843C55.776 175.781 55.8598 175.734 55.9503 175.705C56.0409 175.675 56.1363 175.664 56.2312 175.672C56.326 175.68 56.4183 175.706 56.5028 175.75H56.5013ZM51.7891 175.852L49.5854 180.164C49.4987 180.333 49.3482 180.461 49.1672 180.519C48.9862 180.577 48.7894 180.561 48.6201 180.475C48.4508 180.388 48.323 180.238 48.2646 180.056C48.2063 179.875 48.2222 179.679 48.309 179.509L50.5172 175.198C50.5592 175.113 50.6177 175.037 50.6894 174.975C50.761 174.913 50.8444 174.865 50.9345 174.835C51.0247 174.806 51.1198 174.794 51.2145 174.802C51.3091 174.809 51.4013 174.835 51.4858 174.879C51.5702 174.922 51.6451 174.982 51.7062 175.055C51.7673 175.127 51.8133 175.211 51.8415 175.302C51.8697 175.393 51.8796 175.488 51.8706 175.582C51.8616 175.677 51.8339 175.769 51.7891 175.852ZM22.0424 226.109C10.9282 225.154 8.22133 211.984 9.29341 200.861C10.852 184.655 25.8702 156.21 39.891 158.287C41.7805 163.625 45.7257 164.249 47.2796 164.278C47.4794 165.002 48.7848 167.828 47.9918 170.033C47.3239 169.865 46.6818 169.717 46.0886 169.6C45.7561 169.535 45.4116 169.575 45.103 169.715C44.7944 169.855 44.5371 170.088 44.3669 170.381C43.0295 172.687 34.093 188.071 27.6346 198.651C28.4932 188.864 29.6262 180.299 29.6384 180.199C29.6545 180.015 29.599 179.832 29.4835 179.688C29.368 179.544 29.2013 179.45 29.0183 179.426C28.8352 179.401 28.6499 179.449 28.501 179.558C28.352 179.667 28.2509 179.829 28.2187 180.011C28.2065 180.116 26.8462 190.416 25.9693 201.353C24.243 204.138 22.8003 206.386 21.896 207.647C21.7852 207.801 21.7401 207.993 21.7707 208.18C21.8013 208.368 21.9051 208.535 22.0592 208.646C22.2133 208.757 22.4051 208.802 22.5924 208.771C22.7797 208.741 22.9472 208.637 23.0581 208.483C25.9327 204.483 33.8551 191.165 39.615 181.356C40.9189 182.207 44.8579 184.04 55.7907 185.507C47.1775 212.071 39.3359 227.594 22.0424 226.109ZM47.2583 174.5L44.8183 178.965C44.7243 179.125 44.5719 179.242 44.3933 179.291C44.2146 179.341 44.0237 179.319 43.8608 179.231C43.6978 179.143 43.5755 178.994 43.5197 178.818C43.4639 178.641 43.479 178.449 43.5617 178.283L46.0017 173.812C46.0929 173.646 46.2465 173.522 46.4286 173.469C46.6108 173.416 46.8067 173.437 46.9731 173.528C47.1395 173.62 47.2629 173.773 47.3161 173.955C47.3693 174.137 47.348 174.333 47.2568 174.5H47.2583ZM30.0685 233.041L28.911 238.281C28.8935 238.376 28.8573 238.466 28.8043 238.546C28.7514 238.626 28.683 238.695 28.603 238.748C28.523 238.801 28.4332 238.838 28.3388 238.855C28.2444 238.873 28.1475 238.872 28.0536 238.851C27.9598 238.831 27.8711 238.792 27.7926 238.736C27.7142 238.681 27.6477 238.61 27.5971 238.529C27.5465 238.447 27.5128 238.356 27.498 238.261C27.4832 238.166 27.4877 238.069 27.5111 237.976L28.6731 232.736C28.6931 232.645 28.731 232.558 28.7846 232.481C28.8381 232.404 28.9063 232.338 28.9853 232.288C29.0642 232.237 29.1524 232.203 29.2447 232.186C29.337 232.169 29.4317 232.171 29.5233 232.191C29.6149 232.211 29.7017 232.249 29.7787 232.303C29.8557 232.356 29.9213 232.424 29.972 232.503C30.0226 232.582 30.0572 232.671 30.0737 232.763C30.0903 232.855 30.0885 232.95 30.0685 233.041ZM35.5371 234.554L34.4895 240.567C34.4733 240.66 34.4391 240.748 34.3888 240.828C34.3384 240.907 34.273 240.976 34.1961 241.03C34.1192 241.084 34.0324 241.123 33.9406 241.143C33.8489 241.164 33.754 241.166 33.6614 241.15C33.5688 241.134 33.4802 241.1 33.4008 241.049C33.3214 240.999 33.2527 240.933 33.1986 240.856C33.1445 240.78 33.1061 240.693 33.0855 240.601C33.065 240.509 33.0627 240.414 33.0788 240.322L34.125 234.309C34.16 234.124 34.2664 233.96 34.4211 233.853C34.5759 233.746 34.7665 233.704 34.952 233.736C35.1374 233.768 35.3027 233.872 35.4122 234.025C35.5217 234.178 35.5666 234.368 35.5371 234.554ZM41.8842 241.999C41.8668 242.188 41.7752 242.362 41.6294 242.483C41.4837 242.604 41.2959 242.663 41.1072 242.645C40.9185 242.628 40.7445 242.536 40.6234 242.39C40.5022 242.245 40.444 242.057 40.4614 241.868L41.0088 235.966C41.0282 235.779 41.1208 235.606 41.2665 235.486C41.4123 235.366 41.5995 235.309 41.7874 235.326C41.9753 235.343 42.1488 235.434 42.2703 235.579C42.3918 235.723 42.4514 235.909 42.4362 236.098L41.8842 241.999ZM47.8393 242.432C47.8241 242.621 47.7346 242.796 47.5905 242.919C47.4464 243.041 47.2594 243.102 47.0707 243.087C46.882 243.071 46.7071 242.982 46.5844 242.838C46.4617 242.694 46.4013 242.507 46.4165 242.318L46.8587 236.857C46.8663 236.764 46.8923 236.673 46.9351 236.589C46.9778 236.506 47.0366 236.432 47.1081 236.371C47.1795 236.31 47.2622 236.264 47.3514 236.236C47.4407 236.207 47.5347 236.196 47.6281 236.204C47.7215 236.211 47.8125 236.237 47.8959 236.28C47.9793 236.323 48.0535 236.381 48.1142 236.453C48.1748 236.524 48.2209 236.607 48.2496 236.696C48.2783 236.785 48.2892 236.879 48.2816 236.973L47.8393 242.432ZM53.9088 242.376C53.9088 242.566 53.8334 242.748 53.6993 242.882C53.5652 243.016 53.3833 243.091 53.1936 243.091C53.0039 243.091 52.822 243.016 52.6878 242.882C52.5537 242.748 52.4784 242.566 52.4784 242.376V236.915C52.4784 236.725 52.5537 236.543 52.6878 236.409C52.822 236.275 53.0039 236.2 53.1936 236.2C53.3833 236.2 53.5652 236.275 53.6993 236.409C53.8334 236.543 53.9088 236.725 53.9088 236.915V242.376ZM60.3138 243.091C60.1371 243.09 59.967 243.024 59.8359 242.906C59.7048 242.787 59.6219 242.625 59.6031 242.449L59.0343 236.988C59.0141 236.799 59.0697 236.611 59.1888 236.463C59.3079 236.315 59.4808 236.221 59.6695 236.2C59.8582 236.18 60.0472 236.236 60.1949 236.355C60.3426 236.474 60.4369 236.647 60.4571 236.836L61.0306 242.295C61.0407 242.396 61.0294 242.498 60.9974 242.594C60.9655 242.69 60.9137 242.778 60.8453 242.852C60.7769 242.927 60.6935 242.986 60.6006 243.026C60.5077 243.066 60.4074 243.086 60.3062 243.085L60.3138 243.091ZM66.8545 241.917C66.7624 241.936 66.6674 241.936 66.5751 241.918C66.4827 241.9 66.3949 241.864 66.3165 241.812C66.2381 241.76 66.1708 241.693 66.1184 241.615C66.066 241.537 66.0296 241.45 66.0112 241.357L64.965 236.172C64.9465 236.08 64.9463 235.985 64.9645 235.893C64.9826 235.801 65.0187 235.713 65.0708 235.635C65.1228 235.557 65.1898 235.489 65.2678 235.437C65.3458 235.385 65.4334 235.348 65.5255 235.33C65.6176 235.311 65.7125 235.311 65.8047 235.329C65.8969 235.347 65.9846 235.383 66.0628 235.435C66.1411 235.487 66.2083 235.554 66.2607 235.632C66.313 235.71 66.3495 235.798 66.368 235.89L67.4142 241.075C67.4328 241.168 67.4328 241.263 67.4143 241.356C67.3958 241.448 67.3591 241.536 67.3063 241.615C67.2535 241.693 67.1858 241.76 67.1069 241.812C67.0281 241.864 66.9397 241.899 66.8469 241.917H66.8545ZM73.4471 239.675C73.3562 239.698 73.2615 239.703 73.1686 239.69C73.0758 239.676 72.9865 239.645 72.9059 239.596C72.8254 239.548 72.7552 239.485 72.6994 239.409C72.6436 239.334 72.6033 239.248 72.5809 239.157L71.3121 234.056C71.266 233.871 71.295 233.676 71.3928 233.513C71.4907 233.35 71.6492 233.232 71.8336 233.186C72.0181 233.14 72.2133 233.169 72.3763 233.267C72.5393 233.365 72.6568 233.523 72.7029 233.708L73.9625 238.815C74.0047 238.998 73.9736 239.191 73.8759 239.351C73.7782 239.512 73.6216 239.628 73.4395 239.675H73.4471ZM79.4846 237.603C79.3028 237.655 79.1077 237.633 78.9421 237.541C78.7765 237.45 78.6541 237.296 78.6016 237.115L77.0552 231.765C77.0237 231.673 77.0111 231.576 77.0182 231.479C77.0253 231.383 77.052 231.289 77.0967 231.202C77.1414 231.116 77.2031 231.04 77.2781 230.979C77.3531 230.917 77.4398 230.872 77.533 230.845C77.6261 230.818 77.7238 230.81 77.82 230.822C77.9162 230.834 78.009 230.866 78.0927 230.915C78.1764 230.964 78.2492 231.029 78.3068 231.107C78.3644 231.185 78.4056 231.274 78.4277 231.369L79.9741 236.715C79.9999 236.806 80.0075 236.901 79.9964 236.995C79.9854 237.089 79.9559 237.18 79.9097 237.262C79.8635 237.345 79.8015 237.417 79.7273 237.476C79.653 237.534 79.5679 237.577 79.477 237.603H79.4846ZM84.3478 235.504C84.2578 235.532 84.1631 235.542 84.0694 235.533C83.9756 235.524 83.8845 235.496 83.8015 235.452C83.7185 235.407 83.6452 235.346 83.5858 235.273C83.5264 235.2 83.4822 235.116 83.4557 235.025L81.7995 229.564C81.7447 229.382 81.7645 229.186 81.8544 229.019C81.9444 228.851 82.0971 228.726 82.2791 228.672C82.4611 228.617 82.6575 228.636 82.8249 228.726C82.9924 228.816 83.1172 228.969 83.172 229.151L84.8282 234.612C84.8548 234.703 84.8633 234.798 84.8532 234.892C84.8431 234.986 84.8145 235.077 84.7692 235.16C84.7239 235.242 84.6627 235.315 84.589 235.375C84.5154 235.434 84.4308 235.478 84.3402 235.504H84.3478ZM97.4399 206.656C90.0666 204.603 83.0027 198.586 81.8117 197.535C79.8521 186.733 78.4781 178.352 78.4491 178.177C78.4363 178.082 78.4047 177.99 78.3559 177.908C78.3072 177.825 78.2424 177.754 78.1655 177.697C78.0885 177.64 78.0008 177.599 77.9077 177.576C77.8146 177.554 77.718 177.551 77.6235 177.566C77.5291 177.582 77.4387 177.616 77.3578 177.667C77.2769 177.719 77.2071 177.786 77.1525 177.864C77.0979 177.943 77.0597 178.032 77.0401 178.125C77.0206 178.219 77.02 178.316 77.0385 178.41C81.1468 203.647 83.965 216.767 85.5586 224.129C72.0441 235.34 38.9181 237.11 24.7584 228.297L24.8072 227.631C33.0422 227.463 39.5357 223.283 45.0501 214.644C50.4898 206.121 54.7918 193.904 60.387 175.694C60.511 175.294 60.4766 174.863 60.2909 174.488C60.1053 174.113 59.7826 173.824 59.3896 173.681C58.2747 173.275 57.1563 172.878 56.0347 172.491C56.4357 170.381 58.8086 169.746 60.2284 168.998C61.1846 168.499 66.6578 165.033 65.7657 163.026C65.6 162.715 65.3502 162.458 65.0449 162.283C64.7395 162.107 64.391 162.022 64.0394 162.036C64.2163 161.754 65.1358 159.059 62.3756 159.244C62.4712 159.015 62.5085 158.766 62.484 158.52C62.4595 158.273 62.374 158.037 62.2353 157.832C66.3787 158.47 77.2992 161.243 89.0311 173.194L88.1267 180.856C88.1123 180.951 88.1171 181.048 88.1408 181.141C88.1646 181.233 88.2068 181.321 88.2649 181.397C88.3231 181.473 88.396 181.537 88.4793 181.585C88.5626 181.632 88.6546 181.663 88.7499 181.674C88.8452 181.685 88.9417 181.677 89.0339 181.65C89.126 181.623 89.2117 181.578 89.2861 181.518C89.3604 181.457 89.4217 181.382 89.4665 181.297C89.5112 181.212 89.5385 181.119 89.5465 181.024L93.8318 144.706C95.5095 144.98 97.2043 145.138 98.9039 145.177L97.4399 206.656ZM155.245 242.42L98.0453 241.234L99.4072 183.714C105.649 183.845 120.91 184.283 121.134 184.278C123.646 184.251 123.841 185.243 123.69 185.911C123.026 188.861 119.696 191.186 121.146 194.688C118.012 195.717 115.186 197.515 112.925 199.918C110.665 202.321 109.043 205.252 108.208 208.443C107.372 211.634 107.35 214.984 108.143 218.186C108.936 221.388 110.518 224.341 112.746 226.774C114.974 229.206 117.776 231.042 120.896 232.113C124.016 233.184 127.355 233.456 130.607 232.903C133.86 232.351 136.922 230.993 139.514 228.953C142.106 226.912 144.145 224.254 145.445 221.223C148.756 222.138 150.887 219.591 153.847 219.03C153.992 218.981 154.147 218.969 154.298 218.996C154.448 219.023 154.59 219.087 154.71 219.182C155.098 219.698 155.284 220.338 155.233 220.982C155.233 220.982 155.245 238.698 155.245 242.42ZM210.642 243.573L156.677 242.452C156.677 238.756 156.689 222.231 156.665 221.024C156.711 220.494 156.645 219.96 156.471 219.457C156.297 218.953 156.019 218.493 155.655 218.104C154.283 216.901 151.963 218.035 150.165 218.914C148.936 219.745 147.442 220.089 145.973 219.879C147.181 216.393 147.384 212.637 146.557 209.041C149.124 208.799 151.236 211.603 153.372 212.132C153.892 212.283 154.447 212.26 154.953 212.067C155.459 211.875 155.888 211.523 156.177 211.065C157.013 209.462 157.382 207.656 157.244 205.854C157.196 202.746 157.273 188.582 157.298 184.713C282.31 188.481 72.1493 182.134 211.489 186.349C211.374 189.965 210.879 205.613 210.961 207.113C210.945 208.026 211.285 208.908 211.907 209.575C212.529 210.242 213.386 210.642 214.298 210.69C217.996 210.842 218.353 207.752 222.735 208.166C223.725 208.317 224.636 208.794 225.324 209.523C226.011 210.251 226.435 211.188 226.528 212.186C227.022 214.836 226.115 217.637 224.511 218.438C221.532 219.908 217.444 217.316 213.738 217.791C213.28 217.807 212.832 217.93 212.43 218.151C212.028 218.372 211.684 218.685 211.426 219.063C210.145 221.278 210.644 243.573 210.644 243.573H210.642ZM211.816 234.624C211.816 234.624 211.248 221.499 212.553 219.92C212.719 219.718 212.925 219.55 213.156 219.428C213.388 219.305 213.642 219.229 213.903 219.205C217.297 218.77 221.547 221.493 225.13 219.716C229.538 217.54 229.224 207.335 222.851 206.738C218.077 206.296 217.221 209.364 214.336 209.262C213.784 209.222 213.27 208.967 212.904 208.553C212.538 208.138 212.348 207.597 212.376 207.045C212.332 206.194 212.49 200.088 212.67 194.082L231.192 189.431C242.849 201.739 259.252 208.745 264.244 209.784L264.784 228.701C262.495 230.084 238.865 248.003 211.823 234.624H211.816ZM266.703 208.742C254.913 207.217 241.365 197.199 232.823 189.015L238.942 187.482C239.166 187.421 238.942 187.357 239.568 187.747C241.72 189.12 245.633 191.113 247.16 189.297C247.302 189.052 247.369 188.771 247.353 188.488C247.337 188.205 247.239 187.934 247.07 187.706C250.321 187.996 249.72 184.728 249.273 183.796C249.697 183.83 250.122 183.755 250.508 183.578C250.894 183.402 251.228 183.129 251.48 182.787C251.731 182.445 251.89 182.044 251.943 181.623C251.996 181.202 251.94 180.774 251.781 180.38C252.191 180.421 252.606 180.368 252.993 180.225C253.38 180.082 253.729 179.853 254.015 179.555C256.93 180.958 268.376 186.206 278.993 187.497H279.08C279.261 187.495 279.435 187.425 279.566 187.3C279.698 187.175 279.777 187.004 279.787 186.823C279.798 186.642 279.74 186.464 279.625 186.324C279.509 186.184 279.345 186.093 279.165 186.07C274.257 185.38 269.436 184.171 264.784 182.462L264.186 170.805C264.185 170.708 264.164 170.613 264.126 170.525C264.087 170.437 264.03 170.358 263.96 170.292C263.89 170.226 263.807 170.175 263.717 170.142C263.626 170.109 263.53 170.095 263.434 170.1C263.338 170.105 263.244 170.129 263.157 170.172C263.071 170.214 262.994 170.273 262.931 170.346C262.868 170.419 262.82 170.504 262.79 170.595C262.761 170.687 262.75 170.784 262.759 170.879L263.323 181.931C258.748 180.229 255.282 178.576 254.268 178.082C253.72 175.822 249.693 171.407 245.183 169.778C244.926 168.908 243.678 164.604 243.167 162.342C242.557 159.651 243.135 159.445 243.802 159.189C245.893 158.388 253.658 161.093 255.448 155.512C257.571 148.893 252.718 144.532 247.904 145.732C244.628 146.546 243.222 149.781 241.589 150.307C241.39 150.386 241.176 150.423 240.961 150.413C240.747 150.404 240.537 150.35 240.345 150.254C239.81 149.898 239.429 149.353 239.277 148.729C239.061 147.927 234.713 132.716 233.383 128.082C233.304 127.802 233.12 127.565 232.868 127.419C232.617 127.273 232.32 127.231 232.038 127.301L193.324 136.687C202.506 130.055 217.877 127.964 218.334 127.89C218.711 127.83 219.097 127.629 219.097 127.223C218.925 124.852 219.313 122.474 220.231 120.281C225.203 119.533 240.555 120.739 241.774 122.098C242.428 123.595 242.194 127.955 242.048 129.517C242.031 129.695 242.082 129.874 242.19 130.017C242.298 130.16 242.456 130.257 242.632 130.29C267.699 134.812 295.023 167.524 295.899 186.477C296.728 204.35 284.086 210.9 266.704 208.742H266.703Z" fill="#501200"/>
</svg>
