<svg width="290" height="290" viewBox="0 0 290 290" fill="none" xmlns="http://www.w3.org/2000/svg">
<path d="M282.75 49.5016V67.9529C282.735 70.9993 281.525 73.9181 279.38 76.0817C277.235 78.2452 274.327 79.4807 271.281 79.5224H227.595L226 38.0321H271.281C274.323 38.0329 277.239 39.2415 279.39 41.3923C281.541 43.5431 282.75 46.4599 282.75 49.5016Z" fill="#FFB949"/>
<path d="M53.0556 79.5224C50.0138 79.5221 47.0967 78.3135 44.9458 76.1627C42.795 74.0118 41.5864 71.0947 41.5861 68.0529V49.5016C41.5864 46.4599 42.795 43.5428 44.9458 41.3919C47.0967 39.241 50.0138 38.0325 53.0556 38.0321C225.862 38.0321 226 37.587 226 38.8296L227.595 79.5224H53.0556Z" fill="#FCCAC2"/>
<path d="M227.595 79.025C226.785 79.025 226.309 79.0366 225.501 38.731C225.501 38.6654 225.514 38.6003 225.539 38.5396C225.564 38.479 225.6 38.4238 225.647 38.3774C225.693 38.331 225.748 38.2943 225.809 38.2694C225.87 38.2444 225.935 38.2318 226 38.2322C226.066 38.232 226.131 38.2448 226.191 38.2698C226.252 38.2948 226.307 38.3315 226.353 38.3779C226.4 38.4242 226.436 38.4793 226.461 38.5399C226.486 38.6005 226.499 38.6654 226.499 38.731C227.36 81.4973 228.361 79.025 227.595 79.025Z" fill="white"/>
<path d="M267.591 59.7749C267.591 59.3964 267.637 59.4225 267.491 59.2761C260.546 51.3011 260.642 51.0633 260.11 51.5911C259.646 52.0565 259.768 51.897 266.094 59.1717C239.682 59.4762 239.664 59.2021 239.664 59.9692C239.664 60.7362 239.664 60.4738 265.994 60.1693L260.11 66.5493C260.04 66.6105 259.991 66.6914 259.968 66.7813C259.946 66.8708 259.952 66.9646 259.984 67.051C260.016 67.1378 260.074 67.2128 260.15 67.2657C260.226 67.3186 260.316 67.3469 260.409 67.3468C260.9 67.354 267.525 59.7749 267.591 59.7749Z" fill="white"/>
<path d="M237.071 197.213L236.273 202.997L224.802 201.402L229.091 212.173L223.706 214.268L219.417 203.496L212.235 212.672L207.647 209.081L214.829 199.906L203.36 198.309L204.157 192.525L215.627 194.22L211.338 183.448L216.724 181.254L221.013 192.026L228.194 182.949L232.782 186.541L225.601 195.617L237.071 197.213Z" fill="#FF7449"/>
<path d="M217.123 228.929L216.326 234.713L204.855 233.218L209.344 243.989L203.957 246.184L199.47 235.512L192.488 244.688L187.8 241.196L194.882 231.922L183.412 230.425L184.11 224.74L195.581 226.236L191.192 215.464L196.478 213.271L200.966 223.943L208.048 214.767L212.636 218.257L205.554 227.533L217.123 228.929Z" fill="#FF7449"/>
<path d="M188.499 213.569L186.305 218.856L175.533 214.567L177.128 226.036L171.344 226.835L169.847 215.364L160.672 222.446L157.081 217.858L166.257 210.777L155.485 206.389L157.679 201.002L168.451 205.391L166.856 193.922L172.64 193.123L174.136 204.594L183.312 197.412L186.902 202L177.727 209.182L188.499 213.569Z" fill="#FF7449"/>
<path d="M87.4643 59.5748L86.6668 65.2602L75.1973 63.6638L79.4864 74.4358L74.0997 76.5311L69.8106 65.8591L62.6302 74.9346L58.0424 71.3444L65.2228 62.2674L53.7533 60.5724L54.5508 54.8869L66.0217 56.4834L61.7326 45.7113L67.1179 43.5175L71.407 54.2895L78.5889 45.2125L83.1767 48.8042L75.9948 57.8797L87.4643 59.5748Z" fill="#FF7449"/>
<path d="M129.853 59.5749L129.054 65.2603L117.483 63.6639L121.874 74.4359L116.489 76.5312L112.2 65.8592L105.018 74.9347L100.43 71.3445L107.612 62.2675L96.1422 60.5725L96.9397 54.887L108.409 56.4835L104.12 45.7114L109.507 43.5176L113.795 54.2896L120.976 45.2126L125.464 48.8043L118.382 57.8798L129.852 59.5749H129.853Z" fill="#FF7449"/>
<path d="M177.927 79.6226L177.128 85.4067L165.658 83.8117L169.947 94.4837L164.562 96.6775L160.273 85.9055L153.091 95.0811L148.503 91.4909L155.685 82.3153L144.216 80.7203L145.013 74.9348L156.483 76.6298L152.193 65.8592L157.58 63.6639L161.868 74.436L169.05 65.2604L173.638 68.8506L166.456 78.0262L177.927 79.6226Z" fill="#FF7449"/>
<path d="M167.453 83.1125C166.636 82.2947 165.484 83.7055 164.761 84.6089C161.585 88.579 160.489 96.1117 160.273 96.9759C159.071 96.3756 163.124 80.7011 162.866 78.1259C162.866 77.4169 161.545 76.5048 159.475 80.3198C157.62 83.8193 156.468 87.6483 156.084 91.5906C156.084 92.6535 155.046 100.563 155.286 91.1919C155.444 84.9931 157.77 76.7035 156.383 75.9321C155.286 75.4333 153.989 78.4246 153.69 78.9234C150.31 87.2638 151.171 96.0784 150.5 96.0784C149.901 95.8797 150.195 92.3882 150.201 91.9894C150.28 85.7051 152.778 77.4096 151.297 76.6295C150.093 75.9944 148.584 79.7427 148.107 81.0187C146.724 84.7117 146.113 88.6495 146.312 92.5882C146.408 94.3833 147.559 98.9682 147.609 101.065C147.609 101.265 142.74 93.8932 142.123 95.0808C140.514 98.1823 150.3 112.938 149.105 114.73C152.77 117.546 156.236 120.611 159.478 123.905C161.877 122.466 163.936 117.021 164.465 114.231C166.147 105.366 162.813 100.634 166.659 89.0966C167.04 87.9381 168.318 83.9767 167.453 83.1125Z" fill="white"/>
<path d="M119.779 80.62C116.887 82.5731 114.77 85.4586 114.494 84.2102C114.314 81.8757 115.045 80.9245 115.491 79.2236C118.438 67.9948 121.694 62.1818 120.179 61.1711C118.396 59.9821 112.622 71.3356 111.501 74.137C111.202 74.7344 110.503 78.0259 109.806 78.226C109.081 78.516 115.19 60.6578 113.496 59.1759C112.287 57.9666 107.815 66.323 106.115 74.137C106.007 74.6329 105.717 77.7272 105.218 78.0259C105.218 67.8759 107.235 61.0609 105.125 61.0609C103.772 61.5119 102.776 65.6502 102.351 66.9871C99.138 77.1371 100.6 79.0221 99.5774 80.7287C99.4005 80.9071 99.1032 78.835 99.0336 78.4203C97.7286 65.3935 94.5386 72.1708 95.8436 80.5156C96.7601 86.5564 97.2269 92.6568 97.24 98.7667C100.133 98.8668 107.513 99.4656 110.705 99.9644C110.916 99.5425 130.78 73.1902 119.779 80.62Z" fill="white"/>
<path d="M96.8398 116.725C96.8717 114.171 91.0296 118.987 90.0625 118.02C87.7816 115.088 86.5825 111.245 83.6738 104.855C83.4084 104.304 83.1764 103.739 82.9778 103.16H82.5776C83.6738 118.82 66.5203 117.622 62.4226 128.892C57.1707 120.138 49.2421 123.581 49.4567 131.985C49.7061 141.668 61.8397 140.154 62.2239 140.86C65.3356 146.582 65.4139 158.514 63.2215 166.393C72.8553 166.393 80.2184 163.302 81.0739 163.302C81.0739 153.133 89.5042 153.752 92.1447 148.341C95.4507 141.566 92.8436 134.276 93.541 127.397C93.4482 125.8 96.7905 120.715 96.8398 116.725Z" fill="white"/>
<path d="M79.9835 121.712C79.2536 121.766 78.5712 122.094 78.0732 122.631C77.5752 123.167 77.2985 123.872 77.2985 124.604C77.2985 125.336 77.5752 126.04 78.0732 126.577C78.5712 127.113 79.2536 127.441 79.9835 127.496C80.7393 127.479 81.4585 127.167 81.987 126.626C82.5156 126.086 82.8115 125.36 82.8115 124.604C82.8115 123.848 82.5156 123.122 81.987 122.581C81.4585 122.041 80.7393 121.729 79.9835 121.712Z" fill="#FCCAC2"/>
<path d="M82.4775 103.26C82.2553 100.497 81.6512 97.7782 80.6824 95.1809C76.7587 84.2914 46.4928 85.7371 35.6019 92.5883C17.2811 104.11 11.3361 118.216 8.57244 134.279C7.06009 143.053 6.23939 152.604 9.66864 160.814C10.5821 163.002 15.4541 169.591 15.2526 169.791C11.4637 176.374 13.6938 185.187 16.1516 189.34C21.1338 197.75 27.6892 198.683 29.7149 200.709C29.3161 202.205 28.8173 203.702 28.3185 205.197C26.1435 209.738 26.6148 215.492 31.0112 218.762C31.8116 219.356 33.9112 220.059 33.7053 221.354C33.1253 224.949 26.9294 227.154 24.5282 229.434C21.0062 232.79 24.6631 235.814 29.7149 236.115C30.1136 236.115 31.51 236.017 31.8101 236.315C32.1088 236.714 28.6201 238.985 31.0126 239.707C35.5758 241.084 42.4415 233.459 41.1844 224.247C41.0858 223.051 40.368 221.646 40.8857 220.457C41.3671 219.352 42.8765 218.953 43.8785 218.363C48.7302 215.503 49.0419 211.581 47.0685 209.083C46.7582 208.691 45.1835 207.488 45.4735 206.988C46.2869 205.6 50.7457 204.775 52.0565 203.798C54.4819 201.828 56.4255 199.331 57.739 196.497C59.0525 193.662 59.7012 190.565 59.6356 187.442C59.1571 180.757 53.94 180.058 54.0531 179.562C54.4185 177.927 57.6984 177.988 61.5308 170.785C66.0562 162.281 65.5908 147.15 62.2297 140.963C61.8454 140.257 50.1657 141.755 49.4697 132.086C48.9738 125.248 56.4819 118.971 62.4356 128.896C66.4187 117.721 83.5838 118.917 82.476 103.26H82.4775Z" fill="#FFB949"/>
<path d="M167.753 82.7138C165.499 80.4605 162.098 87.6627 161.17 90.7932C162.24 83.2996 164.547 77.5663 162.467 77.0284C159.422 76.2439 156.408 85.8429 155.884 89.1968C156.72 81.2479 158.881 74.2371 155.785 75.3333C153.9 75.9974 152.38 81.4697 151.895 83.4127C152.282 81.2841 152.208 80.1908 152.393 79.8225C152.594 78.7249 152.792 76.8297 151.695 76.2309C148.374 75.1245 144.59 87.1972 146.409 96.2786C146.608 97.2762 146.808 98.2738 146.908 99.1699C145.603 97.4052 142.52 92.8856 141.621 94.6821C140.057 97.8127 147.566 109.2 148.703 113.732C146.18 112.891 139.876 133.343 111.601 149.837C115.092 138.268 114.593 101.262 112.798 99.9688C112.785 99.969 112.772 99.9666 112.76 99.9616C112.748 99.9566 112.736 99.9493 112.727 99.9399C112.718 99.9306 112.71 99.9195 112.705 99.9073C112.701 99.8951 112.698 99.882 112.698 99.8688C112.426 99.7858 112.16 99.686 111.901 99.5701C114.254 96.1684 126.318 80.8651 123.469 78.7249C121.384 77.533 115.998 83.2576 115.291 83.6114C115.189 82.5137 115.397 81.4074 115.89 80.4214C116.2 79.6456 118.065 73.0887 120.179 66.758C123.559 58.3045 119.077 56.7023 112.204 72.0433C112.872 68.6981 116.649 58.4785 113.5 58.4785C112.224 58.4785 110.049 62.9271 109.513 64.0639C106.149 71.1689 105.966 76.7152 106.518 70.3482C106.917 65.7488 107.533 60.2751 105.822 60.2751C102.883 60.2751 99.9353 74.5387 99.9353 77.43C99.6801 75.3772 99.2518 73.3497 98.655 71.369C98.2679 70.5179 97.7328 70.354 97.1427 70.5483C93.9527 71.9635 96.3452 82.3789 96.6439 87.3031C96.9672 92.5782 97.0571 96.9688 97.1427 98.1781C96.6149 98.1781 95.9464 98.0751 95.9464 98.5768C94.1237 108.421 91.4586 116.245 91.4586 117.228C91.0816 117.401 90.6757 117.502 90.2609 117.527C88.3672 115.092 87.2783 110.712 83.9679 103.427C83.6562 102.743 82.4788 102.347 82.9529 103.533C83.2922 104.396 84.2405 106.4 84.9829 108.151C86.3315 111.35 87.3812 115.355 89.5693 118.126C90.5045 119.528 96.1726 115.652 96.7497 116.231C96.4533 118.909 95.6762 121.513 94.4558 123.916C93.3654 126.441 92.8608 127.236 93.1595 132.592C87.751 133.6 87.722 129.982 86.4779 130.399C85.5223 130.876 87.809 134.499 93.2596 133.589C93.2596 135.536 94.5356 142.532 91.9632 147.951C89.6432 152.837 80.6358 153.136 80.7982 162.712C75.247 164.5 69.4738 165.508 63.6447 165.705C63.3055 165.715 63.3373 166.087 63.2242 166.559C60.3387 175.934 54.8519 177.64 54.4677 179.268C54.3734 179.67 59.5108 180.37 60.0531 187.147C60.1507 190.276 59.5162 193.384 58.2001 196.224C56.884 199.064 54.9227 201.557 52.4725 203.505C51.0805 204.507 46.5884 205.3 45.8895 206.695C45.3472 207.598 49.6073 209.107 48.485 213.278C47.2148 217.981 42.1543 218.284 41.3017 220.159C40.597 221.711 42.7111 224.251 41.2016 230.433C40.3244 234.027 36.2209 240.887 31.4286 239.408C29.1376 238.702 32.5248 236.317 32.2261 236.018C31.4489 235.241 30.2222 236.752 25.443 234.522C23.0505 233.125 23.123 230.911 24.9457 229.135C27.3135 226.815 33.5456 224.651 34.1213 221.057C34.4765 218.841 29.0202 219.253 27.7413 212.879C26.7988 208.181 28.5562 206.335 30.1352 200.409C29.8017 200.075 25.0472 197.799 23.4232 196.946C20.5319 202.929 18.8948 248.652 20.761 250.277C25.8983 254.751 101.533 249.275 105.138 245.589C106.153 244.558 104.113 201.705 103.842 201.705C121.894 190.334 146.425 161.105 151.815 150.839C153.317 147.978 163.692 126.914 162.587 125.805C162.088 125.206 161.291 124.409 160.393 123.411C161.118 123.411 164.296 117.991 165.081 113.737C166.386 106.659 164.585 98.8552 166.177 92.2925C166.851 89.4244 169.269 84.4466 167.753 82.7138ZM110.504 99.47C107.213 98.9712 100.731 98.4724 97.7444 98.2738C97.6444 96.876 97.6342 95.2824 97.5458 93.5859C96.799 79.2773 97.176 89.5172 96.0493 77.1284C96.0493 73.6818 96.1161 71.9316 97.047 71.543C97.743 71.543 98.842 79.3353 98.842 80.1212C98.842 81.4436 99.8135 81.5712 100.038 81.1188C100.821 79.8646 100.372 77.1313 100.637 76.3338C100.992 73.5788 103.331 61.9049 105.225 61.2741C106.004 62.0513 105.025 71.3255 105.025 74.6373C105.025 75.967 104.517 78.9873 105.824 78.329C106.626 77.8462 107.02 74.6243 107.02 74.14C108.869 66.5144 112.54 59.8328 113.603 59.4776C114.818 60.9986 109.131 78.0463 109.713 78.6277C110.8 79.7138 111.715 76.3556 112.007 75.2376C113.022 71.3386 118.975 61.4728 120.186 61.4728C121.738 61.4728 111.965 84.8178 114.799 84.8178C115.832 85.231 116.877 83.2996 120.285 81.0275C122.38 79.6311 122.88 79.8312 122.88 79.8312C122.88 79.8312 122.99 79.9327 122.88 80.4286C121.804 85.202 117.154 90.5612 112.005 97.7822C111.215 98.877 110.822 99.47 110.504 99.47ZM164.865 92.5883C162.757 100.169 165.155 107.257 163.767 114.131C163.247 116.711 161.486 121.281 159.5 123.188C159.465 122.734 149.705 114.488 149.705 114.331C149.705 112.223 144.389 102.773 143.421 99.8688C143.348 99.7238 142.087 96.7092 142.425 95.5797C143.92 97.0667 145.257 98.7047 146.414 100.468C147.297 101.674 147.311 101.664 147.71 101.564C148.333 101.252 148 100.012 147.311 96.2786C145.426 86.0242 149.715 77.5576 151.001 77.1284C152.562 77.1284 147.43 98.2636 151.001 96.4772C152.025 95.7102 150.952 81.3668 155.988 76.3309C157.118 76.3309 153.342 94.3298 154.99 95.9799C155.09 96.0799 155.291 96.1785 155.389 96.0799C155.888 95.9799 156.088 95.7798 156.387 91.8894C156.387 89.2301 159.324 77.9259 162.172 77.9259C163.593 77.9259 157.967 96.2206 160.077 97.2762C160.132 97.3241 160.203 97.3505 160.276 97.3505C160.35 97.3505 160.42 97.3241 160.476 97.2762C161.608 96.1423 160.428 92.7362 164.166 86.204C165.977 83.0415 167.832 81.8163 166.959 85.3079C166.954 85.798 165.165 91.495 164.865 92.5883Z" fill="#501200"/>
<path d="M53.8532 130.887C55.5349 131.228 57.1298 131.906 58.5411 132.882C58.647 132.885 58.751 132.854 58.8377 132.793C58.9245 132.732 58.9894 132.645 59.0228 132.544C59.0563 132.444 59.0566 132.335 59.0236 132.234C58.9906 132.134 58.9262 132.046 58.8398 131.985C57.443 130.819 55.7526 130.06 53.9533 129.79C53.0441 129.79 53.3182 130.887 53.8532 130.887Z" fill="#501200"/>
<path d="M84.5728 119.019C85.9793 119.019 84.7425 115.026 84.2727 113.732C83.6506 112.488 81.7816 112.342 82.8763 115.627C83.7884 118.364 84.0537 119.019 84.5728 119.019Z" fill="#501200"/>
<path d="M26.2262 181.25C28.0343 181.25 35.4438 186.453 39.3922 190.326C39.7228 190.652 40.7943 190.213 40.1897 189.628C38.7323 188.18 37.165 186.846 35.5018 185.639C35.7425 185.397 35.2118 185.388 36.8982 184.044C36.9968 183.944 37.0954 183.943 37.1969 183.844C41.992 179.284 45.1791 179.862 44.6789 178.858C44.1815 177.373 35.4279 183.331 34.7029 185.142C25.3895 178.37 25.5026 180.893 26.2262 181.25Z" fill="#501200"/>
<path d="M41.0874 207.386C41.679 207.096 40.9729 206.103 40.4886 206.587C39.2055 207.437 38.0327 208.442 36.997 209.58C33.791 203.165 32.937 206.888 34.0056 206.888C35.7412 208.976 37.1225 211.334 38.0946 213.869C38.3846 214.436 39.3764 214.138 39.0922 213.569C38.6889 212.512 38.2241 211.48 37.7002 210.478C38.5753 209.199 39.7347 208.141 41.0874 207.386Z" fill="#501200"/>
<path d="M197.78 110.84C196.591 107.758 196.42 106.635 195.785 106.951C195.177 107.152 195.376 107.36 196.883 111.238C202.427 125.527 202 125.701 202.767 125.701C203.886 125.701 203.519 125.724 197.78 110.84Z" fill="#501200"/>
<path d="M200.567 99.7688C200.567 99.9138 221.536 138.767 222.21 138.767C222.303 138.764 222.394 138.739 222.476 138.693C222.557 138.647 222.625 138.581 222.674 138.502C222.724 138.423 222.753 138.333 222.759 138.24C222.765 138.147 222.748 138.054 222.709 137.969C215.148 125.757 200.567 95.5855 200.567 99.7688Z" fill="#501200"/>
<path d="M223.905 113.632C209.824 101.519 210.312 101.162 210.141 101.162C207.663 101.162 212.974 105.569 223.207 114.328C223.517 114.641 224.396 114.124 223.905 113.632Z" fill="#501200"/>
<path d="M102.386 201.591C100.253 202.986 97.9598 204.12 95.5566 204.971C94.3966 205.449 94.9128 206.055 95.8176 205.919C97.9636 205.593 103.146 202.413 103.323 202.294C103.853 201.957 103.868 200.634 102.386 201.591Z" fill="white"/>
<path d="M111.505 150.436C111.425 150.333 111.315 150.257 111.189 150.221C111.064 150.185 110.93 150.191 110.808 150.236C109.155 151.892 82.9271 162.996 80.5868 162.996C80.4835 163.057 80.4035 163.151 80.3597 163.262C80.3158 163.374 80.3105 163.497 80.3446 163.612C80.3801 163.727 80.4527 163.826 80.5508 163.895C80.649 163.964 80.7672 163.998 80.8869 163.992C81.7323 163.992 97.0254 158.836 111.106 151.326C111.192 151.296 111.271 151.249 111.338 151.187C111.405 151.125 111.458 151.05 111.495 150.967C111.532 150.883 111.551 150.794 111.553 150.702C111.555 150.611 111.539 150.521 111.505 150.436Z" fill="white"/>
</svg>
