<svg width="305" height="305" viewBox="0 0 305 305" fill="none" xmlns="http://www.w3.org/2000/svg">
<path d="M212.719 110.495H85.7959C81.2697 110.495 77.6448 114.183 77.6448 118.646V138.282H220.883V118.646C220.88 116.484 220.019 114.41 218.488 112.882C216.958 111.354 214.883 110.495 212.72 110.495H212.719Z" fill="white"/>
<path d="M294.886 214.965C288.307 203.241 281.313 202.21 275.01 196.926C268.091 191.14 269.022 187.203 263.55 173.882C260.425 166.261 260.023 158.915 240.89 157.627C235.072 157.235 217.019 158.295 217.019 158.295V246.463L284.795 244.123C288.632 244.023 293.437 243.833 296.078 241.067C298.48 238.551 297.236 219.167 294.882 214.965H294.886Z" fill="white"/>
<path d="M295.551 214.593C288.864 202.663 281.751 201.583 275.5 196.342C268.775 190.718 269.742 186.951 264.256 173.594C260.942 165.517 260.343 158.173 240.942 156.867C235.141 156.477 217.715 157.493 216.975 157.535C216.781 157.547 216.598 157.632 216.465 157.773C216.331 157.915 216.257 158.102 216.257 158.296C216.257 247.004 216.12 246.653 216.49 247.012C216.858 247.369 216.515 246.96 284.816 244.886C288.569 244.771 293.712 244.653 296.632 241.593C299.525 238.563 297.831 218.66 295.551 214.593ZM295.529 240.541C293.042 243.146 288.264 243.271 284.769 243.362L217.782 245.674V159.016C221.193 158.827 235.79 158.049 240.838 158.388C259.089 159.615 259.545 166.138 262.844 174.172C268.296 187.445 267.408 191.564 274.519 197.512C280.871 202.835 287.764 203.834 294.219 215.339C296.586 219.566 297.564 238.408 295.528 240.541H295.529Z" fill="#501200"/>
<path d="M217.021 138.282H81.4939V246.463H217.021V138.282Z" fill="#FFB949"/>
<path d="M248.355 166.133L262.973 194.965L227.487 194.009L227.135 165.642L248.355 166.133Z" fill="#FCCAC2"/>
<path d="M262.972 195.726L227.465 194.771C227.268 194.766 227.081 194.684 226.942 194.544C226.804 194.404 226.725 194.215 226.723 194.018C226.36 165.101 226.238 165.453 226.596 165.099C226.957 164.74 226.665 164.86 248.37 165.369C248.508 165.372 248.643 165.413 248.759 165.487C248.876 165.56 248.971 165.664 249.033 165.787L263.65 194.619C263.709 194.735 263.737 194.865 263.732 194.995C263.727 195.125 263.688 195.252 263.62 195.363C263.552 195.474 263.456 195.565 263.342 195.629C263.229 195.693 263.101 195.726 262.97 195.726H262.972ZM228.24 193.266L261.714 194.167L247.882 166.885L227.907 166.423L228.241 193.268L228.24 193.266Z" fill="#501200"/>
<path d="M158.24 110.495H139.949V246.463H158.24V110.495Z" fill="#FF7449"/>
<path d="M202.291 86.5191C199.825 82.5815 193.361 83.4874 189.649 84.1294C181.912 85.4882 174.528 89.1482 168.113 93.7399C165.721 95.4586 161.781 97.9017 159.763 100.442C158.703 99.1735 157.232 98.4613 155.181 98.8716C153.331 99.2498 151.217 101.966 149.457 101.676C146.2 101.122 143.948 97.8147 140.237 98.3058C138.543 98.5269 137.317 99.8155 136.452 101.35C134.55 98.3409 130.919 95.9207 128.325 93.9534C121.483 88.7715 113.835 84.7836 105.771 82.946C102.538 82.2033 96.2867 81.0092 93.833 84.6311C91.5058 88.0654 97.6561 93.5371 98.6001 96.5932C99.1918 98.4918 98.1472 100.43 97.6698 102.216C96.4041 106.885 95.9863 108.63 98.0603 110.494H202.379C204.298 103.236 200.025 104.345 199.072 99.1842C198.254 94.8318 205.222 91.1734 202.291 86.5191Z" fill="#FF7449"/>
<path d="M212.719 109.733H163.524C163.007 106.82 162.571 102.754 160.501 100.141C159.129 98.3807 157.238 97.6822 155.031 98.1275C153.068 98.5255 150.866 101.142 149.587 100.926C146.523 100.407 144.179 97.0112 140.141 97.5511C134.956 98.2266 133.565 107.023 133.613 109.733H85.7977C80.7819 109.733 76.884 113.837 76.884 118.646V138.282C76.884 138.485 76.9644 138.678 77.1074 138.821C77.2504 138.964 77.4443 139.045 77.6465 139.045H80.7331V246.463C80.7331 246.665 80.8135 246.859 80.9565 247.002C81.0995 247.145 81.2934 247.225 81.4956 247.225H217.022C217.225 247.225 217.419 247.145 217.562 247.002C217.705 246.859 217.785 246.665 217.785 246.463V139.045H220.884C221.086 139.045 221.28 138.964 221.423 138.821C221.566 138.678 221.646 138.485 221.646 138.282V118.646C221.644 116.281 220.703 114.013 219.029 112.341C217.355 110.67 215.086 109.732 212.72 109.733H212.719ZM137.628 100.93C138.416 99.8218 139.327 99.1935 140.336 99.0623C142.232 98.8107 143.735 99.715 145.325 100.671C149.659 103.274 150.49 102.745 153.09 100.888C153.872 100.33 154.68 99.7516 155.33 99.619C160.163 98.6506 161.183 104.938 161.974 109.731H135.13C135.104 108.414 135.656 103.703 137.626 100.929L137.628 100.93ZM216.258 245.7H82.2566V139.045H216.258V245.7ZM220.12 137.52H78.406V118.646C78.406 114.66 81.6375 111.258 85.7946 111.258H212.719C214.68 111.257 216.561 112.034 217.949 113.42C219.337 114.805 220.118 116.685 220.12 118.646V137.52Z" fill="#501200"/>
<path d="M120.476 231.809C128.15 231.809 134.363 238.023 134.363 245.684C134.363 253.344 128.149 259.57 120.476 259.57C112.806 259.57 106.602 253.344 106.602 245.684C106.602 238.023 112.816 231.809 120.476 231.809Z" fill="white"/>
<path d="M120.476 220.631C106.661 220.631 95.422 231.87 95.422 245.683C95.4119 248.976 96.0531 252.239 97.3087 255.283C98.5642 258.327 100.409 261.093 102.738 263.421C105.066 265.75 107.832 267.595 110.877 268.85C113.921 270.105 117.183 270.746 120.476 270.736C134.457 270.736 145.541 259.652 145.541 245.683C145.541 232.067 134.534 220.631 120.476 220.631ZM120.476 258.809C113.246 258.809 107.363 252.921 107.363 245.685C107.363 238.449 113.245 232.571 120.476 232.571C127.708 232.571 133.6 238.453 133.6 245.685C133.6 252.916 127.712 258.809 120.476 258.809Z" fill="#501200"/>
<path d="M260.067 231.815C267.74 231.815 273.953 238.029 273.953 245.689C273.953 253.349 267.739 259.576 260.067 259.576C252.394 259.576 246.192 253.349 246.192 245.689C246.192 238.029 252.407 231.815 260.067 231.815Z" fill="white"/>
<path d="M260.067 220.637C246.252 220.637 235.013 231.876 235.013 245.689C235.003 248.982 235.644 252.245 236.899 255.289C238.155 258.333 240 261.099 242.329 263.427C244.657 265.756 247.423 267.601 250.467 268.856C253.512 270.111 256.774 270.752 260.067 270.742C274.048 270.742 285.132 259.658 285.132 245.689C285.132 232.073 274.124 220.637 260.067 220.637ZM260.067 258.815C252.837 258.815 246.954 252.927 246.954 245.691C246.954 238.455 252.835 232.577 260.067 232.577C267.299 232.577 273.191 238.459 273.191 245.691C273.191 252.922 267.303 258.815 260.067 258.815Z" fill="#501200"/>
<path d="M71.7785 171.096H25.8577C25.6555 171.096 25.4615 171.015 25.3185 170.872C25.1755 170.729 25.0952 170.535 25.0952 170.333C25.0952 170.131 25.1755 169.937 25.3185 169.794C25.4615 169.651 25.6555 169.571 25.8577 169.571H71.7785C71.9807 169.571 72.1747 169.651 72.3177 169.794C72.4607 169.937 72.541 170.131 72.541 170.333C72.541 170.535 72.4607 170.729 72.3177 170.872C72.1747 171.015 71.9807 171.096 71.7785 171.096Z" fill="#501200"/>
<path d="M71.7782 159.632H7.62603C7.4238 159.632 7.22985 159.552 7.08686 159.409C6.94386 159.266 6.86353 159.072 6.86353 158.87C6.86353 158.667 6.94386 158.473 7.08686 158.33C7.22985 158.187 7.4238 158.107 7.62603 158.107H71.7782C71.9804 158.107 72.1744 158.187 72.3174 158.33C72.4604 158.473 72.5407 158.667 72.5407 158.87C72.5407 159.072 72.4604 159.266 72.3174 159.409C72.1744 159.552 71.9804 159.632 71.7782 159.632Z" fill="#501200"/>
<path d="M71.778 194.023H41.9688C41.7666 194.023 41.5726 193.942 41.4296 193.799C41.2866 193.656 41.2063 193.462 41.2063 193.26C41.2063 193.058 41.2866 192.864 41.4296 192.721C41.5726 192.578 41.7666 192.498 41.9688 192.498H71.778C71.9802 192.498 72.1742 192.578 72.3171 192.721C72.4601 192.864 72.5405 193.058 72.5405 193.26C72.5405 193.462 72.4601 193.656 72.3171 193.799C72.1742 193.942 71.9802 194.023 71.778 194.023Z" fill="#501200"/>
<path d="M71.7782 182.557H13.97C13.7678 182.557 13.5738 182.477 13.4309 182.334C13.2879 182.191 13.2075 181.997 13.2075 181.795C13.2075 181.593 13.2879 181.399 13.4309 181.256C13.5738 181.113 13.7678 181.032 13.97 181.032H71.7782C71.9804 181.032 72.1744 181.112 72.3176 181.255C72.4607 181.398 72.5413 181.592 72.5415 181.794C72.5417 181.996 72.4615 182.19 72.3187 182.334C72.1758 182.477 71.982 182.557 71.7797 182.557H71.7782Z" fill="#501200"/>
<path d="M269.765 112.585C267.601 114.445 265.299 117.529 265.01 121.088C264.734 124.635 266.519 128.058 268.368 130.22C266.518 128.054 263.424 125.755 259.864 125.465C256.317 125.189 252.895 126.975 250.733 128.823C252.897 126.973 255.198 123.879 255.488 120.332C255.764 116.773 253.978 113.363 252.13 111.186C253.979 113.363 257.074 115.665 260.633 115.941C264.18 116.216 267.602 114.445 269.765 112.585Z" fill="#FFB949"/>
<path d="M147.031 50.4304C144.289 49.6633 140.44 49.4864 137.332 51.2356C134.225 52.9848 132.388 56.3809 131.62 59.1229C132.388 56.3809 132.577 52.5181 130.815 49.4239C129.066 46.3174 125.684 44.4798 122.928 43.7127C125.682 44.4798 129.533 44.6567 132.639 42.9075C135.733 41.1584 137.569 37.7622 138.338 35.0202C137.571 37.7622 137.394 41.625 139.143 44.7192C140.892 47.8257 144.289 49.6633 147.031 50.4304Z" fill="#FFB949"/>
<path d="M65.5301 104.748C62.776 103.993 58.9253 103.804 55.8189 105.553C52.7125 107.314 50.8886 110.698 50.12 113.452C50.8871 110.698 51.064 106.848 49.3148 103.741C47.5656 100.647 44.1694 98.8109 41.4275 98.0423C44.1694 98.8094 48.0185 98.9863 51.1265 97.2371C54.2329 95.4879 56.0705 92.0917 56.8376 89.3498C56.0705 92.0917 55.8814 95.9408 57.6306 99.0488C59.392 102.155 62.776 103.993 65.5301 104.748Z" fill="#FFB949"/>
<path d="M107.792 163.787C107.638 163.787 107.488 163.74 107.361 163.654C107.234 163.567 107.136 163.444 107.08 163.301C107.024 163.157 107.013 163 107.048 162.851C107.083 162.701 107.163 162.565 107.276 162.461C121.505 149.441 111.65 130.351 121.422 115.446C126.856 107.159 142.084 102.956 151.475 109.611C151.639 109.729 151.749 109.906 151.782 110.104C151.815 110.303 151.768 110.506 151.652 110.671C151.536 110.835 151.359 110.946 151.161 110.981C150.963 111.016 150.759 110.97 150.594 110.855C142.011 104.774 127.725 108.614 122.697 116.28C113.349 130.54 122.976 150.161 108.306 163.585C108.166 163.714 107.982 163.786 107.792 163.787Z" fill="#501200"/>
<path d="M109.321 161.054C110.282 162.939 112.341 176.485 112.167 179.889C112.027 182.56 83.889 230.737 83.889 230.737L60.1143 215.446C60.1143 215.446 86.8384 159.309 89.2113 158.681C92.6166 157.791 108.833 160.058 109.321 161.054Z" fill="#FF7449"/>
<path d="M81.0964 217.898C79.3329 217.024 77.575 216.138 75.823 215.24C76.3384 214.182 77.8085 211.231 78.4063 210.183C78.4559 210.096 78.4878 210 78.5003 209.901C78.5127 209.801 78.5055 209.7 78.4789 209.604C78.4524 209.507 78.4071 209.417 78.3455 209.337C78.284 209.258 78.2075 209.192 78.1204 209.142C78.0333 209.093 77.9373 209.061 77.8378 209.049C77.7384 209.036 77.6374 209.043 77.5408 209.07C77.4441 209.096 77.3537 209.142 77.2745 209.203C77.1954 209.265 77.1292 209.341 77.0796 209.428C75.579 212.065 74.6335 213.611 74.2477 214.429C72.6571 213.602 71.4066 212.93 70.8469 212.585C71.28 211.377 73.1481 207.913 73.7383 206.72C73.8277 206.538 73.8413 206.329 73.7761 206.137C73.7109 205.946 73.5722 205.788 73.3906 205.698C73.209 205.609 72.9993 205.595 72.8077 205.66C72.6161 205.726 72.4583 205.864 72.3689 206.046C70.6456 209.55 68.9163 212.28 69.3173 213.218C69.4485 213.525 69.6132 213.906 80.4178 219.266C81.3176 219.716 81.9977 218.347 81.0949 217.9V217.898H81.0964Z" fill="white"/>
<path d="M86.2846 208.213C80.2624 204.634 75.4205 202.32 75.9741 200.927C76.5231 199.545 78.7831 196.583 80.97 196.079C81.8377 195.88 82.6277 196.074 83.2529 196.641C84.1816 197.489 84.0978 199.447 83.5762 202.327C85.9964 200.847 90.2618 198.683 91.552 198.211C91.7421 198.141 91.9519 198.15 92.1354 198.236C92.3189 198.321 92.4609 198.476 92.5303 198.666C92.5996 198.856 92.5906 199.066 92.5053 199.249C92.4199 199.433 92.2651 199.575 92.075 199.644C89.7723 200.486 83.0669 204.535 83.0303 204.573C83.1873 204.666 86.8931 206.837 87.0502 206.903C87.2029 207.014 87.3089 207.178 87.3475 207.363C87.3862 207.548 87.3548 207.741 87.2595 207.904C87.1642 208.067 87.0117 208.189 86.8315 208.246C86.6514 208.303 86.4565 208.291 86.2846 208.213ZM77.5677 201.116C77.9978 201.474 79.0942 202.23 81.7584 203.821C81.8057 203.258 82.9113 198.397 82.2235 197.768C81.0234 196.676 78.3851 199.597 77.5677 201.116Z" fill="white"/>
<path d="M98.1778 185.217C97.9979 185.125 97.7889 185.108 97.5963 185.169C97.4037 185.231 97.2433 185.366 97.1499 185.545C95.5029 188.737 93.3954 192.412 92.6664 193.158C92.0961 193.037 90.8563 192.431 89.5478 191.723C90.3744 190.158 93.0751 185.054 93.4549 184.444C93.5076 184.359 93.5431 184.264 93.5593 184.165C93.5755 184.067 93.572 183.966 93.5492 183.868C93.5263 183.771 93.4845 183.679 93.426 183.597C93.3676 183.516 93.2937 183.447 93.2086 183.394C93.1235 183.341 93.0288 183.306 92.93 183.29C92.8311 183.273 92.7301 183.277 92.6326 183.3C92.5351 183.323 92.4431 183.365 92.3617 183.423C92.2804 183.481 92.2114 183.555 92.1586 183.64C91.7453 184.308 89.0979 189.315 88.215 190.982C87.3578 190.498 86.5122 189.993 85.6789 189.469C86.8516 187.053 88.9637 182.757 89.8681 181.138C89.92 181.05 89.9539 180.953 89.9677 180.852C89.9815 180.751 89.975 180.649 89.9485 180.55C89.922 180.452 89.876 180.36 89.8134 180.28C89.7507 180.2 89.6726 180.133 89.5837 180.083C89.4948 180.033 89.3968 180.002 89.2956 179.991C89.1944 179.98 89.0919 179.989 88.9944 180.018C88.8968 180.047 88.806 180.096 88.7274 180.16C88.6488 180.225 88.584 180.305 88.5367 180.395C87.5531 182.157 85.1924 186.971 84.0807 189.271C83.9175 189.609 83.9831 190.097 84.558 190.544C86.1349 191.769 91.6249 194.706 92.8433 194.706C93.2963 194.706 94.1396 194.706 98.5072 186.247C98.5532 186.158 98.5812 186.06 98.5897 185.961C98.5981 185.861 98.5867 185.76 98.5563 185.665C98.5258 185.569 98.4769 185.481 98.4122 185.404C98.3475 185.328 98.2684 185.265 98.1793 185.219L98.1778 185.217Z" fill="white"/>
<path d="M105.664 171.715C105.484 171.623 105.275 171.605 105.082 171.667C104.89 171.728 104.729 171.863 104.636 172.043C102.989 175.235 100.882 178.91 100.153 179.656C99.5809 179.535 98.3411 178.928 97.0326 178.221C97.8561 176.661 100.555 171.558 100.94 170.945C101.037 170.774 101.065 170.572 101.017 170.381C100.969 170.19 100.849 170.025 100.682 169.921C100.515 169.817 100.314 169.781 100.121 169.821C99.9288 169.861 99.7592 169.974 99.648 170.137C99.2775 170.728 96.5904 175.781 95.7044 177.483C94.8453 176.997 93.9977 176.492 93.1622 175.967C94.3959 173.422 96.4562 169.235 97.3514 167.637C97.4503 167.461 97.475 167.252 97.4201 167.057C97.3651 166.863 97.2351 166.698 97.0586 166.599C96.882 166.5 96.6734 166.475 96.4787 166.53C96.2839 166.585 96.1189 166.715 96.0201 166.892C94.8062 169.06 91.6952 175.496 91.564 175.769C91.3932 176.122 91.4588 176.62 92.2045 177.165C93.9659 178.453 99.1494 181.204 100.328 181.204C100.781 181.204 101.626 181.204 105.992 172.744C106.085 172.564 106.102 172.355 106.041 172.162C105.979 171.969 105.844 171.808 105.664 171.715Z" fill="white"/>
</svg>
