<svg width="43" height="43" viewBox="0 0 43 43" fill="none" xmlns="http://www.w3.org/2000/svg">
<path d="M28.1471 22.7721C29.9037 21.3901 31.1858 19.495 31.8151 17.3504C32.4444 15.2058 32.3897 12.9184 31.6584 10.8064C30.9272 8.69437 29.5558 6.86279 27.7352 5.56645C25.9145 4.27011 23.7351 3.57349 21.5001 3.57349C19.265 3.57349 17.0856 4.27011 15.2649 5.56645C13.4443 6.86279 12.0729 8.69437 11.3417 10.8064C10.6104 12.9184 10.5557 15.2058 11.185 17.3504C11.8143 19.495 13.0964 21.3901 14.853 22.7721C11.8431 23.9779 9.2169 25.978 7.25432 28.559C5.29174 31.14 4.06636 34.2053 3.70881 37.4279C3.68292 37.6632 3.70364 37.9013 3.76977 38.1286C3.8359 38.3558 3.94614 38.5679 4.09421 38.7525C4.39326 39.1255 4.82821 39.3644 5.30339 39.4167C5.77857 39.4689 6.25505 39.3303 6.62801 39.0313C7.00098 38.7322 7.23987 38.2973 7.29214 37.8221C7.68556 34.3197 9.35558 31.0851 11.9831 28.7362C14.6107 26.3873 18.0115 25.0888 21.5359 25.0888C25.0603 25.0888 28.4611 26.3873 31.0887 28.7362C33.7162 31.0851 35.3862 34.3197 35.7796 37.8221C35.8284 38.2623 36.0384 38.6689 36.3693 38.9634C36.7002 39.2579 37.1284 39.4193 37.5713 39.4167H37.7684C38.238 39.3626 38.6673 39.1251 38.9626 38.756C39.258 38.3868 39.3954 37.9159 39.3451 37.4458C38.9858 34.214 37.7538 31.1409 35.7812 28.5559C33.8085 25.971 31.1695 23.9716 28.1471 22.7721ZM21.5001 21.5C20.0826 21.5 18.697 21.0797 17.5185 20.2922C16.3399 19.5047 15.4213 18.3854 14.8789 17.0759C14.3365 15.7664 14.1946 14.3254 14.4711 12.9352C14.7476 11.545 15.4302 10.268 16.4325 9.26573C17.4347 8.26346 18.7117 7.5809 20.1019 7.30437C21.4921 7.02784 22.9331 7.16977 24.2426 7.7122C25.5522 8.25462 26.6714 9.17319 27.4589 10.3517C28.2464 11.5303 28.6667 12.9159 28.6667 14.3333C28.6667 16.2341 27.9117 18.0569 26.5677 19.4009C25.2236 20.7449 23.4008 21.5 21.5001 21.5Z" fill="black"/>
</svg>
