<svg width="43" height="43" viewBox="0 0 43 43" fill="none" xmlns="http://www.w3.org/2000/svg">
<path d="M22.0376 21.8941C22.9936 21.0666 23.7604 20.0431 24.2859 18.8931C24.8114 17.7431 25.0834 16.4935 25.0834 15.2291C25.0834 12.8532 24.1396 10.5746 22.4596 8.89459C20.7796 7.21457 18.501 6.27075 16.1251 6.27075C13.7492 6.27075 11.4706 7.21457 9.79058 8.89459C8.11057 10.5746 7.16675 12.8532 7.16675 15.2291C7.16673 16.4935 7.43873 17.7431 7.96426 18.8931C8.4898 20.0431 9.25659 21.0666 10.2126 21.8941C7.7045 23.0298 5.57658 24.8638 4.08325 27.1769C2.58993 29.49 1.79439 32.1842 1.79175 34.9374C1.79175 35.4126 1.98051 35.8683 2.31651 36.2043C2.65252 36.5403 3.10824 36.7291 3.58341 36.7291C4.05859 36.7291 4.51431 36.5403 4.85031 36.2043C5.18632 35.8683 5.37508 35.4126 5.37508 34.9374C5.37508 32.0863 6.50767 29.352 8.52368 27.336C10.5397 25.32 13.274 24.1874 16.1251 24.1874C18.9762 24.1874 21.7105 25.32 23.7265 27.336C25.7425 29.352 26.8751 32.0863 26.8751 34.9374C26.8751 35.4126 27.0638 35.8683 27.3998 36.2043C27.7359 36.5403 28.1916 36.7291 28.6667 36.7291C29.1419 36.7291 29.5976 36.5403 29.9336 36.2043C30.2697 35.8683 30.4584 35.4126 30.4584 34.9374C30.4558 32.1842 29.6602 29.49 28.1669 27.1769C26.6736 24.8638 24.5457 23.0298 22.0376 21.8941ZM16.1251 20.6041C15.062 20.6041 14.0228 20.2888 13.1389 19.6982C12.255 19.1076 11.5661 18.2682 11.1592 17.286C10.7524 16.3039 10.646 15.2231 10.8534 14.1805C11.0608 13.1378 11.5727 12.1801 12.3244 11.4284C13.0761 10.6767 14.0338 10.1648 15.0765 9.95737C16.1191 9.74997 17.1999 9.85641 18.182 10.2632C19.1642 10.6701 20.0036 11.359 20.5942 12.2429C21.1848 13.1268 21.5001 14.166 21.5001 15.2291C21.5001 16.6546 20.9338 18.0218 19.9258 19.0298C18.9178 20.0378 17.5506 20.6041 16.1251 20.6041ZM33.5759 21.1774C34.7225 19.8862 35.4715 18.2911 35.7327 16.5842C35.9939 14.8772 35.7562 13.1312 35.0482 11.5562C34.3402 9.98116 33.1921 8.64434 31.7421 7.70663C30.2921 6.76892 28.6019 6.27029 26.8751 6.27075C26.3999 6.27075 25.9442 6.45952 25.6082 6.79552C25.2722 7.13152 25.0834 7.58724 25.0834 8.06242C25.0834 8.5376 25.2722 8.99332 25.6082 9.32932C25.9442 9.66532 26.3999 9.85409 26.8751 9.85409C28.3006 9.85409 29.6678 10.4204 30.6758 11.4284C31.6838 12.4364 32.2501 13.8035 32.2501 15.2291C32.2475 16.1701 31.998 17.094 31.5264 17.9084C31.0547 18.7227 30.3776 19.399 29.5626 19.8695C29.2969 20.0227 29.0751 20.2416 28.9182 20.5051C28.7614 20.7686 28.6748 21.0679 28.6667 21.3745C28.6593 21.6787 28.7293 21.9797 28.8704 22.2493C29.0115 22.5189 29.2188 22.7481 29.473 22.9153L30.1717 23.3812L30.4047 23.5066C32.5643 24.5309 34.3863 26.1511 35.656 28.1762C36.9257 30.2014 37.5902 32.5472 37.5713 34.9374C37.5713 35.4126 37.7601 35.8683 38.0961 36.2043C38.4321 36.5403 38.8878 36.7291 39.363 36.7291C39.8382 36.7291 40.2939 36.5403 40.6299 36.2043C40.9659 35.8683 41.1547 35.4126 41.1547 34.9374C41.1693 32.188 40.4807 29.4805 39.1542 27.0721C37.8277 24.6638 35.9075 22.6346 33.5759 21.1774Z" fill="black"/>
</svg>
