<svg width="48" height="48" viewBox="0 0 48 48" fill="none" xmlns="http://www.w3.org/2000/svg">
<path d="M42.98 20.3799L40.98 19.2799L22.98 9.27991H22.76C22.6374 9.22807 22.5102 9.18789 22.38 9.15991H22H21.64C21.5034 9.18791 21.3695 9.22807 21.24 9.27991H21.02L3.02 19.2799C2.7122 19.4543 2.45619 19.7073 2.27807 20.013C2.09995 20.3187 2.0061 20.6661 2.0061 21.0199C2.0061 21.3737 2.09995 21.7212 2.27807 22.0268C2.45619 22.3325 2.7122 22.5855 3.02 22.7599L8 25.5199V34.9999C8 36.5912 8.63214 38.1173 9.75736 39.2426C10.8826 40.3678 12.4087 40.9999 14 40.9999H30C31.5913 40.9999 33.1174 40.3678 34.2426 39.2426C35.3679 38.1173 36 36.5912 36 34.9999V25.5199L40 23.2799V28.9999C40 29.5303 40.2107 30.0391 40.5858 30.4141C40.9609 30.7892 41.4696 30.9999 42 30.9999C42.5304 30.9999 43.0391 30.7892 43.4142 30.4141C43.7893 30.0391 44 29.5303 44 28.9999V22.1199C43.9994 21.7655 43.9046 21.4177 43.7254 21.1119C43.5462 20.8062 43.2889 20.5536 42.98 20.3799ZM32 34.9999C32 35.5303 31.7893 36.0391 31.4142 36.4141C31.0391 36.7892 30.5304 36.9999 30 36.9999H14C13.4696 36.9999 12.9609 36.7892 12.5858 36.4141C12.2107 36.0391 12 35.5303 12 34.9999V27.7399L21.02 32.7399L21.32 32.8599H21.5C21.666 32.8808 21.834 32.8808 22 32.8599C22.166 32.8808 22.334 32.8808 22.5 32.8599H22.68C22.7862 32.8375 22.8877 32.7969 22.98 32.7399L32 27.7399V34.9999ZM22 28.7199L8.12 20.9999L22 13.2799L35.88 20.9999L22 28.7199Z" fill="black"/>
</svg>
