<svg width="43" height="43" viewBox="0 0 43 43" fill="none" xmlns="http://www.w3.org/2000/svg">
<path d="M35.8333 14.3334L25.0833 4.90924C24.0978 4.02782 22.8221 3.54053 21.4999 3.54053C20.1778 3.54053 18.902 4.02782 17.9166 4.90924L7.16659 14.3334C6.5975 14.8424 6.14337 15.4667 5.83444 16.1649C5.5255 16.8631 5.36886 17.6191 5.37493 18.3826V34.0417C5.37493 35.4673 5.94122 36.8344 6.94923 37.8424C7.95723 38.8504 9.32439 39.4167 10.7499 39.4167H32.2499C33.6755 39.4167 35.0426 38.8504 36.0506 37.8424C37.0586 36.8344 37.6249 35.4673 37.6249 34.0417V18.3647C37.6284 17.6042 37.4706 16.8517 37.1617 16.1568C36.8529 15.4618 36.4001 14.8404 35.8333 14.3334ZM25.0833 35.8334H17.9166V26.8751C17.9166 26.3999 18.1054 25.9442 18.4414 25.6082C18.7774 25.2722 19.2331 25.0834 19.7083 25.0834H23.2916C23.7668 25.0834 24.2225 25.2722 24.5585 25.6082C24.8945 25.9442 25.0833 26.3999 25.0833 26.8751V35.8334ZM34.0416 34.0417C34.0416 34.5169 33.8528 34.9726 33.5168 35.3086C33.1808 35.6446 32.7251 35.8334 32.2499 35.8334H28.6666V26.8751C28.6666 25.4495 28.1003 24.0824 27.0923 23.0744C26.0843 22.0664 24.7171 21.5001 23.2916 21.5001H19.7083C18.2827 21.5001 16.9156 22.0664 15.9076 23.0744C14.8996 24.0824 14.3333 25.4495 14.3333 26.8751V35.8334H10.7499C10.2747 35.8334 9.81903 35.6446 9.48303 35.3086C9.14702 34.9726 8.95826 34.5169 8.95826 34.0417V18.3647C8.95858 18.1103 9.01307 17.8589 9.11811 17.6272C9.22314 17.3955 9.37631 17.1888 9.56743 17.0209L20.3174 7.61466C20.6444 7.32742 21.0647 7.16901 21.4999 7.16901C21.9351 7.16901 22.3555 7.32742 22.6824 7.61466L33.4324 17.0209C33.6235 17.1888 33.7767 17.3955 33.8817 17.6272C33.9868 17.8589 34.0413 18.1103 34.0416 18.3647V34.0417Z" fill="black"/>
</svg>
